<?xml version="1.0" encoding="UTF-8" standalone="no"?>
<svg
   xmlns:dc="http://purl.org/dc/elements/1.1/"
   xmlns:cc="http://creativecommons.org/ns#"
   xmlns:rdf="http://www.w3.org/1999/02/22-rdf-syntax-ns#"
   xmlns:svg="http://www.w3.org/2000/svg"
   xmlns="http://www.w3.org/2000/svg"
   xmlns:sodipodi="http://sodipodi.sourceforge.net/DTD/sodipodi-0.dtd"
   xmlns:inkscape="http://www.inkscape.org/namespaces/inkscape"
   version="1.1"
   x="0px"
   y="0px"
   viewBox="0 0 512 640"
   enable-background="new 0 0 512 512"
   xml:space="preserve"
   id="svg24"
   sodipodi:docname="noun_Business INsurance_585585.svg"
   inkscape:version="0.92.3 (2405546, 2018-03-11)"><metadata
     id="metadata30"><rdf:RDF><cc:Work
         rdf:about=""><dc:format>image/svg+xml</dc:format><dc:type
           rdf:resource="http://purl.org/dc/dcmitype/StillImage" /></cc:Work></rdf:RDF></metadata><defs
     id="defs28" /><sodipodi:namedview
     pagecolor="#ffffff"
     bordercolor="#666666"
     borderopacity="1"
     objecttolerance="10"
     gridtolerance="10"
     guidetolerance="10"
     inkscape:pageopacity="0"
     inkscape:pageshadow="2"
     inkscape:window-width="1366"
     inkscape:window-height="664"
     id="namedview26"
     showgrid="false"
     inkscape:zoom="0.36875"
     inkscape:cx="256"
     inkscape:cy="320"
     inkscape:window-x="0"
     inkscape:window-y="27"
     inkscape:window-maximized="1"
     inkscape:current-layer="svg24" /><g
     id="g18"
     style="fill:#999999"><g
       id="g12"
       style="fill:#999999"><path
         fill="#000000"
         d="M250.717,343.449H113.773c-19.046,0-34.472-14.088-34.472-31.481v-38.013    c-8.5-2.204-16.843-4.722-24.791-7.32v76.972c0,13.694,11.097,24.87,24.87,24.87h173.934    C252.134,360.449,251.268,352.185,250.717,343.449z"
         id="path2"
         style="fill:#999999" /><path
         fill="#000000"
         d="M336.769,67.652c-5.664,0-10.256-4.592-10.256-10.256v-4.745c0-15.081-12.269-27.35-27.35-27.35h-90.284    c-15.081,0-27.35,12.269-27.35,27.35v4.745c0,5.664-4.592,10.256-10.256,10.256c-5.664,0-10.256-4.592-10.256-10.256v-4.745    c0-26.391,21.471-47.862,47.862-47.862h90.284c26.391,0,47.862,21.471,47.862,47.862v4.745    C347.025,63.061,342.434,67.652,336.769,67.652z"
         id="path4"
         style="fill:#999999" /><path
         fill="#000000"
         d="M452.591,157.631v78.94c-8.027,2.833-16.292,5.431-24.87,7.87c-2.282,0.629-4.644,1.259-7.083,1.889    c-1.574-1.023-3.069-2.046-4.643-3.148c-14.56-10.546-34-11.018-49.19-1.417l-2.44,1.495c-4.644,2.991-9.051,5.824-13.144,7.949    c-7.004,3.778-14.402,6.926-22.273,9.366c-13.144,1.338-25.894,2.282-37.384,2.991v-4.958c0-10.31-4.171-19.755-11.019-26.444    c-6.847-6.848-16.134-11.097-26.523-11.097c-20.699,0-37.542,16.921-37.542,37.542v4.958    c-42.185-2.519-102.157-9.209-137.18-19.125c-8.5-2.44-16.843-5.037-24.791-7.87v-78.94c0-13.773,11.097-24.87,24.87-24.87    h348.341C441.415,132.761,452.591,143.858,452.591,157.631z"
         id="path6"
         style="fill:#999999" /><path
         fill="#000000"
         d="M454.401,87.27c-8.815-0.393-17.63-0.079-26.287-0.079c0-0.236-365.183-0.708-365.183-0.708v-0.079h-8.027    c-26.681,0.236-47.615,20.62-47.615,47.301c-0.236,78.467-0.236,156.934,0,235.401c0,22.116,15.268,40.375,36.99,44.152    c8.815,1.495,17.945,1.102,26.917,1.417c2.991,0.158,5.982,0.079,8.815,0.079c1.574,6.926,4.801,9.838,10.861,10.074    c6.454,0.315,9.523-2.283,11.963-10.389h162.129c-2.519-6.768-4.722-13.852-6.533-21.171h-4.565    c-66.032,0-132.143-0.236-198.175,0.158c-14.639,0.079-27.861-11.176-27.782-27.704c0.472-76.814,0.157-153.708,0.157-230.522    c0-16.843,11.019-27.861,27.625-27.861c132.221,0,264.365,0.158,396.507-0.157c16.449-0.079,28.018,13.93,27.94,27.782    c-0.157,43.995-0.236,87.99-0.236,131.907c0.944,0.079,1.889,0.158,2.833,0.236l7.949,0.787c3.542,0.315,7.005,1.023,10.231,2.203    V136.066C500.915,107.418,482.971,88.529,454.401,87.27z"
         id="path8"
         style="fill:#999999" /><path
         fill="#000000"
         d="M274.407,266.241c-0.158,0-0.079,2.597-0.158,5.588c-0.079,2.597-0.158,5.588-0.472,7.556    c-1.181,7.555-7.477,15.347-19.755,15.504h-1.023c-11.648-0.63-17.551-8.185-18.731-15.504c-0.63-4.25-0.472-13.144-0.63-13.144    c0.315-4.722,0.079-9.523,1.023-14.088c1.732-8.343,8.894-13.537,17.394-14.009c0.63,0,1.338-0.078,1.968-0.078    s1.338,0.078,1.968,0.078c8.5,0.472,15.662,5.667,17.394,14.009C274.328,256.718,274.092,261.519,274.407,266.241z"
         id="path10"
         style="fill:#999999" /></g><path
       fill="#000000"
       d="M485.292,291.584l-7.618-0.78c-5.819-0.58-11.49-1.182-16.974-2.178   c-20.289-3.768-39.032-11.831-57.27-24.622c-7.633-5.514-17.175-5.767-25.201-0.665l-2.244,1.419   c-4.846,3.099-9.431,6.031-14.009,8.469c-19.457,10.427-41.15,16.387-66.337,18.215c-19.457,1.531-20.965,17.294-20.965,22.05   c-0.045,3.441-0.045,6.934,0,10.33v5.017c0.268,17.041,1.739,32.239,4.504,46.479c4.957,25.008,13.206,46.308,25.216,65.103   c17.599,27.743,43.179,49.555,76.035,64.85c2.794,1.271,6.027,1.94,9.357,1.94c3.983,0,7.885-0.996,10.962-2.794   c37.813-21.575,65.675-51.265,82.82-88.246c13.779-29.839,20.75-63.594,21.322-103.243   C504.889,303.49,498.743,292.78,485.292,291.584z M295.49,312.437c0.342-0.074,0.929-0.141,1.746-0.208   c28.033-2.066,52.417-8.807,74.571-20.616c5.574-3.002,11.029-6.495,16.305-9.862l1.33-0.847c0.632-0.416,0.892-0.438,0.936-0.438   c0.111,0,0.394,0.111,0.877,0.468c20.631,14.44,42.711,23.93,65.638,28.189c6.176,1.122,12.493,1.769,18.609,2.386   c2.482,0.253,4.964,0.505,7.484,0.795c0.914,0.089,1.159,0.208,1.063,0.58c-0.52,36.527-6.874,67.451-19.412,94.54   c-15.25,32.938-40.229,59.477-74.853,78.948c-0.416,0-0.691-0.082-0.691-0.082c-29.006-13.474-51.577-32.655-67.087-57.024   c-10.576-16.528-17.896-35.502-22.392-57.983c-2.527-13.043-3.872-27.03-4.102-42.703l-0.015-4.868   c-0.022-3.255-0.037-6.555,0.015-9.877C295.512,313.039,295.549,312.594,295.49,312.437z"
       id="path14"
       style="fill:#999999" /><path
       fill="#000000"
       d="M422.997,414.214c-1.482,11.148-8.622,17.681-19.008,20.955c-2.484,0.79-5.094,1.171-8.015,1.834v12.912   h-10.767v-12.799c-21.463-4.671-30.79-14.619-29.139-31.002h18.739c0.155,1.143,0.339,2.258,0.466,3.373   c0.79,7.027,5.504,11.642,12.517,12.164c1.369,0.113,2.737,0.113,4.106,0.056c5.856-0.198,9.737-2.879,11.232-7.705   c1.764-5.63,0.24-11.698-4.374-14.69c-3.584-2.328-7.705-3.838-11.543-5.771c-5.983-2.977-12.46-5.292-17.822-9.13   c-15.663-11.232-13.42-36.011,3.852-44.675c3.895-1.947,8.326-2.879,13.123-4.487v-13.448h10.696v14.167   c9.313,1.722,17.286,5.376,22.225,13.758c2.667,4.516,4.092,11.021,3.528,16.256h-18.866c-0.48-2.455-0.706-4.84-1.453-7.07   c-1.778-5.376-6.068-8.071-12.135-7.973c-5.87,0.099-9.257,2.3-10.837,7.084c-1.919,5.8-0.663,11.867,3.824,14.788   c3.852,2.526,8.213,4.29,12.389,6.336c5.292,2.596,10.866,4.713,15.861,7.789C421.755,393.189,424.492,403.081,422.997,414.214z"
       id="path16"
       style="fill:#999999" /></g></svg>