<?xml version="1.0" encoding="UTF-8" standalone="no"?>
<svg
   xmlns:dc="http://purl.org/dc/elements/1.1/"
   xmlns:cc="http://creativecommons.org/ns#"
   xmlns:rdf="http://www.w3.org/1999/02/22-rdf-syntax-ns#"
   xmlns:svg="http://www.w3.org/2000/svg"
   xmlns="http://www.w3.org/2000/svg"
   xmlns:sodipodi="http://sodipodi.sourceforge.net/DTD/sodipodi-0.dtd"
   xmlns:inkscape="http://www.inkscape.org/namespaces/inkscape"
   version="1.1"
   x="0px"
   y="0px"
   viewBox="0 0 100 125"
   enable-background="new 0 0 100 100"
   xml:space="preserve"
   id="svg22"
   sodipodi:docname="noun_car insurance_738381.svg"
   inkscape:version="0.92.3 (2405546, 2018-03-11)"><metadata
     id="metadata28"><rdf:RDF><cc:Work
         rdf:about=""><dc:format>image/svg+xml</dc:format><dc:type
           rdf:resource="http://purl.org/dc/dcmitype/StillImage" /></cc:Work></rdf:RDF></metadata><defs
     id="defs26" /><sodipodi:namedview
     pagecolor="#ffffff"
     bordercolor="#666666"
     borderopacity="1"
     objecttolerance="10"
     gridtolerance="10"
     guidetolerance="10"
     inkscape:pageopacity="0"
     inkscape:pageshadow="2"
     inkscape:window-width="1366"
     inkscape:window-height="664"
     id="namedview24"
     showgrid="false"
     inkscape:zoom="1.888"
     inkscape:cx="-42.425847"
     inkscape:cy="62.5"
     inkscape:window-x="0"
     inkscape:window-y="27"
     inkscape:window-maximized="1"
     inkscape:current-layer="svg22" /><g
     id="g16"
     style="fill:#999999"><path
       fill-rule="evenodd"
       clip-rule="evenodd"
       d="M65.672,18.506v7.988h14.072C75.406,21.762,72.584,18.62,65.672,18.506z"
       id="path2"
       style="fill:#999999" /><path
       fill-rule="evenodd"
       clip-rule="evenodd"
       d="M63.672,18.545c-6.399,0.392-9.063,3.128-14.207,7.332   c-0.266,0.218-0.528,0.423-0.792,0.617h14.999V18.545z"
       id="path4"
       style="fill:#999999" /><path
       fill-rule="evenodd"
       clip-rule="evenodd"
       d="M48.672,38.494h0.201c0.392-3.088,3.031-5.485,6.223-5.485   s5.831,2.397,6.223,5.485h10.944c0.392-3.088,3.03-5.485,6.223-5.485s5.831,2.397,6.223,5.485h6.963l0.001-1.175   c0.002-4.033-2.537-7.454-6.398-8.621l-0.673-0.203H45.308c-1.022,0.971-1.625,2.322-1.618,3.827l0.005,1.133   C43.709,36.346,45.779,38.494,48.672,38.494z"
       id="path6"
       style="fill:#999999" /><path
       fill-rule="evenodd"
       clip-rule="evenodd"
       d="M55.097,43.565c2.359,0,4.278-1.919,4.278-4.278c0-0.271-0.031-0.535-0.08-0.793   l0,0l0,0c-0.031-0.167-0.085-0.323-0.136-0.481c-0.029-0.093-0.051-0.188-0.086-0.278c-0.057-0.143-0.127-0.275-0.197-0.411   c-0.051-0.097-0.1-0.194-0.157-0.287c-0.075-0.121-0.159-0.233-0.245-0.346c-0.073-0.096-0.148-0.188-0.229-0.277   c-0.089-0.098-0.182-0.189-0.279-0.278c-0.099-0.09-0.2-0.173-0.306-0.253c-0.098-0.073-0.195-0.146-0.299-0.211   c-0.125-0.078-0.256-0.145-0.389-0.211c-0.1-0.049-0.196-0.101-0.301-0.143c-0.159-0.063-0.325-0.109-0.493-0.153   c-0.089-0.023-0.175-0.056-0.267-0.073c-0.264-0.051-0.535-0.082-0.814-0.082s-0.551,0.031-0.814,0.082   c-0.092,0.018-0.178,0.05-0.267,0.073c-0.168,0.044-0.335,0.09-0.493,0.153c-0.104,0.042-0.201,0.094-0.301,0.143   c-0.133,0.065-0.264,0.133-0.389,0.212c-0.104,0.064-0.201,0.137-0.299,0.21c-0.105,0.08-0.208,0.163-0.307,0.253   c-0.098,0.089-0.189,0.181-0.278,0.277c-0.082,0.09-0.157,0.184-0.23,0.279c-0.086,0.112-0.17,0.224-0.245,0.344   c-0.058,0.094-0.106,0.192-0.157,0.29c-0.07,0.134-0.141,0.267-0.196,0.408c-0.036,0.092-0.059,0.188-0.088,0.282   c-0.049,0.157-0.103,0.313-0.134,0.478c0,0.001,0,0.001,0,0.001l0,0c-0.049,0.258-0.08,0.521-0.08,0.793   C50.818,41.646,52.737,43.565,55.097,43.565z"
       id="path8"
       style="fill:#999999" /><path
       fill-rule="evenodd"
       clip-rule="evenodd"
       d="M78.486,43.565c2.359,0,4.278-1.919,4.278-4.278c0-0.271-0.031-0.535-0.08-0.793   l0,0l0,0c-0.031-0.164-0.084-0.318-0.134-0.475c-0.029-0.096-0.053-0.194-0.089-0.287c-0.055-0.14-0.125-0.271-0.193-0.402   c-0.052-0.101-0.102-0.201-0.161-0.297c-0.074-0.118-0.156-0.229-0.241-0.339c-0.075-0.098-0.151-0.192-0.234-0.283   c-0.088-0.097-0.179-0.188-0.275-0.274c-0.1-0.091-0.202-0.175-0.31-0.256c-0.097-0.073-0.193-0.145-0.296-0.209   c-0.125-0.079-0.257-0.146-0.391-0.212c-0.1-0.049-0.195-0.101-0.299-0.143c-0.16-0.063-0.326-0.109-0.494-0.153   c-0.09-0.023-0.175-0.056-0.266-0.073c-0.265-0.051-0.536-0.082-0.815-0.082s-0.551,0.031-0.814,0.082   c-0.092,0.018-0.177,0.05-0.267,0.073c-0.168,0.044-0.334,0.09-0.494,0.153c-0.104,0.042-0.199,0.094-0.299,0.142   c-0.133,0.066-0.266,0.134-0.391,0.213c-0.103,0.064-0.199,0.136-0.296,0.209c-0.107,0.081-0.21,0.165-0.31,0.256   c-0.097,0.087-0.188,0.178-0.275,0.274c-0.083,0.091-0.159,0.186-0.234,0.283c-0.085,0.11-0.167,0.221-0.241,0.339   c-0.06,0.096-0.109,0.196-0.161,0.297c-0.068,0.132-0.139,0.263-0.193,0.402c-0.036,0.093-0.06,0.191-0.09,0.288   c-0.049,0.156-0.102,0.31-0.133,0.474l0,0l0,0c-0.049,0.258-0.08,0.521-0.08,0.793C74.208,41.646,76.127,43.565,78.486,43.565z"
       id="path10"
       style="fill:#999999" /><polygon
       fill-rule="evenodd"
       clip-rule="evenodd"
       points="0.672,58.336 0.672,81.494 9.672,81.494 9.672,51.494 0.672,51.494  "
       id="polygon12"
       style="fill:#999999" /><path
       fill-rule="evenodd"
       clip-rule="evenodd"
       d="M92.2,46.873c-2.343,1.105-14.402,6.772-20.269,9.399   c-0.388,3.494-3.357,6.223-6.954,6.223H36.979v-2h27.999c2.155,0,3.979-1.379,4.681-3.293c0-0.105,0-0.34,0-0.707l0,0   c0-2.754-2.247-5-5.001-5H53.003c-7.067,0-12.744-4-20.344-4c-9.313,0-11.614,3.267-20.986,7.161v22.41   c6.263-1.717,13.171-2.533,19.985-2.57c8.364-0.047,12.533,0.391,17.942,1.793c2.795,0.727,5.434,0.357,8.083-0.793   c10.221-4.439,27.147-13.285,37.275-19.131C103.666,51.338,97.553,44.346,92.2,46.873z"
       id="path14"
       style="fill:#999999" /></g></svg>