<?xml version="1.0" encoding="UTF-8" standalone="no"?>
<!-- Generator: Adobe Illustrator 15.1.0, SVG Export Plug-In . SVG Version: 6.00 Build 0)  -->

<svg
   xmlns:dc="http://purl.org/dc/elements/1.1/"
   xmlns:cc="http://creativecommons.org/ns#"
   xmlns:rdf="http://www.w3.org/1999/02/22-rdf-syntax-ns#"
   xmlns:svg="http://www.w3.org/2000/svg"
   xmlns="http://www.w3.org/2000/svg"
   xmlns:sodipodi="http://sodipodi.sourceforge.net/DTD/sodipodi-0.dtd"
   xmlns:inkscape="http://www.inkscape.org/namespaces/inkscape"
   version="1.1"
   id="Layer_1"
   x="0px"
   y="0px"
   width="128px"
   height="128px"
   viewBox="0 0 128 128"
   enable-background="new 0 0 128 128"
   xml:space="preserve"
   sodipodi:docname="Fire.svg"
   inkscape:version="0.92.3 (2405546, 2018-03-11)"><metadata
   id="metadata15"><rdf:RDF><cc:Work
       rdf:about=""><dc:format>image/svg+xml</dc:format><dc:type
         rdf:resource="http://purl.org/dc/dcmitype/StillImage" /></cc:Work></rdf:RDF></metadata><defs
   id="defs13" /><sodipodi:namedview
   pagecolor="#ffffff"
   bordercolor="#666666"
   borderopacity="1"
   objecttolerance="10"
   gridtolerance="10"
   guidetolerance="10"
   inkscape:pageopacity="0"
   inkscape:pageshadow="2"
   inkscape:window-width="640"
   inkscape:window-height="480"
   id="namedview11"
   showgrid="false"
   inkscape:zoom="1.84375"
   inkscape:cx="64"
   inkscape:cy="64"
   inkscape:window-x="0"
   inkscape:window-y="27"
   inkscape:window-maximized="0"
   inkscape:current-layer="Layer_1" />
<g
   id="g8"
   style="fill:#ffffff">
	<polygon
   fill="#CBA145"
   points="36.976,66.91 50.619,66.91 50.69,50.161 37.339,50.161 36.976,66.91  "
   id="polygon2"
   style="fill:#ffffff" />
	<polygon
   fill="#CBA145"
   points="36.586,87.553 50.619,87.553 50.69,70.803 36.976,70.803 36.586,87.553  "
   id="polygon4"
   style="fill:#ffffff" />
	<path
   fill="#CBA145"
   d="M126.95,52.213c-2.238-10.334-9.387-18.487-14.607-27.389c-1.278-2.176-2.448-4.424-3.347-6.784   c-0.896-2.355-1.201-4.729-1.578-7.203c-0.596-3.91-2.522-11.048-7.977-9.24l-0.862,0.285c-1.636,0.544-2.747,2.041-3.831,3.302   c-1.239,1.444-2.392,2.965-3.429,4.561c-1.862,2.866-3.349,5.982-4.294,9.271c-0.506-1.442-1.106-3.037-2.34-4.017   c-1.158-0.922-2.716-1.259-4.152-0.894l-1.207,0.308c-1.476,0.376-2.513,1.507-3.576,2.526c-1.242,1.191-2.436,2.433-3.572,3.726   c-2.068,2.353-3.947,4.878-5.563,7.564c-2.244-1.381-4.774-2.415-7.139-3.582c-1.338-0.659-2.676-1.319-4.016-1.976   c-2.577-1.266-4.589-0.103-6.87,1.021c-9.582,4.716-19.145,9.471-28.648,14.341c-2.841,1.457-5.677,2.923-8.497,4.42   c-2.794,1.484-5.681,2.92-8.306,4.696c-1.145,0.774-2.218,1.746-2.681,3.086c-0.484,1.402-0.268,3.033,0.279,4.387   c1.125,2.787,3.903,4.667,6.91,4.667h2.15c0.435,0.589,0.948,1.117,1.523,1.57l-2.607,60.853c-0.115,2.677,2.092,4.979,4.771,4.979   h71.271c1.177,0,2.298-0.438,3.163-1.205c2.578,1.129,4.651-0.416,6.617-1.924c1.785-1.371,3.488-2.846,5.083-4.434   c3.021-3.009,5.64-6.43,7.626-10.208c3.941-7.491,5.068-16.052,3.818-24.381c1.897,0.428,3.41-0.367,4.812-1.563   c1.32-1.126,2.57-2.335,3.73-3.628c2.229-2.482,4.117-5.277,5.494-8.319C127.771,65.129,128.318,58.523,126.95,52.213   C125.324,44.706,129.53,64.125,126.95,52.213z M13.484,121.916l2.746-64.101c-1.795-0.035-3.24-1.498-3.24-3.301H7.647   c-0.998,0-1.934-0.574-2.385-1.465c-0.145-0.285-0.475-1.007-0.236-1.314c0.202-0.257,0.521-0.445,0.789-0.624   c1.292-0.867,2.669-1.614,4.03-2.365c4.773-2.636,9.632-5.118,14.489-7.593c9.169-4.675,18.387-9.257,27.625-13.796   c0.368-0.181,0.736-0.362,1.104-0.542c0,0,4.654,2.281,11.066,5.465c-2.662,5.713-3.94,11.712-3.784,17.881h-4.911l0.072,16.749   h8.641c0.535,1.31,1.108,2.605,1.713,3.893H55.436l0.072,16.75H69.54l-0.234-10.018c3.861,7.104,8.159,14.022,11.179,21.548   c1.437,3.583,2.793,7.468,3.039,11.348c0.248,3.896,0.041,7.702,1.231,11.485H13.484L13.484,121.916z M89.813,121.106   c-0.966-2.654-1.105-5.429-1.148-8.223c-0.041-2.66-0.288-5.209-0.914-7.798c-1.166-4.813-3.06-9.417-5.238-13.851   c-4.312-8.773-9.842-16.942-13.59-25.993c-3.32-8.021-4.663-16.7-2.322-25.188c2.281-8.272,7.596-15.342,13.906-21.014   c0.401-0.103,0.801-0.204,1.203-0.307c2.681,4.939,1.59,10.926,2.844,16.24c1.148,4.872,3.105,9.512,5.338,13.977   c4.502,8.999,10.266,17.402,13.877,26.834c3.095,8.086,4.113,17.003,1.506,25.371C102.69,109.443,96.826,116.172,89.813,121.106    M112.124,79.886c-1.17-2.617-1.089-5.423-1.507-8.2c-0.369-2.455-1.278-4.859-2.269-7.124c-1.959-4.472-4.619-8.589-7.298-12.654   c-5.188-7.876-10.95-16.198-10.394-26.085c0.419-7.462,4.337-14.129,9.428-19.409c0.287-0.095,0.57-0.189,0.857-0.285   c1.437,2.25,1.687,4.964,2.051,7.543c0.367,2.597,1.072,5.037,2.101,7.449c1.956,4.596,4.718,8.794,7.463,12.947   c5.31,8.025,10.958,16.51,10.323,26.576C122.392,68.402,118.036,75.062,112.124,79.886"
   id="path6"
   style="fill:#ffffff" />
</g>
</svg>