<?xml version="1.0" encoding="UTF-8" standalone="no"?>
<!-- Generator: Adobe Illustrator 15.1.0, SVG Export Plug-In . SVG Version: 6.00 Build 0)  -->

<svg
   xmlns:dc="http://purl.org/dc/elements/1.1/"
   xmlns:cc="http://creativecommons.org/ns#"
   xmlns:rdf="http://www.w3.org/1999/02/22-rdf-syntax-ns#"
   xmlns:svg="http://www.w3.org/2000/svg"
   xmlns="http://www.w3.org/2000/svg"
   xmlns:sodipodi="http://sodipodi.sourceforge.net/DTD/sodipodi-0.dtd"
   xmlns:inkscape="http://www.inkscape.org/namespaces/inkscape"
   version="1.1"
   id="Layer_1"
   x="0px"
   y="0px"
   width="128px"
   height="128px"
   viewBox="0 0 128 128"
   enable-background="new 0 0 128 128"
   xml:space="preserve"
   sodipodi:docname="Group Insurance.svg"
   inkscape:version="0.92.3 (2405546, 2018-03-11)"><metadata
   id="metadata51"><rdf:RDF><cc:Work
       rdf:about=""><dc:format>image/svg+xml</dc:format><dc:type
         rdf:resource="http://purl.org/dc/dcmitype/StillImage" /></cc:Work></rdf:RDF></metadata><defs
   id="defs49" /><sodipodi:namedview
   pagecolor="#ffffff"
   bordercolor="#666666"
   borderopacity="1"
   objecttolerance="10"
   gridtolerance="10"
   guidetolerance="10"
   inkscape:pageopacity="0"
   inkscape:pageshadow="2"
   inkscape:window-width="640"
   inkscape:window-height="480"
   id="namedview47"
   showgrid="false"
   inkscape:zoom="1.84375"
   inkscape:cx="64"
   inkscape:cy="64"
   inkscape:window-x="0"
   inkscape:window-y="27"
   inkscape:window-maximized="0"
   inkscape:current-layer="Layer_1" />
<g
   id="g44"
   style="fill:#ffffff">
	<path
   fill="#CBA145"
   d="M47.972,47.493c4.864,8.301,15.659,11.536,24.272,7.25c8.277-4.118,12.329-13.992,9.277-22.731   c-3.437-9.84-14.635-14.927-24.339-11.125c-9.128,3.576-13.851,14.044-10.717,23.299C46.854,45.336,47.359,46.446,47.972,47.493   C51.294,53.162,43.777,40.33,47.972,47.493z M54.264,28.386c3.76-3.76,9.606-4.999,14.583-3.15   c4.45,1.653,7.736,5.655,8.649,10.294c1.859,9.441-6.887,18.06-16.308,16.062c-4.91-1.041-9.018-4.78-10.4-9.62   C49.43,37.219,50.76,31.889,54.264,28.386C56.892,25.757,49.893,32.755,54.264,28.386z"
   id="path36"
   style="fill:#ffffff" />
	<path
   fill="#CBA145"
   d="M27.494,48.084c9.169,0,17.19-7.008,18.404-16.099c1.304-9.765-5.567-19.149-15.315-20.753   C20.397,9.556,10.641,16.687,9.179,26.889c-1.381,9.624,5.068,18.858,14.613,20.819C25.01,47.958,26.252,48.084,27.494,48.084   C35.826,48.084,20.93,48.084,27.494,48.084z M17.759,19.785c3.761-3.76,9.605-4.999,14.583-3.15   c4.452,1.654,7.738,5.654,8.651,10.294c1.857,9.44-6.886,18.062-16.308,16.063c-4.91-1.041-9.018-4.782-10.401-9.622   C12.926,28.617,14.255,23.288,17.759,19.785C20.389,17.156,13.388,24.155,17.759,19.785z"
   id="path38"
   style="fill:#ffffff" />
	<path
   fill="#CBA145"
   d="M110.446,49.358H90.56c-3.087,0-6.153,0.771-8.859,2.263c-2.486,1.372-5.272,3.383-4.744,6.602   c-0.983-0.162-1.985-0.265-3.015-0.265H54.056c-1.028,0-2.03,0.103-3.012,0.265c0.526-3.219-2.254-5.225-4.742-6.598   c-2.706-1.495-5.773-2.267-8.862-2.267H17.552c-9.955,0-18.054,7.869-18.054,17.542v23.968c0,9.674,8.099,17.544,18.054,17.544   h16.887c1.263,0,2.466-0.499,3.356-1.373c2.916,5.89,9.099,9.975,16.261,9.975h19.886c7.163,0,13.347-4.085,16.264-9.974   c0.891,0.874,2.094,1.372,3.355,1.372h16.886c9.956,0,18.056-7.87,18.056-17.544V66.9   C128.502,57.227,120.402,49.358,110.446,49.358C110.446,49.358,120.402,49.358,110.446,49.358z M17.552,103.616   c-7.322,0-13.258-5.707-13.258-12.748V66.9c0-7.04,5.937-12.747,13.258-12.747h19.887c3.236,0,6.429,1.167,8.873,3.295   c-7.275,2.944-12.336,10.177-12.336,18.055V99.47c0,1.422,0.165,2.809,0.463,4.146H17.552   C10.23,103.616,17.552,103.616,17.552,103.616z M87.202,99.47c0,7.04-5.939,12.748-13.261,12.748H54.056   c-7.321,0-13.257-5.708-13.257-12.748V75.503c0-7.042,5.936-12.75,13.257-12.75h19.886c7.321,0,13.261,5.708,13.261,12.75V99.47   C87.202,106.51,87.202,99.47,87.202,99.47z M123.706,90.868c0,7.041-5.938,12.748-13.26,12.748H93.561   c0.297-1.338,0.465-2.725,0.465-4.146V75.503c0-7.879-5.062-15.111-12.338-18.055c2.45-2.125,5.631-3.295,8.872-3.295h19.887   c7.322,0,13.26,5.708,13.26,12.747V90.868C123.706,97.909,123.706,90.868,123.706,90.868z"
   id="path40"
   style="fill:#ffffff" />
	<path
   fill="#CBA145"
   d="M100.504,48.084c9.167,0,17.19-7.009,18.401-16.098c1.302-9.763-5.566-19.15-15.313-20.754   c-10.187-1.677-19.941,5.454-21.405,15.655c-1.382,9.626,5.067,18.86,14.615,20.82C98.02,47.958,99.262,48.084,100.504,48.084   C108.834,48.084,93.939,48.084,100.504,48.084z M90.768,19.785c3.761-3.76,9.606-4.999,14.584-3.15   c4.45,1.654,7.735,5.656,8.649,10.295c1.858,9.439-6.885,18.06-16.306,16.062c-4.911-1.041-9.021-4.78-10.403-9.622   C85.934,28.617,87.264,23.288,90.768,19.785C93.397,17.156,86.396,24.155,90.768,19.785z"
   id="path42"
   style="fill:#ffffff" />
</g>
</svg>