<?xml version="1.0" encoding="UTF-8" standalone="no"?>
<svg
   xmlns:dc="http://purl.org/dc/elements/1.1/"
   xmlns:cc="http://creativecommons.org/ns#"
   xmlns:rdf="http://www.w3.org/1999/02/22-rdf-syntax-ns#"
   xmlns:svg="http://www.w3.org/2000/svg"
   xmlns="http://www.w3.org/2000/svg"
   xmlns:sodipodi="http://sodipodi.sourceforge.net/DTD/sodipodi-0.dtd"
   xmlns:inkscape="http://www.inkscape.org/namespaces/inkscape"
   version="1.1"
   x="0px"
   y="0px"
   viewBox="0 0 64 80"
   style="enable-background:new 0 0 64 64;"
   xml:space="preserve"
   id="svg42"
   sodipodi:docname="noun_personal insurance_1662403.svg"
   inkscape:version="0.92.3 (2405546, 2018-03-11)"><metadata
     id="metadata48"><rdf:RDF><cc:Work
         rdf:about=""><dc:format>image/svg+xml</dc:format><dc:type
           rdf:resource="http://purl.org/dc/dcmitype/StillImage" /></cc:Work></rdf:RDF></metadata><defs
     id="defs46" /><sodipodi:namedview
     pagecolor="#ffffff"
     bordercolor="#666666"
     borderopacity="1"
     objecttolerance="10"
     gridtolerance="10"
     guidetolerance="10"
     inkscape:pageopacity="0"
     inkscape:pageshadow="2"
     inkscape:window-width="1366"
     inkscape:window-height="664"
     id="namedview44"
     showgrid="false"
     inkscape:zoom="2.95"
     inkscape:cx="-27.152542"
     inkscape:cy="40"
     inkscape:window-x="0"
     inkscape:window-y="27"
     inkscape:window-maximized="1"
     inkscape:current-layer="svg42" /><style
     type="text/css"
     id="style2">
	.st0{display:none;}
	.st1{display:inline;}
	.st2{fill:none;stroke:#B3B3B3;stroke-width:0.1;stroke-miterlimit:10;}
</style><g
     class="st0"
     id="g28"><g
       class="st1"
       id="g26"><rect
         x="2"
         y="2"
         class="st2"
         width="60"
         height="60"
         id="rect4" /><line
         class="st2"
         x1="32"
         y1="2"
         x2="32"
         y2="62"
         id="line6" /><line
         class="st2"
         x1="62"
         y1="32"
         x2="2"
         y2="32"
         id="line8" /><line
         class="st2"
         x1="2"
         y1="2"
         x2="62"
         y2="62"
         id="line10" /><rect
         x="10"
         y="10"
         class="st2"
         width="44"
         height="44"
         id="rect12" /><line
         class="st2"
         x1="62"
         y1="2"
         x2="2"
         y2="62"
         id="line14" /><line
         class="st2"
         x1="2"
         y1="32"
         x2="32"
         y2="2"
         id="line16" /><line
         class="st2"
         x1="32"
         y1="2"
         x2="62"
         y2="32"
         id="line18" /><line
         class="st2"
         x1="62"
         y1="32"
         x2="32"
         y2="62"
         id="line20" /><line
         class="st2"
         x1="32"
         y1="62"
         x2="2"
         y2="32"
         id="line22" /><circle
         class="st2"
         cx="32"
         cy="32"
         r="21"
         id="circle24" /></g></g><path
     d="m 17,19.1 c 1.4,-2.1 3.4,-4.3 5.5,-4.9 l 0.4,-0.1 0.3,0.2 c 0.1,0.1 10.6,5.3 17,5.8 1.5,-1.6 2.4,-3.7 2.3,-5.9 0,-2 -0.9,-3.8 -2.2,-4.8 C 37,6.8 33.1,5.1 29,4.2 c -4.6,-0.9 -7.6,2 -8.8,4.1 -1.8,0.3 -3.1,1 -3.9,2.2 -0.9,1.3 -1,3.1 -0.4,5 0.3,1.2 0.7,2.5 1.1,3.6 z"
     id="path30"
     inkscape:connector-curvature="0"
     style="fill:#999999" /><path
     d="M22.9,14.1c-1.8,0.7-3.7,3.3-4.9,5.3V22c0,3.4,1.4,6.8,3.8,9.2l2.3,2.3c0.9,0.9,2.2,1.5,3.5,1.5h2.7c1.3,0,2.6-0.5,3.5-1.5  l2.3-2.3c2.5-2.5,3.8-5.7,3.8-9.2v-2.1C33.7,19.2,24.9,15,22.9,14.1z"
     id="path32"
     style="fill:#999999" /><path
     d="M36,42v-1.6l1.5-0.4c1.6-0.4,3.3-1,5.1-1.9l-5.2-1c-0.4-1.3-0.7-2.6-0.8-3.9l-1.7,1.7C33.6,36.2,31.8,37,30,37h-2.3  c-1.8,0-3.6-0.8-4.9-2.1l-1.7-1.7c-0.1,1.3-0.4,2.6-0.8,3.9L9.9,39.2C7,39.8,4.8,42.1,4.4,45L2.7,56.3c-0.2,1.4,0.2,2.9,1.2,4  S6.2,62,7.6,62h38.9C42.7,59,36,52.3,36,42z"
     id="path34"
     style="fill:#999999" /><path
     d="M50,36c-4,3-8.6,5.2-12,6c0,13.1,12,20,12,20s12-6.9,12-20C58.6,41.2,53.9,39,50,36z"
     id="path36"
     style="fill:#999999" /></svg>