<?xml version="1.0" encoding="UTF-8" standalone="no"?>
<!-- Generator: Adobe Illustrator 15.1.0, SVG Export Plug-In . SVG Version: 6.00 Build 0)  -->

<svg
   xmlns:dc="http://purl.org/dc/elements/1.1/"
   xmlns:cc="http://creativecommons.org/ns#"
   xmlns:rdf="http://www.w3.org/1999/02/22-rdf-syntax-ns#"
   xmlns:svg="http://www.w3.org/2000/svg"
   xmlns="http://www.w3.org/2000/svg"
   xmlns:sodipodi="http://sodipodi.sourceforge.net/DTD/sodipodi-0.dtd"
   xmlns:inkscape="http://www.inkscape.org/namespaces/inkscape"
   version="1.1"
   id="Layer_1"
   x="0px"
   y="0px"
   width="128px"
   height="128px"
   viewBox="0 0 128 128"
   enable-background="new 0 0 128 128"
   xml:space="preserve"
   sodipodi:docname="Professional Insurance (copy).svg"
   inkscape:version="0.92.3 (2405546, 2018-03-11)"><metadata
   id="metadata40"><rdf:RDF><cc:Work
       rdf:about=""><dc:format>image/svg+xml</dc:format><dc:type
         rdf:resource="http://purl.org/dc/dcmitype/StillImage" /></cc:Work></rdf:RDF></metadata><defs
   id="defs38" /><sodipodi:namedview
   pagecolor="#ffffff"
   bordercolor="#666666"
   borderopacity="1"
   objecttolerance="10"
   gridtolerance="10"
   guidetolerance="10"
   inkscape:pageopacity="0"
   inkscape:pageshadow="2"
   inkscape:window-width="640"
   inkscape:window-height="480"
   id="namedview36"
   showgrid="false"
   inkscape:zoom="1.84375"
   inkscape:cx="64"
   inkscape:cy="64"
   inkscape:window-x="0"
   inkscape:window-y="27"
   inkscape:window-maximized="0"
   inkscape:current-layer="Layer_1" />
<g
   id="g33"
   style="fill:#ffffff">
	<path
   fill="#CBA145"
   d="M100.99,90.181c-0.647,0-1.29,0.118-1.889,0.37l-15.844,6.655c1.697-1.398,2.796-3.494,2.728-5.721   c-0.068-2.224-1.333-4.162-2.969-5.588c-3.249-2.834-7.701-4.259-11.838-5.162c-2.293-0.499-4.625-0.827-6.968-0.969   c-2.599-0.158-5.114-0.124-7.67-0.736c-4.39-1.052-8.563-2.834-12.979-3.816c-3.198-0.713-6.458-1.12-9.731-1.255l0.968-4.206   c1.177-5.102-5.581-7.17-9.262-8.143c-3.191-0.844-6.474-1.33-9.753-1.666c-2.227-0.229-4.462-0.381-6.697-0.481   c-2.149-0.096-4.344-0.37-6.012,1.283l-0.323,0.321c-0.899,0.892-1.406,2.106-1.406,3.373v46.744c0,1.229,0.478,2.411,1.33,3.297   l0.909,0.944c0.896,0.929,2.13,1.453,3.421,1.453h13.161c2.212,0,4.131-1.526,4.628-3.683l0.012-0.052   c8.052,4.141,16.264,8.096,24.773,11.211c3.688,1.35,7.501,2.622,11.409,3.155c3.027,0.411,6.055,0.008,9.027-0.619   c8.383-1.767,16.516-5.131,24.106-9.045c4.043-2.085,7.98-4.401,11.682-7.048c1.69-1.208,3.331-2.488,4.887-3.866   c1.58-1.399,2.491-2.937,2.717-5.059c0.375-3.539-1.448-6.729-4.041-9.005C106.976,90.77,104.107,90.213,100.99,90.181   C100.976,90.181,105.718,90.229,100.99,90.181z M20.167,112.129H7.006l-0.91-0.944V64.44l0.324-0.321   c17.383,0.486,22.538,3.593,23.751,4.568l-1.054,4.577l-7.938,34.471L20.167,112.129L20.167,112.129z M108.323,102.669   c-6.425,5.988-14.475,10.352-22.448,13.897c-3.957,1.76-8.017,3.32-12.175,4.538c-3.156,0.923-6.451,1.745-9.757,1.836   c-2.848,0.078-5.703-0.728-8.399-1.562c-3.753-1.161-7.415-2.617-11.027-4.157c-6.279-2.679-12.435-5.655-18.494-8.796   l6.852-29.752c4.909,0.136,9.7,0.991,14.382,2.453c4.797,1.499,9.47,3.314,14.572,3.314c5,0,10.271,0.923,14.829,3.029   c1.558,0.72,3.478,1.708,4.323,3.291c0.913,1.705-0.864,3.034-2.244,3.644c-2.324,1.025-4.995,1.31-7.506,1.404   c-2.889,0.109-5.803-0.046-8.681-0.269c-2.496-0.193-4.986-0.466-7.466-0.805c-0.981-0.134-2.518-0.664-3.509-0.342l-1.863,0.62   c-0.913,0.304-1.383,1.365-0.988,2.246c0.339,0.756,1.249,1.354,1.915,1.801c1.47,0.991,3.13,1.69,4.803,2.262   c1.541,0.523,3.122,0.936,4.716,1.269c0.906,0.188,1.91,0.48,2.845,0.48h18.219c0.219,0,0.439-0.041,0.64-0.128l19.081-8.014   c2.22,0.023,4.006,0.29,5.645,1.828C108.156,98.236,109.347,100.549,108.323,102.669C97.09,113.14,108.646,101.999,108.323,102.669   z"
   id="path23"
   style="fill:#ffffff" />
	<path
   fill="#CBA145"
   d="M9.862,23.396c0.066-0.049,0.114-0.085,0.147-0.109C9.978,23.31,9.93,23.346,9.862,23.396z"
   id="path25"
   style="fill:#ffffff" />
	<path
   fill="#CBA145"
   d="M10.01,23.286c0.032-0.025,0.048-0.037,0.048-0.037S10.04,23.262,10.01,23.286z"
   id="path27"
   style="fill:#ffffff" />
	<path
   fill="#CBA145"
   d="M125.308,62.479c-1.743-2.734-4.731-3.874-7.436-5.395c-3.59-2.021-7.158-4.08-10.723-6.146l-3.488-2.019   c-3.879-2.243-7.757-4.487-11.608-6.775c-1.884-1.121-3.762-2.251-5.63-3.398c-1.777-1.092-3.521-2.602-5.724-2.41   c-0.504-1.822-1.861-2.905-3.414-3.84l-7.507-4.697l-0.063-0.04c-0.992-0.621-2.184-0.847-3.337-0.647   c-0.873-1.971-3.113-2.92-4.843-4.007c-2.083-1.311-4.169-2.617-6.256-3.922c-4.477-2.799-8.96-5.587-13.448-8.367l-2.579-1.599   c-3.807-2.359-7.604-4.735-11.428-7.071c-1.75-1.069-3.506-1.996-5.635-1.796c-2.361,0.223-4.235,1.783-5.644,3.589   c-0.33-0.053-0.661-0.08-0.991-0.08h-0.001c-2.709-0.001-4.735,1.771-5.976,4.044c-1.553,2.847-2.813,5.883-3.883,8.939   l-0.08,0.229C4.93,19.01,3.655,22.62,5.9,26.016c0.003,0.005,0.006,0.01,0.01,0.015c0.662,1,1.68,1.64,2.674,2.278   c4.23,2.715,8.688,5.104,13.07,7.559c6.579,3.685,13.189,7.313,19.771,10.993c-1.848,1.546-2.242,4.31-0.889,6.305   c0.672,0.989,1.615,1.512,2.688,1.97c1.424,0.607,2.864,1.176,4.319,1.7c0.299,3.553,1.581,8.829,6.193,8.327   c1.16,1.502,3.161,2.177,4.994,1.685c0.934-0.249,1.666-0.854,2.505-1.3c0.998-0.53,2.062-0.946,3.148-1.255   c1.015,1.263,1.999,2.55,2.913,3.886c0.847,1.232,1.579,2.379,3.055,2.913c2.827,1.024,5.934-0.897,6.315-3.865   c7.967,4.9,15.951,9.774,23.785,14.888c1.92,1.253,3.816,2.544,5.74,3.791c1.816,1.177,3.618,2.171,5.837,2.252   c4.314,0.157,7.261-2.763,9.584-6.021l0.061-0.083c2.573-3.595,4.444-7.938,4.843-12.377l0.019-0.185   C126.698,67.722,126.945,65.05,125.308,62.479C123.805,60.121,126.945,65.05,125.308,62.479z M9.862,23.396   c-1.005-1.519-0.223-3.446,0.315-4.982c0.725-2.068,1.509-4.119,2.525-6.063c0.579-1.108,0.949-2.621,1.971-3.419   c1.323-1.034,2.973,1.246,4.136,0.021c0.974-1.273,1.9-3.42,3.61-3.834c1.27-0.309,2.551,0.847,3.587,1.485   c2.873,1.771,5.739,3.551,8.609,5.327c9.157,5.676,18.31,11.358,27.424,17.104L47.76,42.34c-0.551,0.513-1.245,1.006-2.056,1.479   C39.592,40.333,10.631,24.554,9.862,23.396C8.87,21.895,10.631,24.554,9.862,23.396z M71.691,58.603   c-0.536,2.679-0.502,5.391,0.279,8.023c-0.976-1.516-2.042-2.973-3.154-4.392c-0.51-0.65-1.027-1.296-1.555-1.934   c-0.362-0.437-0.708-1.148-1.367-1.148c-1.402,0-2.981,0.573-4.283,1.047c-1.441,0.524-2.844,1.195-4.112,2.061   c0.773-2.411,1.537-4.827,2.308-7.24c-2.195,1.807-4.391,3.613-6.585,5.421c-0.451-1.19-0.776-2.433-0.915-3.699   c-0.063-0.588-0.098-1.186-0.025-1.773c0.057-0.453,0.343-1.049,0.163-1.499c-2.709-0.837-5.38-1.836-7.977-2.971   c2.093-0.808,4.134-1.801,5.925-3.164c1.884-1.433,3.52-3.154,5.237-4.773c3.836-3.612,7.711-7.184,11.565-10.774   c2.315,1.447,4.629,2.896,6.943,4.344c0.573,0.359,1.863,0.804,1.997,1.572c0.104,0.598-0.19,1.335-0.326,1.911   c-0.17,0.717-0.339,1.433-0.492,2.152C74.144,47.386,72.987,53.01,71.691,58.603C71.688,58.616,73.015,52.888,71.691,58.603z    M121.789,69.248c-0.221,2.453-1.114,4.803-2.115,7.033c-0.452,1.011-1.088,1.923-1.729,2.821   c-0.706,0.987-1.356,2.054-2.271,2.868c-1.847,1.643-3.969,1.813-6.044,0.496c-2.108-1.343-4.172-2.758-6.268-4.127   c-8.722-5.703-17.636-11.107-26.508-16.575c0.076-2.828,1.046-5.528,1.641-8.271c0.624-2.895,1.229-5.793,1.834-8.691l0.789-3.759   c7.658,4.805,15.51,9.287,23.33,13.817c3.902,2.263,7.808,4.519,11.741,6.726c1.417,0.795,3.019,1.381,4.255,2.463   C122.03,65.439,121.963,67.31,121.789,69.248C121.571,71.659,121.917,67.836,121.789,69.248z"
   id="path29"
   style="fill:#ffffff" />
	<path
   fill="#CBA145"
   d="M71.643,58.806c-0.06,0.263-0.107,0.467-0.142,0.611C71.55,59.213,71.605,58.968,71.643,58.806z"
   id="path31"
   style="fill:#ffffff" />
</g>
</svg>