<?xml version="1.0" encoding="UTF-8" standalone="no"?>
<!-- Generator: Adobe Illustrator 15.1.0, SVG Export Plug-In . SVG Version: 6.00 Build 0)  -->

<svg
   xmlns:dc="http://purl.org/dc/elements/1.1/"
   xmlns:cc="http://creativecommons.org/ns#"
   xmlns:rdf="http://www.w3.org/1999/02/22-rdf-syntax-ns#"
   xmlns:svg="http://www.w3.org/2000/svg"
   xmlns="http://www.w3.org/2000/svg"
   xmlns:sodipodi="http://sodipodi.sourceforge.net/DTD/sodipodi-0.dtd"
   xmlns:inkscape="http://www.inkscape.org/namespaces/inkscape"
   version="1.1"
   id="Layer_1"
   x="0px"
   y="0px"
   width="128px"
   height="128px"
   viewBox="0 0 128 128"
   enable-background="new 0 0 128 128"
   xml:space="preserve"
   sodipodi:docname="Public Liability (copy).svg"
   inkscape:version="0.92.3 (2405546, 2018-03-11)"><metadata
   id="metadata55"><rdf:RDF><cc:Work
       rdf:about=""><dc:format>image/svg+xml</dc:format><dc:type
         rdf:resource="http://purl.org/dc/dcmitype/StillImage" /></cc:Work></rdf:RDF></metadata><defs
   id="defs53" /><sodipodi:namedview
   pagecolor="#ffffff"
   bordercolor="#666666"
   borderopacity="1"
   objecttolerance="10"
   gridtolerance="10"
   guidetolerance="10"
   inkscape:pageopacity="0"
   inkscape:pageshadow="2"
   inkscape:window-width="736"
   inkscape:window-height="480"
   id="namedview51"
   showgrid="false"
   inkscape:zoom="1.84375"
   inkscape:cx="64"
   inkscape:cy="64"
   inkscape:window-x="0"
   inkscape:window-y="27"
   inkscape:window-maximized="0"
   inkscape:current-layer="Layer_1" />
<g
   id="g48"
   style="fill:#ffffff">
	<path
   fill="#CBA145"
   d="M69.119,56.922c5.184,7.608,12.722,13.693,22.409,18.099c9.688-4.406,17.224-10.491,22.413-18.099   c4.256-6.247,6.972-13.561,8.067-21.742c1.464-10.951-0.393-20.611-1.316-24.46c-16.2-0.479-25.489-7.252-29.164-10.657   C87.857,3.468,78.564,10.242,62.367,10.72c-0.929,3.854-2.779,13.509-1.315,24.46C62.148,43.361,64.861,50.676,69.119,56.922z    M66.6,15.596c11.79-1.101,19.92-5.273,24.931-8.917c5.011,3.644,13.14,7.814,24.927,8.917c0.767,4.459,1.476,11.375,0.469,18.903   c-0.988,7.379-3.417,13.953-7.221,19.534c-4.271,6.262-10.378,11.403-18.177,15.309c-7.803-3.908-13.909-9.048-18.174-15.308   c-3.803-5.579-6.232-12.151-7.22-19.533C65.124,26.948,65.833,20.044,66.6,15.596z"
   id="path42"
   style="fill:#ffffff" />
	<path
   fill="#CBA145"
   d="M120.601,90.806c-2.329-2.189-4.446-3.313-9.55-3.365c-0.018,0-0.035,0-0.054,0   c-0.681,0-1.355,0.137-1.984,0.399l-17.104,7.184c1.351-1.111,2.35-2.548,2.772-4.402c0.349-1.518,0.356-3.863-1.61-6.334   c-4.238-5.308-15.678-8.168-24.292-8.168c-4.063,0-7.393-1.105-11.25-2.386c-4.673-1.548-10.432-3.449-18.97-3.803l1.045-4.54   c0.441-1.915-0.251-3.912-1.781-5.145c-3.088-2.485-10.576-5.555-28.709-6.061c-0.047-0.001-0.096-0.002-0.143-0.002   c-1.351,0-2.648,0.533-3.609,1.486l-0.35,0.347c-0.971,0.962-1.518,2.273-1.518,3.641v50.458c0,1.326,0.514,2.603,1.435,3.558   l0.982,1.02c0.967,1.002,2.299,1.569,3.692,1.569h14.206c2.388,0,4.46-1.648,4.996-3.976l0.013-0.057   c11.886,6.111,32.087,15.708,41.75,15.708c11.872,0,38.686-10.954,51.894-23.266c0.465-0.434,0.846-0.95,1.122-1.523   C125.112,99.974,125.133,95.066,120.601,90.806z M23.808,111.133H9.602l-0.982-1.019V59.656l0.35-0.346   c18.764,0.524,24.329,3.877,25.638,4.931l-1.138,4.941l-8.568,37.209L23.808,111.133z M118.964,100.921   c-12.124,11.302-37.445,21.889-48.396,21.889c-9.385,0-32.739-11.685-40.439-15.674l7.396-32.116   c8.26,0.23,13.617,1.998,18.366,3.572c4.11,1.364,7.987,2.654,12.887,2.654c8.298,0,17.583,2.855,20.28,6.234   c0.751,0.943,0.715,1.597,0.621,2.005c-0.637,2.804-6.565,4.058-12.155,4.058c-0.346,0-0.551-0.008-0.627-0.008   c-8.75,0-18.227-1.595-18.32-1.612c-0.098-0.019-0.197-0.026-0.295-0.026c-0.193,0-0.386,0.032-0.57,0.093l-2.011,0.671   c-0.579,0.191-1.02,0.666-1.17,1.262c-0.15,0.589,0.014,1.213,0.435,1.66c3.892,4.138,13.725,5.604,14.834,5.758   c0.08,0.014,0.164,0.016,0.244,0.016H89.71c0.236,0,0.475-0.044,0.69-0.138l20.597-8.65c4.035,0.042,4.816,0.775,6.093,1.975   C120.26,97.522,119.313,100.198,118.964,100.921z"
   id="path44"
   style="fill:#ffffff" />
	<polygon
   fill="#CBA145"
   points="114.554,56.476 114.66,56.341 114.552,56.341 114.446,56.341  "
   id="polygon46"
   style="fill:#ffffff" />
</g>
</svg>