<?xml version="1.0" encoding="utf-8"?>
<!-- Generator: Adobe Illustrator 15.1.0, SVG Export Plug-In . SVG Version: 6.00 Build 0)  -->
<!DOCTYPE svg PUBLIC "-//W3C//DTD SVG 1.1//EN" "http://www.w3.org/Graphics/SVG/1.1/DTD/svg11.dtd">
<svg version="1.1" id="Layer_1" xmlns="http://www.w3.org/2000/svg" xmlns:xlink="http://www.w3.org/1999/xlink" x="0px" y="0px"
	 width="128px" height="128px" viewBox="0 0 128 128" enable-background="new 0 0 128 128" xml:space="preserve">
<g>
	<path fill="#CBA145" d="M99.999,38.623c-0.914-1.267-1.824-2.536-2.728-3.81c-0.857-1.208-1.617-2.572-2.895-3.387
		c1.482-3.573,2.91-7.152,4.569-10.651c1.172-2.468,2.411-4.904,3.735-7.294c0.671-1.209,1.363-2.408,2.082-3.589
		c0.728-1.197,1.711-2.371,1.979-3.776c0.479-2.5-1.142-5.006-3.615-5.598c-1.54-0.37-3.321,0.144-4.87,0.355
		c-4.174,0.569-8.36,1.033-12.556,1.404c-11.898,1.053-23.835,1.274-35.76,0.582C44.787,2.559,39.64,2.116,34.508,1.542
		C32.615,1.33,30.723,1.1,28.833,0.85c-1.567-0.208-3.384-0.726-4.942-0.351c-3.178,0.764-4.703,4.562-2.926,7.311
		c1.924,2.978,3.665,6.073,5.28,9.229c2.391,4.672,4.445,9.48,6.393,14.35c-1.067,0.701-1.708,1.776-2.43,2.797
		c-0.907,1.283-1.82,2.561-2.739,3.835c-1.336,1.854-2.678,3.703-4,5.567c-2.595,3.657-5.123,7.364-7.439,11.206
		C11.121,62.938,7.291,71.708,5.397,81.06c-1.041,5.136-1.57,10.428-1.488,15.671c0.04,2.512,0.446,5.017,1.255,7.397
		c2.208,6.498,7.289,11.396,13.15,14.732c9.405,5.351,20.55,7.434,31.203,8.448c7.05,0.671,14.188,0.797,21.263,0.459
		c10.433-0.498,21.102-1.958,30.907-5.693c7.287-2.776,14.494-7.14,18.438-14.102c3.404-6.012,3.283-12.721,2.631-19.414
		c-0.962-9.838-3.971-19.295-8.532-28.046C110.19,52.777,105.098,45.679,99.999,38.623C98.516,36.568,111.369,54.361,99.999,38.623z
		 M25.018,5.19C45.51,8.186,66.285,8.897,86.913,7.013c5.046-0.461,10.082-1.048,15.092-1.805
		c-5.974,9.245-10.272,19.646-12.1,24.42c-8.406-1.71-17.065-2.278-25.629-2.314c-8.888-0.038-17.873,0.494-26.61,2.207
		c-0.179,0.036-0.358,0.071-0.537,0.107C35.3,24.851,30.997,14.439,25.018,5.19 M95.854,118.966
		c-10.476,3.173-21.526,4.106-32.426,4.106c-4.107,0.158-8.278-0.119-12.368-0.474c-5.987-0.52-11.967-1.425-17.776-2.983
		C22.3,116.666,9.449,110.374,8.761,97.449c-0.271-5.073,0.334-10.331,1.322-15.303c0.944-4.751,2.411-9.385,4.321-13.833
		c3.654-8.505,8.87-16.189,14.245-23.682c1.112-1.55,2.233-3.094,3.346-4.644c0.708-0.985,1.413-1.974,2.113-2.963
		c0.507-0.717,0.921-1.811,1.931-1.766l4.167-0.918c7.622-1.682,15.524-2.203,23.311-2.203c7.786,0,15.688,0.521,23.31,2.203
		l4.167,0.919c1.076,0.094,1.493,1.146,2.058,1.942c0.935,1.32,1.876,2.635,2.822,3.947c1.38,1.915,2.766,3.827,4.129,5.754
		c2.66,3.758,5.246,7.574,7.582,11.543c4.866,8.27,8.448,17.216,9.897,26.734c1.108,7.275,1.957,15.484-2.444,21.865
		C110.654,113.401,103.004,116.801,95.854,118.966C83.222,122.791,110.749,114.455,95.854,118.966z"/>
	<path fill="#CBA145" d="M77.561,77.776c-3.083-2.186-6.815-3.279-10.428-4.234V61.386c2.163,0.852,3.604,3.024,4.574,5.038
		c1.14,2.135,2.534,4.01,5.249,3.449c2.886-0.596,3.772-3.77,3.136-6.295c-1.443-5.722-7.546-8.781-12.959-9.479v-2.352
		c0-2.199-1.083-4.444-3.568-4.444c-2.501,0-3.666,2.203-3.666,4.444v2.313c-3.531,0.387-7.146,1.438-9.947,3.705
		c-2.755,2.231-4.336,5.542-4.417,9.08c-0.085,3.682,1.24,6.999,4.057,9.409c2.867,2.452,6.724,3.622,10.308,4.564v14.779
		c-1.732-0.444-3.371-1.461-4.454-2.896c-1.26-1.669-1.779-3.672-2.805-5.457c-0.873-1.52-2.198-2.522-4.013-2.42
		c-1.813,0.104-3.413,1.351-3.869,3.129c-0.95,3.699,1.878,8.018,4.445,10.407c2.929,2.728,6.776,4.042,10.696,4.485v2.322
		c0,2.242,1.164,4.444,3.666,4.444c2.515,0,3.568-2.219,3.568-4.444v-2.331c5.804-0.677,11.621-3.453,14.091-9.039
		C83.618,88.382,82.561,81.323,77.561,77.776C76.036,76.694,79.085,78.858,77.561,77.776z M59.899,71.637
		c-2.582-0.831-5.626-2.482-5.441-5.611c0.167-2.793,2.974-4.48,5.441-5.02V71.637C59.047,71.361,59.899,71.637,59.899,71.637z
		 M70.231,93.979c-0.897,0.669-1.93,1.169-3.099,1.501V82.703c2.304,0.744,4.823,2.036,5.542,4.545
		C73.422,89.854,72.352,92.396,70.231,93.979C69.334,94.647,72.015,92.648,70.231,93.979z"/>
</g>
</svg>
