<?xml version="1.0" encoding="utf-8"?>
<!-- Generator: Adobe Illustrator 15.1.0, SVG Export Plug-In . SVG Version: 6.00 Build 0)  -->
<!DOCTYPE svg PUBLIC "-//W3C//DTD SVG 1.1//EN" "http://www.w3.org/Graphics/SVG/1.1/DTD/svg11.dtd">
<svg version="1.1" id="Layer_1" xmlns="http://www.w3.org/2000/svg" xmlns:xlink="http://www.w3.org/1999/xlink" x="0px" y="0px"
	 width="128px" height="128px" viewBox="0 0 128 128" enable-background="new 0 0 128 128" xml:space="preserve">
<g>
	<path fill="#CBA145" d="M43.395,7.888c8.005,0,15.401,3.649,20.292,10.012c0.966,1.256,2.443,1.953,3.965,1.953
		c0.56,0,1.127-0.095,1.676-0.29c2.188-0.779,4.481-1.174,6.816-1.174c6.501,0,12.663,3.154,16.483,8.436
		c0.965,1.333,2.486,2.07,4.054,2.07c0.659,0,1.327-0.131,1.964-0.403c1.982-0.848,4.087-1.278,6.253-1.278
		c8.778,0,15.921,7.142,15.921,15.921c0,8.235-6.393,15.161-14.585,15.843l-86.89,0.001c-7.695-0.661-13.699-7.183-13.699-14.924
		c0-6.318,4.009-11.99,9.976-14.115c1.531-0.545,2.701-1.8,3.139-3.366C21.832,15.572,31.962,7.888,43.395,7.888 M43.395,2.888
		c-14.034,0-25.853,9.456-29.451,22.342C6.198,27.987,0.645,35.363,0.645,44.055c0,10.54,8.157,19.155,18.5,19.924l87.282-0.001
		c10.838-0.786,19.392-9.806,19.392-20.843c0-11.555-9.366-20.921-20.921-20.921c-2.918,0-5.695,0.602-8.219,1.681
		c-4.602-6.362-12.083-10.506-20.535-10.506c-2.98,0-5.838,0.519-8.493,1.464C62.06,7.579,53.277,2.888,43.395,2.888L43.395,2.888z"
		/>
	<path fill="#CBA145" d="M82.504,68.013c-1.415,0-1.615,1.214-1.47,2.77c-0.661-0.43-1.192-1.347-2.079-1.347
		c-0.26,0-0.549,0.078-0.882,0.271c0.562,3.472,4.208,3.867,2.961,9.148c-1.514-0.817-3.17-1.495-4.306-2.688
		c-0.847-1.308-0.3-4.008-2.154-4.308c-1.367,0.443-1.018,1.775-0.538,2.959c-0.741-0.283-1.213-0.841-2.24-0.841
		c-0.14,0-0.29,0.011-0.452,0.033c-0.388,0.42-0.563,1.05-0.806,1.616c0.286,0.968,1.15,1.36,1.883,1.884
		c-1.186,0.25-2.541,0.333-2.152,2.154c1.276-0.077,2.51-0.193,3.671-0.193c2.119,0,4,0.384,5.478,2.076
		c-1.409,0.832-2.893,1.593-4.304,2.423c-1.405-0.39-2.608-0.979-4.31-1.075c-0.354,0.449-0.711,0.901-0.535,1.885
		c0.527,0.458,1.664,0.308,2.152,0.806c-0.932,0.415-1.725,0.967-1.883,2.152c0.382,0.518,0.83,0.966,1.345,1.348
		c0.95-0.037,1.204-0.771,2.153-0.808c-0.426,0.934-0.695,1.938,0,2.692c0.447,0,0.896,0,1.345,0
		c0.651-3.479,2.271-5.984,5.653-6.73c1.215,5.163-2.232,5.662-2.961,8.883c0.255,0.329,0.528,0.451,0.806,0.451
		c0.794,0,1.609-1.009,2.058-1.009c0.034,0,0.067,0.007,0.098,0.02c-0.131,1.027,0.076,1.718,0.537,2.153
		c0.313,0.151,0.614,0.222,0.89,0.222c1.085,0,1.801-1.087,1.533-2.645c0.44,0.434,1.193,1.124,2.03,1.124
		c0.304,0,0.617-0.091,0.932-0.316c-0.655-3.024-4.531-4.258-2.692-8.883c1.335,0.819,2.822,1.483,4.037,2.423
		c0.557,1.507,0.335,3.791,1.884,4.308c0.27,0,0.54,0,0.81,0c0.983-0.672-0.102-2.171,0.268-2.692
		c0.542,0.389,1.114,0.656,1.662,0.656c0.461,0,0.903-0.189,1.298-0.656c0.488-2.016-1.095-1.955-1.614-2.962
		c0.004,0,0.008,0,0.012,0c1.25,0,2.175-0.329,2.143-1.612c-0.297-0.552-0.757-0.743-1.297-0.743c-1.182,0-2.746,0.92-3.82,1.01
		c-1.178-1.062-3.102-1.382-4.033-2.692c1.701-1.237,3.326-1.895,5.338-1.895c1.053,0,2.212,0.181,3.543,0.551
		c-0.112-0.65,0.49-0.587,0.27-1.349c-0.106-1.06-1.774-0.556-2.154-1.344c1.061-0.197,1.629-0.882,1.885-1.885
		c-0.116-0.957-0.77-1.226-1.488-1.226c-0.813,0-1.709,0.343-2.01,0.42c0.743-1.018,0.651-2.695-0.953-2.696
		c-0.039,0-0.08,0.002-0.123,0.004c-1.075,0.987-1.213,2.917-1.617,4.576c-1.43,0.522-3.138,2.151-4.263,2.151
		c-0.015,0-0.029-0.001-0.044-0.001c-1.116-4.974,1.962-5.751,2.962-8.61c-0.302-0.059-0.421-0.3-0.539-0.539
		c-0.167-0.039-0.313-0.056-0.442-0.056c-1.038,0-0.949,1.125-1.98,1.132c0.252-1.327-0.327-1.823-0.806-2.423
		C82.934,68.037,82.706,68.013,82.504,68.013L82.504,68.013z"/>
	<path fill="#CBA145" d="M107.252,82.384c-1.145,0-1.306,0.979-1.188,2.238c-0.534-0.347-0.964-1.089-1.68-1.089
		c-0.21,0-0.445,0.064-0.715,0.221c0.456,2.806,3.404,3.124,2.395,7.394c-1.224-0.661-2.563-1.209-3.479-2.173
		c-0.686-1.057-0.244-3.239-1.742-3.481c-1.105,0.358-0.823,1.436-0.437,2.392c-0.598-0.23-0.979-0.68-1.811-0.68
		c-0.113,0-0.234,0.008-0.365,0.026c-0.313,0.34-0.455,0.849-0.651,1.307c0.232,0.782,0.931,1.1,1.522,1.522
		c-0.957,0.202-2.053,0.27-1.739,1.742c1.032-0.063,2.03-0.157,2.97-0.157c1.711,0,3.23,0.311,4.425,1.678
		c-1.14,0.674-2.338,1.289-3.478,1.959c-1.137-0.315-2.109-0.792-3.484-0.869c-0.286,0.363-0.575,0.729-0.433,1.523
		c0.427,0.369,1.347,0.248,1.739,0.651c-0.753,0.335-1.394,0.781-1.522,1.739c0.31,0.419,0.673,0.781,1.088,1.089
		c0.768-0.029,0.974-0.623,1.739-0.652c-0.343,0.755-0.562,1.567,0,2.175c0.363,0,0.726,0,1.088,0
		c0.526-2.811,1.836-4.835,4.569-5.438c0.981,4.173-1.806,4.576-2.395,7.18c0.206,0.266,0.429,0.364,0.651,0.364
		c0.644,0,1.302-0.814,1.664-0.814c0.027,0,0.055,0.005,0.079,0.016c-0.104,0.829,0.062,1.387,0.435,1.74
		c0.254,0.122,0.496,0.179,0.719,0.179c0.877,0,1.455-0.878,1.24-2.138c0.355,0.35,0.965,0.908,1.642,0.908
		c0.245,0,0.498-0.073,0.752-0.255c-0.53-2.444-3.662-3.441-2.176-7.18c1.077,0.662,2.281,1.199,3.263,1.958
		c0.449,1.217,0.271,3.063,1.521,3.48c0.218,0,0.438,0,0.656,0c0.793-0.542-0.083-1.754,0.215-2.175
		c0.438,0.314,0.9,0.53,1.342,0.53c0.373,0,0.73-0.153,1.05-0.53c0.396-1.63-0.883-1.58-1.304-2.394c0.004,0,0.008,0,0.012,0
		c1.008,0,1.755-0.268,1.73-1.305c-0.24-0.445-0.611-0.601-1.048-0.601c-0.956,0-2.22,0.745-3.088,0.817
		c-0.953-0.857-2.509-1.117-3.26-2.177c1.373-1.001,2.687-1.531,4.313-1.531c0.852,0,1.787,0.146,2.863,0.444
		c-0.092-0.524,0.397-0.473,0.219-1.089c-0.087-0.855-1.436-0.448-1.742-1.086c0.857-0.159,1.317-0.714,1.523-1.524
		c-0.094-0.773-0.622-0.99-1.203-0.99c-0.656,0-1.381,0.277-1.623,0.339c0.6-0.821,0.525-2.178-0.771-2.178
		c-0.032,0-0.065,0.001-0.1,0.003c-0.87,0.798-0.98,2.356-1.307,3.699c-1.156,0.422-2.536,1.738-3.444,1.738
		c-0.013,0-0.024-0.001-0.036-0.001c-0.902-4.021,1.584-4.648,2.394-6.959c-0.244-0.047-0.34-0.243-0.437-0.437
		c-0.135-0.031-0.253-0.046-0.357-0.046c-0.84,0-0.768,0.911-1.6,0.917c0.204-1.074-0.266-1.475-0.651-1.959
		C107.6,82.404,107.415,82.384,107.252,82.384L107.252,82.384z"/>
	<path fill="#CBA145" d="M93.289,104.164c-1.07,0-1.222,0.919-1.112,2.097c-0.501-0.325-0.903-1.02-1.573-1.02
		c-0.197,0-0.418,0.06-0.67,0.206c0.427,2.629,3.188,2.928,2.243,6.928c-1.146-0.62-2.4-1.133-3.259-2.037
		c-0.643-0.989-0.229-3.034-1.632-3.261c-1.036,0.336-0.771,1.345-0.41,2.24c-0.56-0.216-0.915-0.636-1.694-0.636
		c-0.106,0-0.22,0.008-0.343,0.024c-0.294,0.317-0.428,0.795-0.61,1.224c0.218,0.733,0.871,1.03,1.427,1.426
		c-0.898,0.19-1.924,0.253-1.631,1.633c0.968-0.06,1.902-0.146,2.783-0.146c1.603,0,3.026,0.29,4.145,1.571
		c-1.067,0.631-2.189,1.207-3.258,1.835c-1.064-0.296-1.977-0.741-3.264-0.814c-0.269,0.341-0.539,0.683-0.406,1.428
		c0.4,0.346,1.262,0.232,1.631,0.61c-0.707,0.313-1.307,0.731-1.427,1.629c0.29,0.393,0.63,0.731,1.019,1.021
		c0.719-0.027,0.912-0.584,1.629-0.611c-0.32,0.707-0.525,1.468,0,2.038c0.342,0,0.681,0,1.02,0
		c0.493-2.634,1.721-4.531,4.281-5.096c0.92,3.909-1.691,4.287-2.243,6.727c0.193,0.249,0.401,0.341,0.611,0.341
		c0.602,0,1.219-0.764,1.558-0.764c0.026,0,0.052,0.005,0.074,0.015c-0.098,0.777,0.058,1.3,0.406,1.631
		c0.237,0.114,0.465,0.168,0.674,0.168c0.821,0,1.364-0.823,1.162-2.003c0.333,0.328,0.903,0.851,1.538,0.851
		c0.229,0,0.467-0.068,0.704-0.238c-0.496-2.29-3.43-3.225-2.038-6.727c1.009,0.62,2.138,1.123,3.058,1.834
		c0.42,1.141,0.252,2.87,1.424,3.262c0.205,0,0.41,0,0.615,0c0.743-0.508-0.078-1.645,0.201-2.038
		c0.41,0.294,0.843,0.497,1.257,0.497c0.35,0,0.686-0.144,0.984-0.497c0.37-1.527-0.827-1.48-1.222-2.243c0.004,0,0.007,0,0.011,0
		c0.945,0,1.644-0.25,1.621-1.222c-0.225-0.417-0.573-0.563-0.981-0.563c-0.896,0-2.08,0.698-2.893,0.766
		c-0.893-0.804-2.35-1.047-3.055-2.04c1.287-0.938,2.519-1.434,4.042-1.434c0.797,0,1.675,0.136,2.683,0.416
		c-0.086-0.491,0.371-0.442,0.204-1.021c-0.081-0.802-1.345-0.42-1.632-1.018c0.803-0.148,1.234-0.668,1.428-1.428
		c-0.089-0.725-0.583-0.928-1.126-0.928c-0.616,0-1.296,0.261-1.522,0.318c0.562-0.77,0.492-2.041-0.722-2.041
		c-0.031,0-0.063,0.001-0.095,0.003c-0.814,0.748-0.918,2.208-1.223,3.466c-1.085,0.396-2.377,1.628-3.228,1.628
		c-0.012,0-0.023-0.001-0.034-0.001c-0.846-3.766,1.484-4.354,2.242-6.52c-0.229-0.044-0.318-0.228-0.408-0.409
		c-0.126-0.029-0.237-0.042-0.334-0.042c-0.788,0-0.72,0.853-1.5,0.858c0.191-1.006-0.248-1.381-0.61-1.835
		C93.615,104.183,93.443,104.164,93.289,104.164L93.289,104.164z"/>
	<path fill="#CBA145" d="M36.84,78.111c-4.632-8.556-6.654-10.595-7.534-10.799c-0.115-0.027-0.198-0.019-0.294-0.01
		c-1.417,0.138-3.118,3.239-5.07,9.227H23.94l0.001,0.004c-0.298,0.908-0.599,1.881-0.907,2.923
		c-1.685,5.708-3.249,12.902-2.939,16.11c0.243,2.524,1.295,4.82,2.906,6.617l0.002,0.009l0.006,0.001
		c1.555,1.729,3.626,2.998,6.007,3.551c1.217,0.282,2.469,0.365,3.722,0.244c6.36-0.614,11.035-6.286,10.422-12.645
		C42.771,89.316,38.224,80.667,36.84,78.111z"/>
	<path fill="#CBA145" d="M49.629,101.45c-0.018,0-0.035,0.002-0.053,0.004c-0.559,0.054-1.229,1.276-1.998,3.636v0.002
		c-0.117,0.358-0.236,0.741-0.357,1.152c-0.664,2.25-1.28,5.085-1.158,6.349c0.096,0.995,0.51,1.9,1.145,2.608l0.001,0.004h0.002
		c0.613,0.682,1.43,1.182,2.368,1.399c0.337,0.078,0.681,0.118,1.027,0.118c0.146,0,0.293-0.007,0.439-0.021
		c2.507-0.242,4.349-2.479,4.107-4.983c-0.153-1.588-1.945-4.997-2.49-6.004c-1.826-3.372-2.623-4.176-2.97-4.256
		C49.668,101.452,49.648,101.45,49.629,101.45L49.629,101.45z"/>
	<path fill="#CBA145" d="M26.09,110.117c-0.018,0-0.035,0.002-0.053,0.004c-0.559,0.054-1.229,1.276-1.998,3.636h-0.001l0.001,0.002
		c-0.118,0.358-0.236,0.741-0.357,1.152c-0.665,2.25-1.281,5.085-1.159,6.349c0.096,0.995,0.511,1.9,1.146,2.608l0.001,0.004h0.002
		c0.613,0.682,1.429,1.182,2.368,1.399c0.337,0.078,0.681,0.118,1.027,0.118c0.146,0,0.292-0.007,0.438-0.021
		c2.508-0.242,4.35-2.479,4.107-4.983c-0.152-1.588-1.944-4.997-2.49-6.004c-1.825-3.372-2.622-4.176-2.97-4.256
		C26.129,110.119,26.109,110.117,26.09,110.117L26.09,110.117z"/>
</g>
</svg>
