<?xml version="1.0" encoding="utf-8"?>
<!-- Generator: Adobe Illustrator 15.1.0, SVG Export Plug-In . SVG Version: 6.00 Build 0)  -->
<!DOCTYPE svg PUBLIC "-//W3C//DTD SVG 1.1//EN" "http://www.w3.org/Graphics/SVG/1.1/DTD/svg11.dtd">
<svg version="1.1" id="Layer_1" xmlns="http://www.w3.org/2000/svg" xmlns:xlink="http://www.w3.org/1999/xlink" x="0px" y="0px"
	 width="128px" height="128px" viewBox="0 0 128 128" enable-background="new 0 0 128 128" xml:space="preserve">
<g>
	<path fill="#21520a" d="M55.802,61.11l-0.046-0.1c-0.008-0.017-1.067-1.728-4.497-1.728H25.294c-3.295,0-4.396,1.592-4.56,1.864
		c-0.425,0.87-7.835,16.088-9.607,20.139h54.3C63.611,77.136,55.88,61.269,55.802,61.11C55.802,61.11,55.88,61.269,55.802,61.11z
		 M24.497,63.981c0.167-0.038,0.425-0.074,0.797-0.074h25.965c0.362,0,0.621,0.035,0.797,0.071
		c1.062,2.183,3.839,7.906,6.113,12.681H18.383C20.559,72.095,23.213,66.618,24.497,63.981
		C24.664,63.944,23.213,66.618,24.497,63.981z"/>
	<path fill="#21520a" d="M20.431,87.893h-8.477c-1.478,0-2.677,1.198-2.677,2.677v1.428c0,1.479,1.199,2.677,2.677,2.677h8.477
		c1.479,0,2.677-1.198,2.677-2.677v-1.428C23.107,89.091,21.91,87.893,20.431,87.893C20.431,87.893,21.91,87.893,20.431,87.893z"/>
	<path fill="#21520a" d="M50.925,87.893H38.176H25.428c-1.381,0-1.38,2.142,0,2.142h12.749h12.749
		C52.306,90.034,52.307,87.893,50.925,87.893C50.925,87.893,51.516,87.893,50.925,87.893z"/>
	<path fill="#21520a" d="M50.925,92.532H38.176H25.428c-1.38,0-1.381,2.142,0,2.142h12.749h12.749
		C52.306,94.674,52.306,92.532,50.925,92.532C50.925,92.532,51.516,92.532,50.925,92.532z"/>
	<path fill="#21520a" d="M64.398,87.893h-8.477c-1.478,0-2.677,1.198-2.677,2.677v1.428c0,1.479,1.199,2.677,2.677,2.677h8.477
		c1.478,0,2.678-1.198,2.678-2.677v-1.428C67.076,89.091,65.876,87.893,64.398,87.893C64.398,87.893,65.876,87.893,64.398,87.893z"
		/>
	<path fill="#21520a" d="M126.238,73.95c-1.617-6.066-3.563-12.058-5.416-18.056c-0.544-1.762-0.963-3.69-1.825-5.332
		c-1.668-3.171-4.712-5.446-8.083-6.546c-0.921-0.301-1.868-0.52-2.825-0.667l-12.834-1.966l-12.832-1.966
		c-4.037-0.619-8.281,0.127-11.522,2.71l2.981-18.074c0.704-4.254-2.606-8.042-6.881-8.042l-4.306,0.032
		c-2.061,0.017-3.973,0.902-5.266,2.425c-1.478-3.467-5.501-5.072-8.977-3.638l-6.501,2.68c-3.244,1.337-5.024,4.91-4.027,8.301
		c-1.942-0.022-3.784,0.767-5.127,2.171l-1.843,1.926c-2.957,3.087-2.426,8.114,1.102,10.52l14.202,9.678h-7.982H25.294
		c-4.056,0-8.127,1.39-10.952,4.379c-1.37,1.449-2.133,3.207-2.991,4.973c-2.789,5.744-5.617,11.478-8.251,17.294
		c-0.926,2.045-1.697,4.146-2.242,6.327c-0.347,1.389-0.735,2.896-0.735,4.343v12.693v2.363v4.686c0,4.026,3.275,7.302,7.302,7.302
		h6.091c4.025,0,7.3-3.275,7.3-7.302v-0.061h17.46h17.459v0.061c0,4.026,3.275,7.302,7.301,7.302h6.092
		c4.025,0,7.301-3.275,7.301-7.302v-4.686v-2.363v-3.955l10.194,1.563l17.259,2.644l-0.01,0.061c-0.61,3.979,2.132,7.713,6.11,8.323
		l6.022,0.922c3.951,0.606,7.718-2.163,8.323-6.111l0.709-4.631l0.357-2.337l1.923-12.547c0.154-1.033,0.081-2.129,0.022-3.165
		C127.211,78.544,126.841,76.215,126.238,73.95C125.042,69.459,127.596,79.046,126.238,73.95z M62.729,20.668l4.311-0.033
		c1.456,0,2.519,1.219,2.277,2.666l-3.858,23.397c-0.032,0.189-0.127,1.11-0.452,1.11s-0.428-0.915-0.46-1.105l-4.072-23.331
		C60.217,21.896,61.231,20.681,62.729,20.668C62.729,20.668,61.231,20.681,62.729,20.668z M43.714,21.788l6.501-2.681
		c1.353-0.557,2.793,0.196,3.111,1.619l6.947,31.084c0.12,0.54,0.137,0.886,0.08,1.063c-0.254-0.184-0.522-0.362-0.801-0.536
		c-0.042-0.061-0.079-0.113-0.123-0.184l-3.643-5.859c-0.214-0.82-0.625-1.66-1.256-2.515l-1.937-2.621l-9.96-16.022
		C41.844,23.865,42.33,22.357,43.714,21.788C43.714,21.788,42.33,22.357,43.714,21.788z M34.295,33.108l1.845-1.927
		c1.008-1.052,2.632-0.951,3.499,0.221l9.125,12.354l2.423,3.899c-0.345,0.021-0.743-0.291-1.01-0.473L34.662,36.608
		C33.424,35.765,33.259,34.19,34.295,33.108C34.295,33.108,33.259,34.19,34.295,33.108z M71.806,100.117v2.363v4.686
		c0,1.479-1.199,2.678-2.677,2.678h-6.092c-1.478,0-2.677-1.199-2.677-2.678v-4.686H38.276H16.192v4.686
		c0,1.479-1.197,2.678-2.676,2.678H7.425c-1.478,0-2.677-1.199-2.677-2.678v-4.686v-2.363V87.424
		c0.579-5.694,3.548-10.939,5.978-16.021c1.962-4.104,3.942-8.199,5.935-12.287c0,0,2.008-4.383,8.633-4.383h12.982h12.983
		c2.216,0,3.906,0.494,5.186,1.146c0.499,0.55,1.183,1.113,2.072,1.45c0.99,0.945,1.375,1.787,1.375,1.787
		c2.147,4.406,4.281,8.816,6.391,13.24c2.287,4.8,4.963,9.693,5.522,15.068v4.06V100.117L71.806,100.117z M122.748,83.348
		l-1.924,12.547l-0.357,2.337l-0.709,4.63c-0.222,1.441-1.61,2.465-3.053,2.241l-6.021-0.922c-1.461-0.224-2.465-1.591-2.24-3.052
		l0.709-4.631l-21.83-3.345l-10.894-1.67v-4.06v-0.211l-0.019-0.21l0,0c-0.109-1.188-0.361-2.356-0.62-3.519
		c0.006,0.001,0.01,0.005,0.015,0.006l12.602,1.931l12.603,1.932c1.358,0.211,1.692-1.908,0.324-2.117l-12.603-1.932l-12.602-1.93
		c-0.298-0.047-0.604,0.049-0.838,0.241c-0.271-1.084-0.664-2.309-1.165-3.311c-0.068-0.485-0.264-0.933-0.563-1.305
		c-0.386-1.156-1.047-2.284-1.565-3.384c-0.722-1.533-1.449-3.062-2.18-4.59l47.553,7.287c-1.166-4.376-6.404-21.231-6.459-21.4
		l-0.029-0.105c-0.006-0.018-0.794-1.869-4.183-2.389l-25.666-3.933c-1.545-0.235-3.688-0.17-4.79,1.152
		c-0.399,0.575-5.544,8.013-9.259,13.501c-0.938-1.944-1.757-3.628-2.291-4.728c3.658-5.372,7.831-11.398,7.831-11.398
		c1.994-2.841,6.002-3.515,9.197-3.025l12.833,1.966l12.833,1.966c6.55,1.004,7.87,5.641,7.87,5.641
		c1.33,4.276,2.646,8.557,3.944,12.842C120.855,71.856,123.038,77.567,122.748,83.348L122.748,83.348z M71.571,64.616
		c3.008-4.427,6.643-9.693,7.964-11.605c0.266-0.02,0.536,0.007,0.799,0.048l25.665,3.932c0.356,0.054,0.608,0.128,0.776,0.191
		c0.734,2.364,2.604,8.416,4.124,13.46L71.571,64.616C74.579,60.189,71.571,64.616,71.571,64.616z"/>
	<path fill="#21520a" d="M115.355,82.689l-8.379-1.284c-1.442-0.222-2.831,0.801-3.053,2.241l-0.216,1.41
		c-0.225,1.463,0.78,2.829,2.241,3.053l8.379,1.284c1.441,0.218,2.829-0.799,3.051-2.241l0.218-1.411
		C117.818,84.28,116.815,82.913,115.355,82.689C115.355,82.689,116.815,82.913,115.355,82.689z"/>
	<path fill="#21520a" d="M102.037,80.649l-12.603-1.932l-12.602-1.931c-1.36-0.212-1.693,1.908-0.325,2.117l12.602,1.931
		l12.604,1.931C103.071,82.978,103.406,80.857,102.037,80.649C102.037,80.649,102.62,80.738,102.037,80.649z"/>
</g>
</svg>
