<?xml version="1.0" encoding="UTF-8" standalone="no"?>
<!-- Generator: Adobe Illustrator 15.1.0, SVG Export Plug-In . SVG Version: 6.00 Build 0)  -->

<svg
   xmlns:dc="http://purl.org/dc/elements/1.1/"
   xmlns:cc="http://creativecommons.org/ns#"
   xmlns:rdf="http://www.w3.org/1999/02/22-rdf-syntax-ns#"
   xmlns:svg="http://www.w3.org/2000/svg"
   xmlns="http://www.w3.org/2000/svg"
   xmlns:sodipodi="http://sodipodi.sourceforge.net/DTD/sodipodi-0.dtd"
   xmlns:inkscape="http://www.inkscape.org/namespaces/inkscape"
   version="1.1"
   id="Layer_1"
   x="0px"
   y="0px"
   width="128px"
   height="128px"
   viewBox="0 0 128 128"
   enable-background="new 0 0 128 128"
   xml:space="preserve"
   sodipodi:docname="Agriculture Insurance.svg"
   inkscape:version="0.92.3 (2405546, 2018-03-11)"><metadata
   id="metadata9"><rdf:RDF><cc:Work
       rdf:about=""><dc:format>image/svg+xml</dc:format><dc:type
         rdf:resource="http://purl.org/dc/dcmitype/StillImage" /></cc:Work></rdf:RDF></metadata><defs
   id="defs7" /><sodipodi:namedview
   pagecolor="#ffffff"
   bordercolor="#666666"
   borderopacity="1"
   objecttolerance="10"
   gridtolerance="10"
   guidetolerance="10"
   inkscape:pageopacity="0"
   inkscape:pageshadow="2"
   inkscape:window-width="1366"
   inkscape:window-height="664"
   id="namedview5"
   showgrid="false"
   inkscape:zoom="1.84375"
   inkscape:cx="64"
   inkscape:cy="64"
   inkscape:window-x="0"
   inkscape:window-y="27"
   inkscape:window-maximized="1"
   inkscape:current-layer="Layer_1" />
<path
   fill="#21520a"
   d="M121.681,30.282c-2.284-4.119-5.092-7.954-8.284-11.415c-1.425-1.545-3.29-3.949-5.442-4.506  c-2.527-0.654-4.481,0.858-5.525,3.014c-0.928,1.916-1.973,3.785-3.247,5.494c-2.13,2.858-4.909,4.974-7.938,6.804  c-7.946,4.803-16.248,9.058-23.232,15.286c-7.084,6.316-12.002,14.869-11.422,24.591c-5.57-7.941-15.478-10.677-24.507-12.46  c-3.875-0.765-7.932-1.066-11.698-2.29c-1.725-0.561-3.317-1.412-4.766-2.5c-1.752-1.316-3.229-3.528-5.537-3.806  c-3.442-0.415-4.827,2.65-5.95,5.247c-1.863,4.31-3.107,8.919-3.551,13.597c-0.914,9.601,2.018,19.051,8.593,26.167  c2.143,2.319,4.812,4.201,7.382,6.014c2.223,1.565,4.478,2.945,7.031,3.936c7.855,3.046,16.603,3.634,24.351-0.066  c1.256,1.542,2.401,3.178,3.453,4.865c0.705,1.131,1.257,2.562,2.191,3.52c2.847,2.922,7.113,0.433,9.567-1.777  c1.444,1.623,3.506,2.559,5.573,3.102c2.71,0.712,6.367,1.492,8.363-1.051c1.082-1.376,1.088-3.402,1.406-5.061  c0.639-3.343,1.503-6.656,2.688-9.849c5.533,0.698,11.263,0.033,16.477-1.951c4.287-1.633,8.302-4.172,11.89-7.009  c5.65-4.471,9.824-10.619,13.302-16.873C129.969,58.494,128.634,42.824,121.681,30.282C116.591,21.103,128.58,42.727,121.681,30.282  z M64.113,88.019c0.701,0.86,1.682,1.427,2.751,1.612c-1.24,2.542-2.575,5.672-3.722,9.216c-1.705-2.29-3.465-4.255-5.055-5.848  c1.018-1.127,1.356-2.807,1.691-4.247c0.464-1.998,0.723-4.046,0.742-6.099C61.825,85.026,63.177,86.869,64.113,88.019  C64.813,88.879,63.177,86.869,64.113,88.019z M56.844,108.589c0,0-3.272-6.343-7.993-10.976c-4.283,2.941-9.712,4.3-14.874,3.729  c-4.28-0.474-8.84-1.661-12.502-3.986c-3.38-2.146-6.93-4.601-9.572-7.635c-2.975-3.414-5.128-7.486-6.167-11.902  c-1.911-8.12-0.271-17.524,3.8-24.801c2.359,2.328,5.007,4.388,8.104,5.631c2.739,1.099,5.678,1.551,8.574,2.029  c4.147,0.685,8.26,1.489,12.306,2.645c4.072,1.163,8.075,2.764,11.327,5.548c6.129,5.247,7.4,13.68,4.86,21.072  c-2.857-2.226-5.91-4.211-9.094-5.936c-2.148-1.164-4.364-2.205-6.641-3.092c-2.432-0.945-4.925-1.556-7.421-2.286  c-6.664-1.948-12.655-6.153-16.799-11.723c-0.444-0.596-0.875-1.209-1.248-1.854c0,0,3.752,11.046,19.621,17.484  c5.007,2.263,9.946,4.657,14.507,7.747c5.413,3.665,10.13,8.356,13.653,13.88C61.284,104.164,62.044,106.286,56.844,108.589  C56.844,108.589,62.044,106.286,56.844,108.589z M120.157,66.487c-1.473,3.548-3.796,6.821-5.976,9.962  c-2.468,3.558-5.256,6.566-8.762,9.14c-3.443,2.527-7.232,4.767-11.345,5.998c-5.05,1.512-10.558,1.697-15.675,0.395  c-3.737,7.897-4.905,17.251-4.905,17.251c-7.493-0.484-7.52-3.463-7.52-3.463c1.818-8.327,5.45-16.196,10.383-23.129  c4.289-6.029,9.402-11.346,14.667-16.518c16.737-15.216,16.354-30.621,16.354-30.621c-0.649,3.777-2.204,7.493-3.995,10.853  c-1.844,3.46-4.148,6.675-6.859,9.509c-3.408,3.563-7.572,6.033-11.372,9.12c-6.917,5.622-12.802,12.598-17.507,20.156  c-3.157-3.877-5.466-8.612-6.264-13.564c-1.214-7.531,1.633-14.688,6.668-20.254c3.539-3.912,7.923-6.994,12.312-9.876  c3.338-2.193,6.803-4.169,10.271-6.145c2.65-1.51,5.311-3.045,7.681-4.98c2.45-2.002,4.478-4.429,6.132-7.122  c0.876-1.427,1.652-2.912,2.364-4.426C106.811,18.773,131.383,39.452,120.157,66.487C118.756,69.863,131.383,39.452,120.157,66.487z  "
   id="path2" />
</svg>