<?xml version="1.0" encoding="utf-8"?>
<!-- Generator: Adobe Illustrator 15.1.0, SVG Export Plug-In . SVG Version: 6.00 Build 0)  -->
<!DOCTYPE svg PUBLIC "-//W3C//DTD SVG 1.1//EN" "http://www.w3.org/Graphics/SVG/1.1/DTD/svg11.dtd">
<svg version="1.1" id="Layer_1" xmlns="http://www.w3.org/2000/svg" xmlns:xlink="http://www.w3.org/1999/xlink" x="0px" y="0px"
	 width="128px" height="128px" viewBox="0 0 128 128" enable-background="new 0 0 128 128" xml:space="preserve">
<g>
	<path fill="#CBA145" d="M56.622,66.729c-0.776-0.231-1.619,0.222-1.852,0.998l-0.464,1.555c-0.552,1.838,2.299,2.692,2.849,0.852
		l0.465-1.553C57.855,67.792,57.408,66.964,56.622,66.729C56.479,66.687,57.408,66.964,56.622,66.729z"/>
	<path fill="#CBA145" d="M51.441,65.178c-0.776-0.231-1.619,0.223-1.852,0.999l-0.464,1.554c-0.55,1.837,2.298,2.693,2.849,0.854
		l0.465-1.555C52.675,66.242,52.228,65.414,51.441,65.178C51.299,65.136,52.228,65.414,51.441,65.178z"/>
	<path fill="#CBA145" d="M127.934,93.681c-0.014-2.263-0.009-4.984-1.894-6.562c0.819-2.358-0.647-4.752-1.829-6.72
		c-1.086-1.808-2.382-3.487-3.83-5.02c-2.294-2.429-4.963-4.507-7.845-6.193c-1.817-1.063-3.663-1.824-5.631-2.573
		c-5.395-2.053-10.847-3.951-16.323-5.771c-1.838-0.611-3.68-1.212-5.523-1.806c0.521-1.396,0.355-2.986-0.521-4.254l-18.59-26.895
		c-1.368-2.128-4.269-4.553-8.084-4.553h-6.645c-3.539,0-5.889,3.225-5.881,6.551c0.001,0.496,0.075,0.99,0.15,1.479
		c0.868,5.673,2.203,11.297,3.401,16.906c-6.035-1.678-11.134-3.046-14.657-3.977c-2.257-4.358-7.524-14.521-8.712-16.78
		l-0.088-0.168c-0.907-1.737-1.932-3.361-3.504-4.573c-1.654-1.275-3.583-2.156-5.577-2.752c-2.125-0.637-4.408-1.076-6.496-0.07
		c-1.907,0.919-3.157,2.881-3.196,4.998l-1.65,17.368c-4.062,2.157-6.077,6.689-4.122,10.887c1.589,3.411,4.821,5.961,7.808,8.089
		c8.294,5.906,17.839,10.141,27.144,14.159c-5.36,5.277-10.739,10.54-15.991,15.927c-1.045,1.07-2.262,2.136-3.103,3.388
		c-1.853,2.758-1.687,6.773,1.272,8.721l5.535,3.674c2.695,1.788,6.265,1.946,9.213,0.693l43.677-16.97
		c9.949,3.369,19.981,6.601,30.161,9.204c6.14,1.569,16.188,4.687,20.282-2.287C127.606,96.568,128.003,95.111,127.934,93.681
		C127.926,92.465,128.008,95.195,127.934,93.681z M51.219,27.97c2.048,0,4.096,0,6.144,0c1.942,0,3.64,0.827,4.718,2.476
		l18.642,26.971c-9.365-2.948-18.715-5.687-26.842-7.983c-1.015-4.728-2.024-9.458-2.966-14.202
		c-0.307-1.551-0.628-3.104-0.86-4.668C49.912,29.603,49.966,28.088,51.219,27.97L51.219,27.97z M117.598,97.512
		c-4.249,0-21.488-4.808-41.262-11.563l-45.337,17.614c-0.808,0.348-1.724,0.506-2.601,0.463c-1.409-0.072-2.45-0.843-3.582-1.594
		c-1.412-0.937-2.824-1.874-4.237-2.812c-1.516-1.21,0.854-3.226,1.674-4.075c2.029-2.103,4.1-4.165,6.168-6.229
		c5.185-5.172,10.403-10.309,15.628-15.439C22.516,65.012,4.705,55.628,4.705,49.576c0,0,0.007-2.837,4.648-3.963l1.945-20.481
		c-0.104-1.623,2.159-1.09,3.065-0.854c1.971,0.515,4.255,1.361,5.588,2.981c0.863,1.049,1.425,2.337,2.051,3.537
		c0.591,1.133,1.181,2.268,1.77,3.401c2.433,4.684,4.863,9.368,7.288,14.056c11.521,3.015,51.041,13.615,76.553,23.603
		c0,0,10.033,4.133,14.046,13.743c-2.504-0.387-4.973-1.008-7.396-1.736c-1.274-0.385-2.941-1.336-4.29-1.054
		c-1.169,0.244-2.009,1.343-1.928,2.537c0.087,1.285,1.029,1.931,2.145,2.309c1.323,0.448,2.655,0.868,3.999,1.254
		c2.893,0.829,5.865,1.546,8.875,1.765c0.146,1.013,0.233,2.065,0.233,3.168C123.297,93.842,123.71,97.512,117.598,97.512
		C113.349,97.512,123.71,97.512,117.598,97.512z"/>
	<path fill="#CBA145" d="M92.885,77.579c-0.778-0.23-1.619,0.22-1.853,0.998l-0.464,1.555c-0.549,1.835,2.298,2.691,2.849,0.853
		l0.466-1.555C94.118,78.643,93.671,77.814,92.885,77.579C92.742,77.536,93.671,77.814,92.885,77.579z"/>
	<path fill="#CBA145" d="M72.162,71.379c-0.775-0.232-1.618,0.223-1.852,0.998l-0.465,1.554c-0.547,1.837,2.299,2.694,2.849,0.853
		l0.466-1.554C73.396,72.442,72.95,71.614,72.162,71.379C72.02,71.336,72.95,71.614,72.162,71.379z"/>
	<path fill="#CBA145" d="M98.063,79.128c-0.775-0.231-1.618,0.223-1.851,0.998l-0.464,1.556c-0.55,1.837,2.299,2.691,2.849,0.852
		l0.464-1.554C99.297,80.193,98.852,79.363,98.063,79.128C97.922,79.085,98.852,79.363,98.063,79.128z"/>
	<path fill="#CBA145" d="M77.343,72.928c-0.776-0.233-1.619,0.223-1.852,0.999l-0.463,1.554c-0.55,1.836,2.297,2.692,2.847,0.853
		l0.466-1.555C78.576,73.992,78.131,73.163,77.343,72.928C77.2,72.885,78.131,73.163,77.343,72.928z"/>
</g>
</svg>
