<?xml version="1.0" encoding="UTF-8" standalone="no"?>
<svg
   xmlns:dc="http://purl.org/dc/elements/1.1/"
   xmlns:cc="http://creativecommons.org/ns#"
   xmlns:rdf="http://www.w3.org/1999/02/22-rdf-syntax-ns#"
   xmlns:svg="http://www.w3.org/2000/svg"
   xmlns="http://www.w3.org/2000/svg"
   xmlns:sodipodi="http://sodipodi.sourceforge.net/DTD/sodipodi-0.dtd"
   xmlns:inkscape="http://www.inkscape.org/namespaces/inkscape"
   version="1.1"
   x="0px"
   y="0px"
   viewBox="0 0 1000 985.8575000000001"
   enable-background="new 0 0 1000 788.686"
   xml:space="preserve"
   id="svg8"
   sodipodi:docname="noun_car insurance_1265248.svg"
   inkscape:version="0.92.3 (2405546, 2018-03-11)"><metadata
     id="metadata14"><rdf:RDF><cc:Work
         rdf:about=""><dc:format>image/svg+xml</dc:format><dc:type
           rdf:resource="http://purl.org/dc/dcmitype/StillImage" /></cc:Work></rdf:RDF></metadata><defs
     id="defs12" /><sodipodi:namedview
     pagecolor="#ffffff"
     bordercolor="#666666"
     borderopacity="1"
     objecttolerance="10"
     gridtolerance="10"
     guidetolerance="10"
     inkscape:pageopacity="0"
     inkscape:pageshadow="2"
     inkscape:window-width="1366"
     inkscape:window-height="664"
     id="namedview10"
     showgrid="false"
     inkscape:zoom="0.23938551"
     inkscape:cx="-228.94971"
     inkscape:cy="492.92874"
     inkscape:window-x="0"
     inkscape:window-y="27"
     inkscape:window-maximized="1"
     inkscape:current-layer="svg8" /><path
     d="M306.671,419.665c-72.452-43.119-79.269-112.111-140.493-134.206c-2.588-0.932-4.909-1.424-7.096-1.719  c-3.037-0.185-3.692,0.429-7.265,3.819c-0.401,0.037-3.33,3.391-6.732,9.235c-6.342,10.941-11.469,42.297,25.515,129.392  c12.114,28.541,34.119,43.572,53.545,56.825c14.046,9.589,26.184,17.88,32.88,29.745c1.75,3.106,0.68,7.07-2.394,8.842  c-1.009,0.576-2.09,0.847-3.171,0.847c-2.235,0-4.397-1.179-5.577-3.267c-5.2-9.234-16.184-16.741-28.905-25.421  c-19.841-13.546-44.555-30.408-58.15-62.45c-30.29-71.339-38.456-119.088-24.276-141.929c3.366-5.404,7.351-8.352,10.716-9.997  c-3.754-17.205-37.581-165.35-88.247-166.013c0,0-9.064-3.844-52.635,8.51c0,0,51.299,139.623,60.339,180.727  c6.403,28.933,26.305,107.2,36.183,166.578c0,0,8.165,54.222,30.996,95.753c32.624,59.32,183.479,111.365,186.213,220.752  l156.933-52.868c1.301-58.717,0.96-140.25-9.719-167.991C447.966,519.705,379.123,462.783,306.671,419.665z M943.063,113.366  c-50.669,0.65-84.494,148.808-88.25,166.013c3.367,1.658,7.354,4.593,10.717,9.997c14.179,22.829,6.028,70.59-24.276,141.929  c-13.607,32.041-38.307,48.904-58.148,62.45c-12.725,8.695-23.705,16.188-28.908,25.421c-1.178,2.088-3.339,3.267-5.576,3.267  c-1.069,0-2.161-0.271-3.17-0.847c-3.073-1.771-4.143-5.724-2.395-8.842c6.693-11.864,18.821-20.154,32.879-29.745  c19.43-13.253,41.433-28.284,53.545-56.825c36.984-87.096,31.859-118.462,25.517-129.392c-3.402-5.858-6.329-9.198-6.731-9.235  c-3.574-3.39-4.229-4.001-7.267-3.819c-2.199,0.294-4.518,0.774-7.096,1.719c-61.212,22.081-68.028,91.087-140.493,134.206  c-72.463,43.118-141.295,100.041-158.634,145.162c-10.68,27.743-11.03,109.263-9.719,167.991l156.932,52.868  c2.733-109.387,153.59-161.445,186.214-220.75c22.817-41.533,30.995-95.755,30.995-95.755  c9.879-59.377,29.768-137.643,36.185-166.578c9.037-41.104,60.338-180.726,60.338-180.726  C952.125,109.521,943.063,113.366,943.063,113.366z M734.182,281.688v36.453c0,3.132-2.452,5.654-5.488,5.654h-8.016v35.945  c0,14.907-11.729,27.035-26.192,27.035h-17.469c-14.489,0-26.235-12.129-26.235-27.035v-35.945H350.35v35.945  c0,14.907-11.732,27.035-26.226,27.035h-17.439c-14.493,0-26.225-12.129-26.225-27.035v-35.945h-21.822  c-3.045,0-5.489-2.522-5.489-5.654v-36.453c0-3.131,2.444-5.664,5.489-5.664h470.053  C731.729,276.023,734.182,278.557,734.182,281.688z M740.912,147.156c0-9.311-7.311-16.89-16.352-16.89h-29.103  c-2.053,0-4.001,0.438-5.8,1.149C671.816,74.678,635.211,16.416,618.961,6H367.486c-15.11,10.418-52.959,68.702-71.085,125.431  c-1.815-0.727-3.762-1.165-5.831-1.165h-29.121c-9.022,0-16.349,7.579-16.349,16.89c0,9.332,7.327,16.91,16.349,16.91h8.099  c-27.957,27.06-21.618,91.052-21.261,94.352c0.305,2.886,2.662,5.041,5.451,5.041h0.023l239.243-0.584l239.249,0.584  c0.033,0,0.033,0,0.033,0c2.778,0,5.136-2.155,5.431-5.041c0.357-3.3,6.715-67.291-21.251-94.352h8.095  C733.6,164.066,740.912,156.488,740.912,147.156z M315.606,130.595c1.334-3.762,33.214-92.321,56.198-98.791  c22.297-6.285,113.706-6.798,117.591-6.798c-0.008,0,9.285-0.135,22.88-0.135c42.873,0,93.746,1.632,103.31,7.166  c13.918,8.038,52.733,94.767,54.286,98.48c0.197,0.493,0.103,1.007-0.243,1.421c-0.364,0.405-0.972,0.67-1.587,0.67h-350.58  c-0.602,0-1.174-0.234-1.554-0.618C315.543,131.58,315.43,131.066,315.606,130.595z M315.403,236.431  c-13.453,0-24.366-11.257-24.366-25.142c0-13.883,10.913-25.134,24.366-25.134c13.458,0,24.353,11.251,24.353,25.134  C339.755,225.174,328.861,236.432,315.403,236.431z M612.42,245.277H373.597c-1.824,0-3.314-1.544-3.314-3.433  c0-1.908,1.489-3.428,3.314-3.428H612.42c1.822,0,3.32,1.519,3.32,3.428C615.74,243.732,614.242,245.276,612.42,245.277z   M612.42,231.546H373.597c-1.824,0-3.314-1.556-3.314-3.464c0-1.879,1.489-3.43,3.314-3.43H612.42c1.822,0,3.32,1.551,3.32,3.43  C615.74,229.991,614.242,231.546,612.42,231.546z M612.42,217.789H373.597c-1.824,0-3.314-1.553-3.314-3.435  c0-1.892,1.489-3.436,3.314-3.436H612.42c1.822,0,3.32,1.544,3.32,3.436C615.74,216.235,614.242,217.789,612.42,217.789z   M670.61,236.431c-13.456,0-24.355-11.257-24.355-25.142c0-13.883,10.899-25.134,24.355-25.134  c13.453,0,24.366,11.251,24.366,25.134C694.977,225.174,684.063,236.432,670.61,236.431z"
     id="path2"
     style="fill:#999999" /><text
     x="0"
     y="803.686"
     fill="#000000"
     font-size="5px"
     font-weight="bold"
     font-family="'Helvetica Neue', Helvetica, Arial-Unicode, Arial, Sans-serif"
     id="text4">Created by Optimus Prime</text>
<text
     x="0"
     y="808.686"
     fill="#000000"
     font-size="5px"
     font-weight="bold"
     font-family="'Helvetica Neue', Helvetica, Arial-Unicode, Arial, Sans-serif"
     id="text6">from the Noun Project</text>
</svg>