<?xml version="1.0" encoding="UTF-8" standalone="no"?>
<!-- Generator: Adobe Illustrator 15.1.0, SVG Export Plug-In . SVG Version: 6.00 Build 0)  -->

<svg
   xmlns:dc="http://purl.org/dc/elements/1.1/"
   xmlns:cc="http://creativecommons.org/ns#"
   xmlns:rdf="http://www.w3.org/1999/02/22-rdf-syntax-ns#"
   xmlns:svg="http://www.w3.org/2000/svg"
   xmlns="http://www.w3.org/2000/svg"
   xmlns:sodipodi="http://sodipodi.sourceforge.net/DTD/sodipodi-0.dtd"
   xmlns:inkscape="http://www.inkscape.org/namespaces/inkscape"
   version="1.1"
   id="Layer_1"
   x="0px"
   y="0px"
   width="128px"
   height="128px"
   viewBox="0 0 128 128"
   enable-background="new 0 0 128 128"
   xml:space="preserve"
   sodipodi:docname="Good in Transit (copy).svg"
   inkscape:version="0.92.3 (2405546, 2018-03-11)"><metadata
   id="metadata34"><rdf:RDF><cc:Work
       rdf:about=""><dc:format>image/svg+xml</dc:format><dc:type
         rdf:resource="http://purl.org/dc/dcmitype/StillImage" /></cc:Work></rdf:RDF></metadata><defs
   id="defs32" /><sodipodi:namedview
   pagecolor="#ffffff"
   bordercolor="#666666"
   borderopacity="1"
   objecttolerance="10"
   gridtolerance="10"
   guidetolerance="10"
   inkscape:pageopacity="0"
   inkscape:pageshadow="2"
   inkscape:window-width="640"
   inkscape:window-height="480"
   id="namedview30"
   showgrid="false"
   inkscape:zoom="1.84375"
   inkscape:cx="64"
   inkscape:cy="64"
   inkscape:window-x="0"
   inkscape:window-y="27"
   inkscape:window-maximized="0"
   inkscape:current-layer="Layer_1" />
<g
   id="g27"
   style="fill:#ffffff">
	<path
   fill="#CBA145"
   d="M119.866,95.165c-0.604-1.555-2.403-2.361-3.964-1.748l-48.98,18.996l-36.174-89.46   c-0.872-2.152-3.322-2.053-5.257-1.856c-1.863,0.189-3.684,0.702-5.399,1.449c-3.046,1.325-5.761,3.348-8.123,5.665   c-1.254,1.231-2.454,2.555-3.471,3.992c-1.036,1.463-0.613,3.549,0.951,4.453c1.508,0.873,3.173,0.261,4.151-1.05   c2.905-3.892,7.29-7.756,12.266-8.383l32.162,79.538c-3.759-2.203-8.58-1.976-12.109,0.57c-3.154,2.274-4.925,6.113-4.593,9.989   c0.329,3.831,2.702,7.293,6.14,9.007c3.568,1.778,7.937,1.472,11.224-0.782c2.321-1.592,3.992-4.051,4.594-6.802   c0.814,0.66,2.014,0.875,3.038,0.475l51.797-20.087C119.674,98.527,120.471,96.725,119.866,95.165   C119.404,93.977,120.162,95.928,119.866,95.165z M52.412,122.661c-4.354,0-7.46-4.529-5.869-8.592   c1.705-4.354,7.623-5.363,10.663-1.788l-2.384,1.067c-3.173-2.536-7.691,1.161-5.849,4.766c1.75,3.425,7.081,2.301,7.288-1.545   l2.391-1.071C59.165,119.228,56.178,122.661,52.412,122.661C48.938,122.661,55.886,122.661,52.412,122.661z"
   id="path17"
   style="fill:#ffffff" />
	<path
   fill="#CBA145"
   d="M79.61,75.098c0.174,0,0.351-0.031,0.522-0.098l10.622-4.089c1.744-0.669,0.704-3.37-1.042-2.705   L79.09,72.295C77.629,72.858,78.049,75.098,79.61,75.098C79.784,75.098,79.028,75.098,79.61,75.098z"
   id="path19"
   style="fill:#ffffff" />
	<path
   fill="#CBA145"
   d="M78.908,40.42c-0.174,0-0.349,0.031-0.52,0.097l-10.623,4.089c-1.746,0.668-0.705,3.375,1.042,2.703   l10.622-4.087C80.891,42.659,80.469,40.42,78.908,40.42C78.734,40.42,79.489,40.42,78.908,40.42z"
   id="path21"
   style="fill:#ffffff" />
	<path
   fill="#CBA145"
   d="M45.831,42.719c0.546,1.417,1.553,2.57,2.801,3.344c-0.734,1.614-0.849,3.509-0.165,5.292L55.8,70.408   c0.702,1.824,2.164,3.215,3.93,3.904c-0.543,1.535-0.527,3.193,0.063,4.73l7.331,19.054c1.34,3.475,5.374,5.27,8.853,3.935   l35.979-13.845c3.523-1.358,5.286-5.329,3.934-8.853l-7.334-19.054c-0.7-1.825-2.163-3.217-3.93-3.907   c0.522-1.482,0.546-3.149-0.061-4.728l-7.334-19.054c-0.544-1.417-1.553-2.571-2.8-3.344c0.733-1.615,0.849-3.51,0.164-5.292   L87.262,4.902c-1.335-3.478-5.378-5.271-8.855-3.932L42.431,14.814c-3.482,1.339-5.273,5.365-3.932,8.854L45.831,42.719   C46.376,44.136,45.831,42.719,45.831,42.719z M102.164,60.22c1.012,0,1.966,0.614,2.351,1.616l7.332,19.051   c0.499,1.3-0.147,2.758-1.446,3.259L74.424,97.988c-1.284,0.492-2.764-0.164-3.258-1.446L63.835,77.49   c-0.499-1.299,0.148-2.758,1.446-3.255l35.977-13.846C101.556,60.274,101.862,60.22,102.164,60.22   C103.176,60.22,101.862,60.22,102.164,60.22z M93.19,34.146l7.332,19.051c0.499,1.299-0.147,2.757-1.446,3.256L63.099,70.297   c-1.283,0.494-2.765-0.163-3.258-1.444l-7.332-19.052c-0.383-0.998-0.085-2.085,0.661-2.764c0.516-0.073,1.024-0.197,1.517-0.386   L90.66,32.807c0.191-0.074,0.375-0.158,0.556-0.247C92.082,32.691,92.854,33.27,93.19,34.146   C93.19,34.146,92.854,33.27,93.19,34.146z M43.987,18.855L79.964,5.011c1.283-0.496,2.765,0.166,3.257,1.446l7.332,19.052   c0.384,0.997,0.086,2.085-0.661,2.764c-0.516,0.072-1.024,0.196-1.516,0.387L52.402,42.503c-0.191,0.073-0.375,0.158-0.557,0.247   c-0.864-0.132-1.637-0.712-1.973-1.586l-7.332-19.052C42.041,20.813,42.689,19.354,43.987,18.855   C43.987,18.855,42.689,19.354,43.987,18.855z"
   id="path23"
   style="fill:#ffffff" />
	<path
   fill="#CBA145"
   d="M58.314,19.718c0.173,0,0.35-0.031,0.521-0.098l10.622-4.087c1.743-0.673,0.705-3.379-1.04-2.705   l-10.622,4.089C56.337,17.479,56.753,19.718,58.314,19.718C58.488,19.718,57.733,19.718,58.314,19.718z"
   id="path25"
   style="fill:#ffffff" />
</g>
</svg>