<?xml version="1.0" encoding="utf-8"?>
<!-- Generator: Adobe Illustrator 15.1.0, SVG Export Plug-In . SVG Version: 6.00 Build 0)  -->
<!DOCTYPE svg PUBLIC "-//W3C//DTD SVG 1.1//EN" "http://www.w3.org/Graphics/SVG/1.1/DTD/svg11.dtd">
<svg version="1.1" id="Layer_1" xmlns="http://www.w3.org/2000/svg" xmlns:xlink="http://www.w3.org/1999/xlink" x="0px" y="0px"
	 width="128px" height="128px" viewBox="0 0 128 128" enable-background="new 0 0 128 128" xml:space="preserve">
<g>
	<path fill="#CBA145" d="M100.323,92.057c-0.615-0.017-1.245,0.117-1.811,0.355L83.323,98.79c1.629-1.339,2.681-3.349,2.614-5.482
		c-0.064-2.134-1.276-3.988-2.846-5.357c-3.114-2.717-7.381-4.082-11.348-4.946c-2.197-0.48-4.434-0.795-6.678-0.931
		c-2.491-0.151-4.902-0.118-7.352-0.705c-4.208-1.008-8.208-2.716-12.44-3.658c-3.066-0.684-6.191-1.073-9.329-1.203l0.928-4.031
		c1.125-4.892-5.35-6.874-8.879-7.806c-3.059-0.809-6.205-1.275-9.349-1.598c-2.134-0.219-4.276-0.365-6.419-0.461
		c-2.061-0.092-4.164-0.355-5.762,1.23l-0.311,0.308c-0.863,0.856-1.348,2.019-1.348,3.234v44.808c0,1.179,0.457,2.312,1.274,3.16
		l0.873,0.905c0.858,0.89,2.042,1.394,3.278,1.394h12.616c2.121,0,3.96-1.464,4.437-3.529l0.012-0.051
		c7.718,3.97,15.589,7.761,23.747,10.747c3.537,1.294,7.191,2.513,10.937,3.023c2.904,0.395,5.805,0.008,8.654-0.593
		c8.035-1.693,15.831-4.918,23.107-8.67c3.875-1.999,7.649-4.22,11.197-6.757c1.62-1.158,3.194-2.386,4.685-3.705
		c1.514-1.341,2.388-2.816,2.604-4.851c0.359-3.393-1.388-6.448-3.874-8.631C106.061,92.622,103.31,92.089,100.323,92.057
		C100.307,92.057,104.854,92.104,100.323,92.057z M22.847,113.096H10.231l-0.872-0.905V67.383l0.31-0.309
		c16.664,0.467,21.605,3.443,22.768,4.379l-1.01,4.388l-7.608,33.044L22.847,113.096L22.847,113.096z M107.351,104.027
		c-6.158,5.74-13.874,9.922-21.518,13.322c-3.794,1.688-7.686,3.182-11.671,4.349c-3.025,0.887-6.185,1.675-9.352,1.761
		c-2.73,0.074-5.468-0.697-8.052-1.497c-3.599-1.112-7.109-2.509-10.571-3.984c-6.019-2.567-11.919-5.421-17.728-8.432l6.568-28.521
		c4.705,0.132,9.298,0.95,13.786,2.353c4.598,1.437,9.077,3.178,13.969,3.178c4.792,0,9.844,0.884,14.214,2.903
		c1.492,0.69,3.333,1.637,4.144,3.154c0.876,1.636-0.828,2.909-2.151,3.493c-2.227,0.982-4.787,1.256-7.194,1.347
		c-2.77,0.104-5.561-0.045-8.321-0.259c-2.393-0.185-4.779-0.446-7.157-0.771c-0.942-0.129-2.41-0.636-3.363-0.328l-1.786,0.595
		c-0.875,0.291-1.326,1.309-0.948,2.153c0.325,0.725,1.198,1.296,1.835,1.727c1.409,0.95,3.001,1.62,4.604,2.166
		c1.478,0.503,2.993,0.897,4.521,1.217c0.868,0.182,1.832,0.461,2.727,0.461H81.37c0.211,0,0.422-0.039,0.615-0.123l18.29-7.682
		c2.127,0.022,3.84,0.277,5.41,1.753C107.19,99.777,108.332,101.995,107.351,104.027C96.584,114.064,107.66,103.385,107.351,104.027
		z"/>
	<polygon fill="#CBA145" points="94.057,64.438 94.151,64.558 94.245,64.438 94.159,64.438 94.057,64.438 	"/>
	<polygon fill="#CBA145" points="103.339,64.438 103.434,64.558 103.528,64.438 103.432,64.438 103.339,64.438 	"/>
	<path fill="#CBA145" d="M121.476,64.163L115.7,52.969c-0.561-1.088-1.536-1.904-2.707-2.265L74.932,38.987
		c-0.499-1.491-1.144-2.916-1.906-4.264c0.693-0.297,1.317-0.743,1.79-1.342l1.077,1.12c1.984,2.063,5.473,1.754,7.064-0.623
		l0.966-1.44l1.205,1.255c1.982,2.064,5.47,1.76,7.064-0.615l0.941-1.403l1.119,1.188c0.948,1.007,2.333,1.536,3.712,1.416
		l2.541-0.222c1.219-0.106,2.344-0.699,3.121-1.644l7.998-9.729c1.573-1.914,1.327-4.734-0.553-6.347l-9.561-8.201
		c-0.922-0.791-2.149-1.185-3.359-1.08l-36.303,3.163c-0.035,0.003-0.07,0.006-0.106,0.01l-4.434,0.491
		C50.823,3.324,40.272,0.511,30.96,3.69c-9.366,3.197-16.047,12.087-16.516,21.973c-0.21,4.423,0.776,8.884,2.872,12.788
		c1.025,1.911,2.308,3.68,3.799,5.253c1.642,1.731,3.51,3.424,6.08,2.694c-0.118,8.321,4.158,16.358,11.132,20.901
		c8.534,5.56,19.958,5.17,28.09-0.955l8.436,2.597c1.366,0.421,2.884,0.164,4.036-0.683l2.594-1.906l0.565,1.414
		c1.062,2.651,4.407,3.685,6.779,2.08l1.438-0.973l0.644,1.616c1.057,2.651,4.403,3.689,6.778,2.088l1.399-0.945l0.589,1.52
		c0.503,1.299,1.575,2.297,2.907,2.708l2.439,0.75c1.161,0.357,2.441,0.229,3.511-0.351l11.068-6.007
		C121.778,69.07,122.61,66.365,121.476,64.163C121.476,64.163,122.61,66.365,121.476,64.163z M25.95,42.026
		c-6.91-5.917-8.945-16.084-4.817-24.191c3.92-7.697,12.608-12.085,21.135-10.63c5.247,0.895,9.996,3.949,13.025,8.319l6.952-0.77
		l36.303-3.163l9.56,8.2l-7.998,9.729l-2.541,0.222l-5.031-5.345l-4.125,6.143l-5.123-5.337l-4.115,6.141l-5.131-5.335l-2.8,4.549
		c-1.796-2.019-3.903-3.776-6.283-5.197c-3.226-2.264-6.571-2.769-6.571-2.769c-7.674-1.87-15.924-0.198-22.292,4.463
		c-0.454-4.582-6.179-6.692-9.492-3.487c-3.392,3.283-1.285,9.221,3.422,9.626C28.122,35.882,26.778,38.845,25.95,42.026
		C22.119,38.746,26.053,41.628,25.95,42.026z M106.359,72.258l-2.439-0.751l-2.65-6.844l-6.133,4.141l-2.739-6.872l-6.122,4.144
		l-2.75-6.875l-7.334,5.388l-10.803-3.325c-7.222,6.805-18.726,7.214-26.387,0.897c-6.475-5.339-8.924-14.413-6.037-22.287
		c2.925-7.979,10.874-13.342,19.37-13.063c9.081,0.298,16.976,6.921,18.873,15.795l40.446,12.452l5.774,11.193L106.359,72.258
		L106.359,72.258z"/>
	<path fill="#CBA145" d="M45.278,38.902c-3.025-0.93-6.301,0.906-7.095,3.966c-0.743,2.87,0.957,5.904,3.788,6.776
		c3.025,0.93,6.301-0.904,7.094-3.964C49.809,42.809,48.11,39.774,45.278,38.902C44.727,38.732,48.245,39.816,45.278,38.902z"/>
</g>
</svg>
