<?xml version="1.0" encoding="UTF-8" standalone="no"?>
<!-- Generator: Adobe Illustrator 15.1.0, SVG Export Plug-In . SVG Version: 6.00 Build 0)  -->

<svg
   xmlns:dc="http://purl.org/dc/elements/1.1/"
   xmlns:cc="http://creativecommons.org/ns#"
   xmlns:rdf="http://www.w3.org/1999/02/22-rdf-syntax-ns#"
   xmlns:svg="http://www.w3.org/2000/svg"
   xmlns="http://www.w3.org/2000/svg"
   xmlns:sodipodi="http://sodipodi.sourceforge.net/DTD/sodipodi-0.dtd"
   xmlns:inkscape="http://www.inkscape.org/namespaces/inkscape"
   version="1.1"
   id="Layer_1"
   x="0px"
   y="0px"
   width="128px"
   height="128px"
   viewBox="0 0 128 128"
   enable-background="new 0 0 128 128"
   xml:space="preserve"
   sodipodi:docname="Livestock Poutry Insurance.svg"
   inkscape:version="0.92.3 (2405546, 2018-03-11)"><metadata
   id="metadata116"><rdf:RDF><cc:Work
       rdf:about=""><dc:format>image/svg+xml</dc:format><dc:type
         rdf:resource="http://purl.org/dc/dcmitype/StillImage" /></cc:Work></rdf:RDF></metadata><defs
   id="defs114" /><sodipodi:namedview
   pagecolor="#ffffff"
   bordercolor="#666666"
   borderopacity="1"
   objecttolerance="10"
   gridtolerance="10"
   guidetolerance="10"
   inkscape:pageopacity="0"
   inkscape:pageshadow="2"
   inkscape:window-width="736"
   inkscape:window-height="480"
   id="namedview112"
   showgrid="false"
   inkscape:zoom="1.84375"
   inkscape:cx="64"
   inkscape:cy="64"
   inkscape:window-x="0"
   inkscape:window-y="27"
   inkscape:window-maximized="0"
   inkscape:current-layer="Layer_1" />
<g
   id="g109"
   style="fill:#ffffff">
	<path
   fill="#CBA145"
   d="M12.928,77.915c0.243,2.708,0.236,4.696,0.106,6.325c1.359,0.529,2.815,1.24,3.948,2.157   c0.686-0.658,1.948-1.873,1.708-2.955c-0.228-1.03-0.315-2.229,1.075-2.483c0.724-0.13,1.307,0.353,1.936,0.617   c1.049,0.442,2.183,0.688,3.318,0.749c-1.186-1.97-2.194-4.376-3.242-7.047c0,0-1.122-2.546-3.924-4.079   c1.889-0.92,0.634-3.865-1.333-3.133c-0.591-1.989-3.39-2.271-4.365-0.437c-1.87-0.298-2.754,2.341-1.045,3.202   c-1.125,0.692-2.387,1.998-3.374,4.461C9.605,75.175,12.713,75.541,12.928,77.915C13.171,80.623,12.711,75.521,12.928,77.915z"
   id="path91"
   style="fill:#ffffff" />
	<path
   fill="#CBA145"
   d="M63.3,88.36c-0.926,3.075-2.282,5.414-3.625,7.142c-0.203,3.031-2.072,6.224-4.37,8.555   c2.491,0.744,5.383,0.35,7.909-0.021c1.319-5.075,1.021-11.766,0.877-18.303L63.3,88.36C62.374,91.436,63.3,88.36,63.3,88.36z"
   id="path93"
   style="fill:#ffffff" />
	<path
   fill="#CBA145"
   d="M121.138,19.516c-5.095-4.099-9.211-4.694-14.329-4.883c-5.837-0.215-11.671,0.66-17.423,1.535   c-5.715,0.869-11.465,1.896-17.262,1.938c-5.887,0.042-11.657-1.01-17.401-2.185c-3.848-0.788-7.698-1.578-11.604-2.021   c1.721-1.924,3.441-3.848,3.842-7.092c-1.801-1.683-4.563-2.231-6.946-2.285c-2.473-0.056-5.443,0.417-7.239,2.285   c-2.84-1.99-4.598-4.92-8.29-5.493c-3.769-0.584-7.001,1.44-10.329,2.833C11.911,2.878,8.88,2.487,6.348,2.393   C4.151,2.312,0.682,2.485,0.154,5.187c-0.853,4.369,4.179,7.16,6.615,9.896c-0.162,4.992,0.395,10.405-1.893,15.028   c-0.991,2-2.668,3.533-3.76,5.466c-1.134,2.007-1.128,4.288-0.018,6.31c2.208,4.016,7.106,6.358,11.598,5.568   c2.159-0.379,3.901-1.627,5.601-2.933c1.978-1.519,3.88-2.59,6.377-3.02c2.095-0.36,4.044-0.613,5.758-1.972   c1.431-1.134,2.75-2.372,4.708-2.282c4.396,4.472-6.364,7.955-10.345,8.866c0.924,3.617,0.975,7.374,1.184,11.079   c0.193,3.41,0.461,7.059,2.21,10.081c3.906,6.751,13.994,4.661,19.953,2.481c1.446,1.602,2.046,3.631,2.385,5.816l4.652-2.396   l0.895,2.182l6.066-2.839v7.692l1.92-0.73c0.089-3.855,0.455-7.436,1.517-10.316c5.751,1.99,12.04,2.337,18.009,1.22   c2.684-0.503,5.324-1.305,7.802-2.458c2.173-1.013,3.896-2.552,5.775-4.006c1.72-1.33,3.742-2.717,6.026-2.397   c1.444,0.202,2.701,0.953,3.62,2.077c2.163,2.647,2.668,6.49,3.097,9.763c0.365,2.793,0.559,5.612,1.021,8.393   c0.242,1.46,0.558,2.879,1.311,4.173c0.866,1.484,1.775,2.604,1.954,4.367c0.199,1.933,0.133,3.909-0.057,5.839   c-0.091,0.938-0.275,1.817-0.58,2.71c-0.318,0.935-0.735,1.914-0.687,2.922c0.197,4.049,7.629,2.529,10.043,2.271   c0.918-6.472,0.606-13.023,0.676-19.537c0.035-3.186,0.149-6.374,0.603-9.532c0.417-2.91,1.063-5.778,1.704-8.644   c0.607-2.714,1.214-5.435,1.544-8.198c0.328-2.738,0.389-5.522,0.499-8.275c0.213-5.323,0.293-10.704-0.443-15.994   C126.771,28.65,125.154,23.159,121.138,19.516C117.024,15.784,121.138,19.516,121.138,19.516z M122.661,55.59   c-0.282,5.099-1.823,10.058-2.791,15.049c-1.054,5.432-1.28,10.883-1.28,16.402c-0.451-1.238-1.208-2.286-1.901-3.394   c-0.676-1.083-0.809-2.4-0.983-3.643c-0.315-2.254-0.5-4.523-0.791-6.779c-0.474-3.689-1.151-7.512-2.938-10.82   c-1.828-3.378-4.89-5.586-8.76-5.897c-2.652-0.211-5.157,0.767-7.341,2.199c-2.056,1.347-3.794,3.3-5.992,4.406   c-4.867,2.448-10.618,3.284-16.014,2.771c-1.32-0.126-2.633-0.34-3.925-0.643c-1.33-0.313-2.673-0.966-4.04-1.056   c-2.355-0.155-4.34,1.359-5.105,3.528c-0.263,0.074-0.522,0.17-0.773,0.287L57.9,68.997c-1.33-0.866-3.034-1.046-4.516-0.473   c-0.729-1.245-1.654-2.534-2.966-3.206c-1.592-0.815-3.109-0.535-4.726,0.013c-3.106,1.055-6.638,1.86-9.93,1.341   c-1.346-0.213-2.585-0.71-3.281-1.941c-0.715-1.264-1.007-2.741-1.203-4.165c-0.495-3.607-0.4-7.271-0.806-10.89   c3.859-1.339,8.457-3.484,10.126-7.504c1.765-4.248-1.082-10.084-6.028-9.91c-2.082,0.073-4.005,0.866-5.666,2.096   c-0.662,0.491-1.257,1.083-1.942,1.538c-0.888,0.591-2.328,0.546-3.354,0.73c-2.546,0.456-4.852,1.405-6.962,2.904   c-1.656,1.175-3.334,3.049-5.506,3.075l-0.152,0.001c-1.647,0-2.964-0.541-4.211-1.606c-0.854-0.73-1.977-1.833-1.303-3.001   c0.805-1.397,1.972-2.577,2.858-3.925c1.173-1.784,1.984-3.787,2.502-5.854c0.974-3.888,0.8-7.93,0.889-11.904   c0.048-2.152-0.292-3.705-1.902-5.234C8.526,9.848,7.117,8.737,5.951,7.37C7.56,7.403,9.188,7.682,10.73,8.138   c1.288,0.38,2.345,1.079,3.754,0.986c3.408-0.223,6.462-4.004,10.049-2.667c1.39,0.519,2.45,1.923,3.51,2.902   c1.257,1.162,2.618,2.307,4.399,2.425c1.662,0.11,2.735-0.626,3.987-1.57c1.005-0.758,2.713-0.761,3.893-0.688   c-0.843,0.997-1.72,1.866-2.044,3.175c-0.311,1.255-0.115,2.607,0.539,3.723c1.464,2.496,4.194,2.441,6.735,2.836   c5.831,0.906,11.551,2.408,17.399,3.207c6.138,0.837,12.222,0.709,18.356-0.075c6.282-0.805,12.514-2.032,18.828-2.569   c4.699-0.4,9.889-0.601,14.321,1.287c3.39,1.442,5.549,4.213,6.761,7.628c1.437,4.047,1.763,8.459,1.858,12.721   C123.184,46.172,122.922,50.886,122.661,55.59C122.488,58.719,123.318,43.729,122.661,55.59z"
   id="path95"
   style="fill:#ffffff" />
	<path
   fill="#CBA145"
   d="M106.362,77.734c-0.197-4.924-1.417-8.826-3.545-11.82c-4.742,2.449-8.291,6.093-13.892,7.684   c1.415,2.512,4.264,3.974,6.952,4.7C99.287,79.222,103.094,79.141,106.362,77.734C106.165,72.811,104.508,78.532,106.362,77.734z    M100.689,73.079c0.071,0.269,0.139,0.542,0.199,0.822c-0.465,0.019-0.931,0.01-1.396-0.023   C99.9,73.609,100.298,73.342,100.689,73.079C100.761,73.348,100.298,73.342,100.689,73.079z"
   id="path97"
   style="fill:#ffffff" />
	<path
   fill="#CBA145"
   d="M109.614,89.556c-0.783-2.593-3.401-4.05-2.662-7.389c-0.196,0-0.394,0-0.59,0   c-2.424,1.003-5.081,1.285-7.684,1.183c-0.188,2.545,2.113,4.239,2.532,6.678c0.465,2.708-0.108,5.524-0.583,8.192   c-0.292,1.624-1.223,4.512,0.276,5.807c0.835,0.721,2.081,0.837,3.137,0.891c1.759,0.091,3.517-0.067,5.276,0.008   C107.521,99.596,111.028,94.233,109.614,89.556C108.831,86.963,111.028,94.233,109.614,89.556z"
   id="path99"
   style="fill:#ffffff" />
	<path
   fill="#CBA145"
   d="M52.754,95.229c0,0,3.917-2.152,5.771-8.307c0,0-2.819,1.075-3.968,1.15c0,0,2.596-2.894,2.596-7.714   c0,0-3.485,1.632-4.377,3.264c0,0,0.445-2.077-0.148-3.523c-4.221,2.21-7.874,6.748-12.978,6.748   c-3.689,2.343-8.835,2.623-12.191-0.439c-1.916,0.267-3.886,0.12-5.738-0.44c-0.555,1.86-2.016,3.407-3.505,4.589   c-0.714,0.567-1.634,0.892-2.407,0.186c-1.036-0.945-1.919-1.665-3.239-2.239c-0.983,5.06-1.55,9.918,0.928,14.641   c2.661,5.072,7.64,8.393,13.1,9.81c6.716,1.545,16.102,1.148,20.295-5.215c0.238-1.928,0.999-4.138,2.577-5.366   c2.275-1.77,5.236-4.186,5.236-7.412C54.098,95.127,53.389,95.323,52.754,95.229C52.754,95.229,52.833,95.239,52.754,95.229z    M50.294,90.886c-2.298,1.137-3.287,4.006-2.247,6.343c-0.738,0.706-1.671,1.16-2.412,1.877c-0.662,0.638-1.23,1.371-1.708,2.156   c-0.828,1.362-1.392,2.879-1.736,4.433c-3.294,3.703-10.017,3.383-14.402,2.415c-7.57-1.992-11.071-7.558-11.159-11.969   c3.207,0.109,5.816-2.29,7.678-4.661c0.545,0.039,1.092,0.051,1.638,0.042c4.568,2.952,10.405,2.614,15.137,0.232   c3.444-0.382,6.36-2.07,8.393-3.506c0.029,0.925,0.318,1.857,0.833,2.627C50.304,90.879,50.299,90.883,50.294,90.886   C48.353,91.845,50.299,90.883,50.294,90.886z"
   id="path101"
   style="fill:#ffffff" />
	<path
   fill="#CBA145"
   d="M38.373,116.383c-3.836,0.715-7.862,0.574-11.687-0.151c-2.189,1.88-2.505,5.646-1.176,8.121   c1.517,2.821,4.917,3.129,7.78,3.02c2.679-0.103,6.892-0.37,8.478-2.963C43.527,121.533,40.743,117.848,38.373,116.383   C36.761,116.683,40.683,117.812,38.373,116.383z"
   id="path103"
   style="fill:#ffffff" />
	<path
   fill="#CBA145"
   d="M18.18,112.725c-3.292,0.876-6.601,3.907-5.326,7.609c1.284,3.726,5.913,5.093,9.461,4.646   c-1.253-3.096-0.983-6.972,0.976-9.724C21.398,114.568,19.696,113.711,18.18,112.725C14.922,113.591,19.696,113.711,18.18,112.725z   "
   id="path105"
   style="fill:#ffffff" />
	<path
   fill="#CBA145"
   d="M47.052,112.378c-1.381,1.227-3.01,2.207-4.87,2.932c1.596,1.55,2.687,3.481,3.076,5.634   c2.099-0.294,4.711-1.377,5.374-3.606C51.349,114.922,49.079,113.086,47.052,112.378C45.671,113.604,49.259,113.149,47.052,112.378   z"
   id="path107"
   style="fill:#ffffff" />
</g>
</svg>