<?xml version="1.0" encoding="UTF-8" standalone="no"?>
<!-- Generator: Adobe Illustrator 15.1.0, SVG Export Plug-In . SVG Version: 6.00 Build 0)  -->

<svg
   xmlns:dc="http://purl.org/dc/elements/1.1/"
   xmlns:cc="http://creativecommons.org/ns#"
   xmlns:rdf="http://www.w3.org/1999/02/22-rdf-syntax-ns#"
   xmlns:svg="http://www.w3.org/2000/svg"
   xmlns="http://www.w3.org/2000/svg"
   xmlns:sodipodi="http://sodipodi.sourceforge.net/DTD/sodipodi-0.dtd"
   xmlns:inkscape="http://www.inkscape.org/namespaces/inkscape"
   version="1.1"
   id="Layer_1"
   x="0px"
   y="0px"
   width="128px"
   height="128px"
   viewBox="0 0 128 128"
   enable-background="new 0 0 128 128"
   xml:space="preserve"
   sodipodi:docname="Personal Insurance (copy).svg"
   inkscape:version="0.92.3 (2405546, 2018-03-11)"><metadata
   id="metadata843"><rdf:RDF><cc:Work
       rdf:about=""><dc:format>image/svg+xml</dc:format><dc:type
         rdf:resource="http://purl.org/dc/dcmitype/StillImage" /></cc:Work></rdf:RDF></metadata><defs
   id="defs841" /><sodipodi:namedview
   pagecolor="#ffffff"
   bordercolor="#666666"
   borderopacity="1"
   objecttolerance="10"
   gridtolerance="10"
   guidetolerance="10"
   inkscape:pageopacity="0"
   inkscape:pageshadow="2"
   inkscape:window-width="736"
   inkscape:window-height="480"
   id="namedview839"
   showgrid="false"
   inkscape:zoom="1.84375"
   inkscape:cx="64"
   inkscape:cy="64"
   inkscape:window-x="0"
   inkscape:window-y="27"
   inkscape:window-maximized="0"
   inkscape:current-layer="Layer_1" />
<path
   fill="#CBA145"
   d="M127.758,107.635c-0.111-3.524,0.143-6.979-1.067-10.37c-0.979-2.69-3.071-6.222-6.297-6.287  c-0.081-2.218-0.332-4.433-0.753-6.612c-0.355-1.836-0.806-3.584-2.549-4.586c-0.9-0.52-1.824-0.586-2.837-0.641  c-1.13-0.061-2.256-0.192-3.367-0.405c-1.828-0.353-3.619-0.924-5.288-1.755c-1.055-0.526-2.064-1.154-2.978-1.901  c-1.434-1.173-2.86-2.052-4.805-1.568c-1.504,0.374-2.526,1.633-3.785,2.458c-1.741,1.143-3.695,1.945-5.709,2.461  c-0.221-1.441-1.109-2.733-2.466-3.424l-0.169-0.087l-0.038-0.019c-0.268-2.044-1.429-3.897-3.246-4.909  c2.255-2.482,3.376-5.583,3.91-8.855c3.301-1.775,3.73-6.103,4.317-9.403c0.602-3.383,1.655-6.741-0.575-9.835  c0-0.001,0-0.002,0-0.003c0.294-1.654,0.904-3.259,1.2-4.925c0.323-1.819,0.569-3.672,0.745-5.512  c0.31-3.246,0.103-6.505-0.375-9.725c-0.797-5.373-3.471-10.288-9.232-11.392c-1.867-2.814-5.302-4.468-8.512-5.191l-0.551-0.125  c-3.132-0.71-6.287-1.335-9.516-1.048c-2.073-0.094-4.086-0.095-6.127,0.364l-3.356,0.755c-3.286,0.739-6.745,2.342-8.717,5.186  c-4.391,0.743-7.379,4.266-8.609,8.363c-0.383,1.278-0.607,2.589-0.771,3.911c-0.396,3.176-0.622,6.376-0.193,9.563l0.497,3.713  c0.143,1.056,0.365,2.099,0.6,3.138c0.183,0.81,0.572,1.584,0.72,2.398l0.038,0.292c0.009,0.066,0.021,0.132,0.027,0.199  c-2.039,2.969-1.302,6.258-0.653,9.515c0.683,3.422,1.065,7.794,4.39,9.765c0.505,3.245,1.649,6.384,3.867,8.863  c-2.563,1.525-2.983,3.87-3.163,4.876c0,0.002,0,0.004-0.001,0.006c-4.875,2.457-9.683,5.146-14.766,7.157  c-4.646,1.838-9.411,3.371-14.118,5.041c-3.5,1.241-7.06,2.828-9.583,5.646c-3.382,3.781-3.683,8.964-3.669,13.793l0.001,0.7  c0,1.961,0.043,3.845,1.156,5.556c1.331,2.045,3.646,3.128,6.054,3.128h25.756h29.35h16.503h3.752c1.054,0,2.054-0.361,2.855-0.99  c1.742,1.891,3.724,3.553,5.86,4.98c1.123,0.75,2.288,1.436,3.484,2.06c1.227,0.641,2.516,1.402,3.938,1.402  c1.421,0,2.71-0.762,3.937-1.401c1.196-0.625,2.361-1.31,3.483-2.06c2.138-1.429,4.12-3.091,5.863-4.982  c0.801,0.63,1.8,0.991,2.855,0.991h5.562c2.153,0,4.243-0.932,5.594-2.626C127.53,111.646,127.82,109.656,127.758,107.635  C127.754,107.492,127.795,108.833,127.758,107.635z M79.047,111.282c-12.228,0-24.454,0-36.681,0c-6.124,0-12.247,0-18.371,0  c-3.065,0-6.132,0-9.198,0c-1.471,0-2.943,0-4.415,0c-1.299,0-3.094,0.33-4.291-0.281c-1.045-0.533-1.266-1.659-1.262-2.73  c0.006-1.384-0.003-2.772,0.035-4.156c0.068-2.489,0.344-5.244,1.76-7.37c2.206-3.317,6.441-4.662,10.026-5.871  c4.938-1.663,9.937-3.331,14.721-5.396c2.706-1.167,5.327-2.537,7.954-3.87c1.281-0.651,2.562-1.305,3.843-1.956  c1.19-0.604,2.422-1.08,3.152-2.264c0.843-1.364,0.368-3.244,2.302-3.705c0.811-0.193,1.658-0.18,2.238-0.877  c0.561-0.675,0.541-1.563,0.522-2.393c-0.012-0.563-0.053-1.156-0.256-1.688c-0.279-0.73-0.98-0.747-1.537-1.201  c-1.496-1.22-2.413-3.162-2.918-4.982c-0.245-0.89-0.41-1.8-0.534-2.714c-0.081-0.601,0.01-1.446-0.367-1.959  c-0.427-0.583-1.343-0.391-1.905-0.811c-0.645-0.481-0.876-1.345-1.091-2.077c-0.593-2.019-0.883-4.125-1.338-6.178  c-0.383-1.728-0.575-3.65,0.856-4.967c0.504-0.504,0.274-2.116,0.19-2.733c-0.192-1.424-0.768-2.765-1.063-4.172  c-0.58-2.772-1.007-5.75-0.999-8.584c0.008-2.528,0.233-5.169,0.813-7.635c0.449-1.912,1.293-3.828,2.968-4.967  c0.872-0.594,1.813-0.86,2.846-1.003c0.499-0.07,1.016-0.151,1.459-0.405c0.599-0.344,0.536-0.879,0.889-1.397  c1.443-2.121,4.262-2.957,6.622-3.487c1.316-0.296,2.637-0.661,3.979-0.825c1.397-0.171,2.784,0.087,4.163-0.042  c2.954-0.275,5.849,0.428,8.708,1.072c1.886,0.425,4.945,1.48,5.783,3.441c0.241,0.561,0.313,0.995,0.918,1.273  c0.545,0.251,1.149,0.356,1.733,0.465c1.264,0.234,2.372,0.676,3.307,1.58c1.482,1.434,2.046,3.505,2.369,5.479  c0.435,2.662,0.661,5.378,0.504,8.073c-0.17,2.919-0.602,5.924-1.334,8.755c-0.34,1.315-0.785,2.499-0.676,3.878  c0.031,0.404-0.041,0.984,0.222,1.319c0.334,0.426,0.697,0.715,0.907,1.234c0.431,1.069,0.255,2.263,0.015,3.354  c-0.275,1.25-0.547,2.486-0.757,3.75c-0.198,1.204-0.416,2.422-0.888,3.553c-0.19,0.456-0.396,1.001-0.851,1.254  c-0.429,0.238-0.937,0.236-1.395,0.393c-1.067,0.366-0.817,1.951-0.961,2.857c-0.187,1.183-0.446,2.358-0.879,3.478  c-0.427,1.107-1.026,2.152-1.84,3.021c-0.863,0.922-2.054,1.224-2.334,2.55c-0.22,1.049-0.328,2.494,0.367,3.392  c0.696,0.898,1.714,0.796,2.69,1.104c1.298,0.411,1.142,1.56,1.469,2.618c0.396,1.284,1.377,2.059,2.524,2.643  c-0.27,0.017-0.536,0.036-0.815,0.044l-3.528,0.104l-0.826,3.432c-2.298,9.555-1.326,20.282,4.205,28.58  C81.549,111.282,80.297,111.282,79.047,111.282C73.544,111.282,80.297,111.282,79.047,111.282z M98.937,118.735  c-6.285-2.857-11.615-7.52-14.429-13.91c-2.869-6.514-3.081-14.179-1.423-21.041c0.261-0.007,0.522-0.023,0.783-0.04l0.174-0.011  c5.359-0.383,10.877-2.017,14.895-5.742c1.998,1.851,7.047,5.532,15.854,5.793c1.574,6.563,1.46,13.833-1.049,20.148  C111.031,110.75,105.535,115.736,98.937,118.735 M122.676,110.322c-0.752,1.024-1.942,0.96-3.082,0.96c-1.506,0-3.013,0-4.519,0  c3.119-4.663,4.79-10.125,5.227-15.694c1.903,1.974,2.62,4.537,2.784,7.218c0.084,1.357,0.049,2.717,0.044,4.075  C123.125,107.99,123.381,109.362,122.676,110.322C122.188,110.986,123.311,109.458,122.676,110.322z"
   id="path836"
   style="fill:#ffffff" />
</svg>