<?xml version="1.0" encoding="UTF-8" standalone="no"?>
<svg
   xmlns:dc="http://purl.org/dc/elements/1.1/"
   xmlns:cc="http://creativecommons.org/ns#"
   xmlns:rdf="http://www.w3.org/1999/02/22-rdf-syntax-ns#"
   xmlns:svg="http://www.w3.org/2000/svg"
   xmlns="http://www.w3.org/2000/svg"
   xmlns:sodipodi="http://sodipodi.sourceforge.net/DTD/sodipodi-0.dtd"
   xmlns:inkscape="http://www.inkscape.org/namespaces/inkscape"
   version="1.1"
   x="0px"
   y="0px"
   viewBox="0 0 64 80"
   style="enable-background:new 0 0 64 64;"
   xml:space="preserve"
   id="svg38"
   sodipodi:docname="personal insurance_2.svg"
   inkscape:version="0.92.3 (2405546, 2018-03-11)"><metadata
     id="metadata44"><rdf:RDF><cc:Work
         rdf:about=""><dc:format>image/svg+xml</dc:format><dc:type
           rdf:resource="http://purl.org/dc/dcmitype/StillImage" /></cc:Work></rdf:RDF></metadata><defs
     id="defs42" /><sodipodi:namedview
     pagecolor="#ffffff"
     bordercolor="#666666"
     borderopacity="1"
     objecttolerance="10"
     gridtolerance="10"
     guidetolerance="10"
     inkscape:pageopacity="0"
     inkscape:pageshadow="2"
     inkscape:window-width="1366"
     inkscape:window-height="664"
     id="namedview40"
     showgrid="false"
     inkscape:zoom="2.95"
     inkscape:cx="-27.152542"
     inkscape:cy="40"
     inkscape:window-x="0"
     inkscape:window-y="27"
     inkscape:window-maximized="1"
     inkscape:current-layer="svg38" /><style
     type="text/css"
     id="style2">
	.st0{display:none;}
	.st1{display:inline;}
	.st2{fill:none;stroke:#B3B3B3;stroke-width:0.1;stroke-miterlimit:10;}
</style><g
     class="st0"
     id="g28"><g
       class="st1"
       id="g26"><rect
         x="2"
         y="2"
         class="st2"
         width="60"
         height="60"
         id="rect4" /><line
         class="st2"
         x1="32"
         y1="2"
         x2="32"
         y2="62"
         id="line6" /><line
         class="st2"
         x1="62"
         y1="32"
         x2="2"
         y2="32"
         id="line8" /><line
         class="st2"
         x1="2"
         y1="2"
         x2="62"
         y2="62"
         id="line10" /><rect
         x="10"
         y="10"
         class="st2"
         width="44"
         height="44"
         id="rect12" /><line
         class="st2"
         x1="62"
         y1="2"
         x2="2"
         y2="62"
         id="line14" /><line
         class="st2"
         x1="2"
         y1="32"
         x2="32"
         y2="2"
         id="line16" /><line
         class="st2"
         x1="32"
         y1="2"
         x2="62"
         y2="32"
         id="line18" /><line
         class="st2"
         x1="62"
         y1="32"
         x2="32"
         y2="62"
         id="line20" /><line
         class="st2"
         x1="32"
         y1="62"
         x2="2"
         y2="32"
         id="line22" /><circle
         class="st2"
         cx="32"
         cy="32"
         r="21"
         id="circle24" /></g></g><path
     d="M7.6,60c-0.9,0-1.7-0.4-2.3-1c-0.6-0.7-0.8-1.5-0.7-2.4l1.7-11.2c0.3-2.1,1.9-3.7,4-4.2l10.2-2.1L29,54l8.5-14.9l1.9,0.4  c1.1-0.4,2.2-0.8,3.3-1.4l-4.9-1c-0.8-2.3-1-4.7-0.8-6.9c1.8-2.3,2.9-5.1,2.9-8.2v-3.6c1.8-1.7,2.9-4,2.8-6.4  c-0.1-2-0.9-3.8-2.2-4.8C37.1,4.6,33.2,2.8,29.1,2c-4.6-0.9-7.6,2.1-8.8,4.1c-1.8,0.3-3.1,1-3.9,2.2c-0.9,1.3-1,3.1-0.4,5  c0.8,2.3,1.8,5.2,2,5.9V22c0,3,1.1,6,3,8.3c0.3,2.2,0,4.5-0.8,6.8L9.9,39.2C7,39.8,4.8,42.1,4.4,45L2.7,56.3c-0.2,1.4,0.2,2.9,1.2,4  c1,1.1,2.3,1.7,3.8,1.7h38.9c-0.8-0.5-1.6-1.2-2.4-2H7.6z M22.1,37.8c0.6-1.8,0.9-3.6,1-5.4l1,1c0.9,1,2.2,1.5,3.5,1.5h2.7  c1.4,0,2.6-0.5,3.5-1.5l1.1-1.1c0,1.8,0.4,3.6,1,5.4L29,50L22.1,37.8z M20,19.2l2.5-6.2c1.7,0,3.9,0.4,4.5,1.5  c0.9,1.6,3.3,3.5,6.9,3.5v-2c-2.6,0-4.4-1.3-5.1-2.5c-1.5-2.7-6.4-2.5-6.9-2.5h-0.6l-2.2,5.3c-0.4-1.1-0.8-2.4-1.2-3.6  c-0.2-0.8-0.5-2.2,0.2-3.3c0.5-0.8,1.5-1.3,3-1.4l0.6-0.1l0.2-0.5c0.1-0.1,1.8-3.6,5.6-3.6c0.4,0,0.8,0.1,1.2,0.2  c3.8,0.8,7.4,2.4,10.6,4.8c0.8,0.6,1.4,1.9,1.4,3.3c0.1,1.9-0.8,3.8-2.4,5.1l-0.4,0.3V22c0,3-1.1,5.7-3.2,7.8l-2.3,2.3  c-0.5,0.6-1.3,0.9-2.1,0.9h-2.7c-0.8,0-1.5-0.3-2.1-0.9l-2.3-2.3c-2-2.1-3.2-4.9-3.2-7.8V19.2z"
     id="path30"
     style="fill:#cba145;fill-opacity:1" /><path
     d="M50,36c-4,3-8.6,5.2-12,6c0,13.1,12,20,12,20s12-6.9,12-20C58.6,41.2,53.9,39,50,36z M50.1,59.6c-2.6-1.8-9.2-7.4-9.9-16.1  c3.1-1,6.6-2.8,9.8-5c3.4,2.5,7.1,4.1,10,5C59.3,52.2,52.6,57.8,50.1,59.6z"
     id="path32"
     style="fill:#cba145;fill-opacity:1" /></svg>