<?xml version="1.0" encoding="UTF-8" standalone="no"?>
<!-- Generator: Adobe Illustrator 15.1.0, SVG Export Plug-In . SVG Version: 6.00 Build 0)  -->

<svg
   xmlns:dc="http://purl.org/dc/elements/1.1/"
   xmlns:cc="http://creativecommons.org/ns#"
   xmlns:rdf="http://www.w3.org/1999/02/22-rdf-syntax-ns#"
   xmlns:svg="http://www.w3.org/2000/svg"
   xmlns="http://www.w3.org/2000/svg"
   xmlns:sodipodi="http://sodipodi.sourceforge.net/DTD/sodipodi-0.dtd"
   xmlns:inkscape="http://www.inkscape.org/namespaces/inkscape"
   version="1.1"
   id="Layer_1"
   x="0px"
   y="0px"
   width="128px"
   height="128px"
   viewBox="0 0 128 128"
   enable-background="new 0 0 128 128"
   xml:space="preserve"
   sodipodi:docname="Travel (copy).svg"
   inkscape:version="0.92.3 (2405546, 2018-03-11)"><metadata
   id="metadata69"><rdf:RDF><cc:Work
       rdf:about=""><dc:format>image/svg+xml</dc:format><dc:type
         rdf:resource="http://purl.org/dc/dcmitype/StillImage" /></cc:Work></rdf:RDF></metadata><defs
   id="defs67" /><sodipodi:namedview
   pagecolor="#ffffff"
   bordercolor="#666666"
   borderopacity="1"
   objecttolerance="10"
   gridtolerance="10"
   guidetolerance="10"
   inkscape:pageopacity="0"
   inkscape:pageshadow="2"
   inkscape:window-width="640"
   inkscape:window-height="480"
   id="namedview65"
   showgrid="false"
   inkscape:zoom="1.84375"
   inkscape:cx="64"
   inkscape:cy="64"
   inkscape:window-x="0"
   inkscape:window-y="27"
   inkscape:window-maximized="0"
   inkscape:current-layer="Layer_1" />
<g
   id="g62"
   style="fill:#ffffff">
	<path
   fill="#CBA145"
   d="M124.044,65.745c-0.42-0.602-0.867-1.183-1.34-1.742c-0.265-0.313-1.234-1.058-1.29-1.414   c-0.09-0.575,0.129-1.329,0.182-1.913c0.077-0.863,0.137-1.729,0.175-2.594c0.109-2.517,0.037-5.042-0.203-7.55   c-0.429-4.506-1.413-8.956-2.929-13.222c-2.946-8.292-7.896-15.831-14.304-21.859C91.067,2.968,72.095-2.264,54.304,1.696   c-17.361,3.864-32.145,16.256-39.06,32.632c-1.997,4.729-3.326,9.735-3.939,14.831c-0.328,2.724-0.454,5.473-0.378,8.215   c0.049,1.774,0.184,3.546,0.402,5.308c0.108,0.869,0.237,1.736,0.387,2.6c0.084,0.49,0.176,0.979,0.273,1.468   c0.333-0.009,0.654-0.014,0.988,0c-4.255,0.136-10.409,2.054-10.477,7.209c-0.032,2.425,1.892,4.966,3.04,7.027   c1.443,2.592,2.887,5.185,4.33,7.776c0.162,0.292,0.325,0.584,0.487,0.875c0.027,0.05,0.055,0.099,0.082,0.148   c0.095,0.169-0.623,1.794-0.687,2.105c-0.443,2.197-0.052,4.621,1.363,6.4c2.933,3.69,8.32,4.08,12.671,4.099   c2.647,0.012,5.293-0.169,7.926-0.433c0.737-0.073,1.474-0.154,2.21-0.241c0.383-0.045,0.766-0.092,1.148-0.14   c0.265,0.181,0.534,0.355,0.806,0.526c1.246,0.784,2.547,1.479,3.868,2.127c1.255,0.615,2.529,1.188,3.813,1.736   c0.622,0.266,1.246,0.526,1.872,0.784c0.302,0.124,0.604,0.247,0.907,0.37c0.505,0.205,0.171,0.784,0.082,1.259   c-0.444,2.366-0.884,4.732-1.303,7.103c-0.305,1.719-0.688,3.467-0.809,5.212c-0.202,2.945,1.603,5.839,4.476,6.676   c1.127,0.328,2.308,0.222,3.465,0.202c1.292-0.021,2.583-0.043,3.875-0.064c3.605-0.061,6.212-2.246,8.137-5.076   c1.6-2.351,3.198-4.701,4.798-7.052c0.762-1.118,1.522-2.236,2.283-3.355c0.197-0.29,0.395-0.579,0.592-0.869   c0.298-0.438,1.141-0.294,1.627-0.357c4.896-0.637,9.702-1.935,14.253-3.849c8.881-3.735,16.722-9.81,22.583-17.454   c1.521-1.986,2.91-4.074,4.151-6.247c0.288-0.503,0.567-1.011,0.839-1.523c0.136-0.256,0.27-0.514,0.402-0.772   c0.264-0.517,0.418-0.582,0.957-0.815c1.256-0.545,2.529-1.112,3.679-1.861C124.526,75.599,127.358,70.198,124.044,65.745z    M116.226,49.862c0.23,0.369,0.461,0.738,0.691,1.108c0.161,0.257,0.608,0.033,0.833,0.325c0.038,0.431,0.075,0.862,0.104,1.294   c0.029,0.446-0.063,0.34-0.453,0.405c-0.138,0.024-0.39-0.94-0.449-1.109c-0.128,0.106-0.256,0.214-0.384,0.32   c-0.332-0.743-0.664-1.486-0.997-2.229C115.788,49.938,116.007,49.9,116.226,49.862z M115.76,57.684   c0.41-0.227,0.821-0.515,1.255-0.693c0.205-0.085,0.438-0.129,0.65-0.191c0.164-0.049,0.08-0.348,0.281-0.43   c-0.011,1.096-0.066,2.189-0.148,3.282c-0.951-0.69-2.012-1.244-3.076-1.739C114.924,57.612,115.432,57.707,115.76,57.684z    M110.438,42.049c-0.155,0.307-0.339,0.409-0.048,0.615c0.343,0.243,0.686,0.486,1.027,0.729c0.195,0.14,0.557,0.185,0.627,0.516   c0.059,0.276-0.183,0.69-0.488,0.696c-0.268,0.005-0.768,0.12-1.007,0.003c-0.296-0.146-0.642-0.399-0.963-0.472   c-0.327-0.074-0.751,0-1.086,0c-0.284,0-0.366,0.467-0.612,0.453c-0.56-0.032-0.34,0.104-0.743,0.3   c-0.109,0.053-0.728,0.406-0.866,0.223c-0.335-0.442,0.527-0.368,0.548-0.402c0.118-0.195-0.313-0.568-0.413-0.811   c-0.144-0.347,0.206-0.467,0.275-0.743c0.022-0.09,0.01-0.386,0.045-0.449c0.062-0.113,0.254-0.023,0.327-0.193   c0.054-0.125,0.009-0.278,0.102-0.369c0.106-0.103,0.274-0.209,0.315-0.355c0.104-0.365,0.693-0.304,0.49,0.095   c0.294-0.013,0.635-0.163,0.664,0.2c-0.089,0.005-0.182,0.058-0.27,0.052c0.28,0.308,0.184,0.497,0.619,0.543   c0.165,0.018,0.789-0.441,0.782-0.543c-0.606,0.07-0.595,0.12-0.81-0.447c0.71-0.199,1.084-0.55,1.808-0.55   C110.503,41.465,110.282,41.618,110.438,42.049z M66.362,4.232c0.268,0,0.725-0.099,0.911,0.144c-0.35,0.423-0.763,0.11-1.15-0.138   C66.202,4.236,66.282,4.234,66.362,4.232z M39.214,11.976c1.585-0.984,3.223-1.883,4.904-2.688   c6.616-3.173,13.896-4.886,21.23-5.026c-0.204,0.344,0.358,0.522,0.343,0.926c-0.149-0.024-0.32,0.015-0.466-0.024   c0.073,0.142,0.345,0.852,0.483,0.819c0.513-0.12,0.562-0.054,1.015,0.229c0.453,0.282,1.549,0.991,1.656,1.513   c0.031,0.15-0.199,0.475-0.282,0.579c-0.147,0.186-0.04,0.459-0.007,0.68c0.061,0.398-0.032,0.607-0.162,0.998   c-0.118,0.36-0.86,2.045-0.649,2.381c0.159,0.253,0.521,0.604,0.448,0.908c-0.096,0.399-0.172,0.806-0.312,1.192   c-0.241,0.67-0.81,1.523-1.583,1.296c-0.302-0.09-1.24,1.282-1.329,1.583c-0.117,0.397-0.188,0.685-0.195,1.094   c-0.01,0.623-0.077,0.618,0.518,0.796c-0.193,0.548-0.782,0.423-0.799,1.055c-0.007,0.237,0.128,0.537,0.184,0.77   c0.055,0.229-0.1,0.589-0.146,0.819c-0.035,0.174,0.207,0.342,0.218,0.525c0.02,0.363-0.035,0.369,0.324,0.395   c0.862,0.061,0.885,0.11,0.327,0.776c0.408,0.236,0.763,0.696,1.099,0.293c0.389-0.468,0.776-0.936,1.165-1.403   c0.339-0.408,0.847-0.743,1.249-1.088c0.258-0.22,0.798-0.942,1.064-0.9c1.053,0.168,2.067,0.007,2.938-0.593   c0.264-0.182,0.921-0.605,1.237-0.541c0.529,0.106,1.084,0.3,1.625,0.258c0.496-0.038,0.971-0.021,1.428-0.218   c0.441-0.19,1.305-0.368,1.645-0.708c0.32-0.32,0.35-1.05,0.391-1.466c0.061-0.637,0.4-1.022,0.75-1.56   c0.097-0.148,0.527,0.121,0.655,0.027c0.094-0.068,0.121-0.416,0.183-0.547c0.252-0.53,0.4-1.061,0.877-1.407   c0.156-0.114,0.154-0.513,0.189-0.693c0.072-0.354,0.046-0.31-0.28-0.485c-0.202-0.109-0.249-0.413-0.04-0.607   c0.031-0.029,0.645-0.144,0.754-0.2c0.086,0.306,0.086,0.617,0.463,0.674c0.058-0.215,0.115-0.43,0.172-0.646   c0.076-0.282-0.186-0.142-0.199-0.347c-0.037-0.564,0.173-0.867,0.553-1.219c0.335-0.311,0.199-0.849,0.458-1.192   c0.235-0.313,0.832-0.551,1.162-0.77c-0.257-0.336,0.003-0.342,0.308-0.317c0.129,0.01,0.158-0.18,0.249-0.174   c0.396,0.154,0.788,0.313,1.179,0.477c1.461,0.611,2.893,1.289,4.291,2.032c2.682,1.426,5.238,3.089,7.631,4.963   c4.771,3.736,8.879,8.31,12.079,13.455c-0.378-0.344-0.513-0.005-0.759,0.283c-0.422,0.497-0.414,0.433,0.032,0.919   c-0.385,0.377-0.974-0.119-1.359-0.298c-0.005,0.134-0.091,0.513,0.038,0.57c0.164,0.072,0.627,0.165,0.539,0.442   c-0.16,0.503-1.161-0.067-1.285-0.345c-0.201-0.456-0.18-1.012-0.611-1.272c-0.669-0.403-0.732-0.66,0.113-0.472   c0.949,0.211,2.275,0.978,2.402-0.516c0.034-0.397-0.809-0.68-1.066-0.819c-0.574-0.312-0.754-0.626-1.416-0.584   c-0.482,0.03-0.807-0.108-1.32-0.171c-0.141-0.017-0.556,0.014-0.598-0.141c-0.102-0.383,0.362-0.192,0.328-0.438   c-0.055-0.381-0.055-0.356-0.426-0.468c-0.15-0.045-0.45-0.293-0.579-0.223c-0.353,0.192-1.202,0.384-1.461,0.63   c-0.446,0.425-0.787,0.597-1.354,0.845c-0.512,0.225-0.581,0.888-0.99,1.005c-0.199,0.057-0.213,0.539-0.258,0.727   c-0.058,0.238-0.213,0.369-0.375,0.556c-0.348,0.398-0.197,0.947-0.479,1.318c-0.242,0.321-1.063,0.656-1.128,1.026   c-0.105,0.596-0.724,0.752-1.227,0.968c0.46,0.393-0.188,0.879,0.083,1.203c0.203,0.243,0.184,0.409,0.212,0.729   c0.007,0.076-0.056,0.599-0.108,0.535c0.207,0.258,0.808,0.872,1.135,0.287c0.235-0.422,0.727-0.581,0.727-1.074   c0.061,0.106,0.119,0.215,0.178,0.322c0.13,0.243-0.049,0.269-0.007,0.472c0.065,0.311,0.274,0.638,0.399,0.93   c0.122,0.283,0.35,0.351,0.388,0.676c0.04,0.349,0.345,0.348,0.577,0.121c0.096-0.093,0.622-0.263,0.624-0.239   c-0.026-0.371-0.053-0.742-0.079-1.112c-0.054-0.76,0.793-0.433,0.811-1.151c0.01-0.416-0.137-0.394-0.477-0.624   c-0.258-0.177-0.127-0.486-0.107-0.784c0.047-0.698,0.465-0.751,0.844-1.305c0.154-0.226,0.434-0.501,0.52-0.76   c0.059-0.177-0.127-0.746,0.061-0.816c0.758-0.288,1.028-0.215,1.389,0.496c-0.703,0.189-0.809,0.99-1.455,1.291   c-0.008,0.003,0.267,1.855,0.236,1.851c0.551,0.083,0.474,0.042,0.712,0.414c0.133,0.208,0.794-0.285,1.018-0.342   c0.168-0.043,0.372-0.027,0.544-0.04c0.146-0.011,0.08-0.182,0.238-0.21c0.375-0.066,0.365,0.298,0.738,0.453   c-0.363,0.094-0.35,0.405-0.617,0.596c-0.323,0.231,0.202,0.674,0.195,0.727c-0.115,0.868-0.53-0.841-0.524-0.838   c-0.167-0.095-0.231-0.242-0.588-0.207c-0.086,0.009-0.736,0.212-0.751,0.249c-0.055,0.146-0.084,0.644,0.089,0.697   c0.418,0.13,0.183,0.58,0.133,0.972c-0.311-0.039-0.241-0.427-0.501-0.468c-0.334-0.053-0.572,0.141-0.553,0.491   c0.018,0.344,0.078,0.508,0.229,0.819c0.148,0.306,0.66,0.02,0.497,0.563c-0.365-0.018-0.735-0.064-1.099-0.023   c-0.406,0.046-0.529-0.193-0.904-0.054c-0.443,0.163-0.758,0.229-1.058,0.586c-0.028,0.034-0.792-0.325-1.007-0.244   c-0.427,0.16-0.549-0.004-0.877-0.294c-0.371-0.328,0.116-0.528,0.122-0.78c0.007-0.296,0.136-0.703-0.002-0.873   c-0.229-0.284-0.812,0.065-0.8,0.393c0.17-0.073,0.219-0.021,0.388-0.007c-0.07,0.184-0.214,0.233-0.411,0.177   c0.113,0.341-0.031,0.477,0.146,0.824c0.126,0.248,0.189,0.53,0.083,0.782c-0.231,0.545-1.288,0.115-1.605,0.699   c-0.059,0.108,0,0.404,0,0.528c0,0.162-0.276,0.039-0.367,0.124c-0.197,0.187-0.332,0.548-0.527,0.716   c-0.169,0.146-0.54,0.509-0.717,0.577c-0.142,0.055-0.806-0.209-0.49,0.341c-0.335,0-0.618-0.139-0.903-0.047   c-0.301,0.098-0.598,0.462-0.123,0.521c0.281,0.035,0.649,0.104,0.766,0.406c0.093,0.24,0.211,0.171,0.292,0.311   c0.118,0.201-0.004,0.36,0.249,0.55c-0.359,0.183-0.266,0.673-0.299,1.024c-0.016,0.159-0.869,0.089-1.053,0.043   c-0.413-0.104-0.766-0.103-1.193-0.103c-0.422,0-0.446,0.201-0.855,0.166c-0.017,0.368,0.223,0.557,0.197,0.961   c-0.031,0.496-0.131,0.771-0.25,1.22c-0.029,0.114,0.127,1.023,0.117,1.021c0.533,0.076,0.852-0.005,1.11,0.474   c0.091,0.168,0.851-0.24,1.059-0.267c0.634-0.079,0.683-0.079,1.065-0.578c0.111-0.146,0.307-0.322,0.378-0.492   c0.062-0.147-0.138-0.229-0.022-0.42c0.095-0.158,0.195-0.438,0.335-0.558c0.121-0.104,0.392-0.085,0.548-0.2   c0.211-0.155,0.299-0.167,0.322-0.42c0.011-0.121-0.022-0.536,0.105-0.576c0.178-0.056,0.489-0.229,0.673-0.211   c0.142,0.015,0.39,0.319,0.509,0.209c0.215-0.199,0.689-0.749,1.026-0.749c0.538,0,0.455,0.543,0.704,0.762   c0.703,0.615,1.326,1.209,2.152,1.643c0.25,0.132,0.02,0.805-0.29,0.831c-0.443,0.037-1.051-0.099-1.165,0.456   c0.432,0.139,0.863,0.278,1.295,0.417c0.13-0.645,0.372-0.679,0.699-1.261c0.096-0.168-0.324-0.315-0.144-0.452   c0.21-0.158,0.351-0.148,0.588,0.021c0.198-0.447-0.489-0.615-0.792-0.789c-0.414-0.238-0.695-0.542-1.035-0.882   c-0.213-0.212-0.775-0.813-0.716-1.111c0.142-0.718,0.677,0.503,1.007-0.124c0.244,0.554,0.502,0.801,0.947,1.22   c0.209,0.196,1.225,0.522,1.222,0.674c-0.025,1.026,0.423,2.29,1.462,2.608c-0.037-0.438-0.114-0.66,0.139-1.016   c0.076-0.107-0.217-0.247-0.305-0.313c-0.133-0.103-0.09-0.375-0.104-0.536c0.344,0.143,1.456-0.87,1.48,0.069   c0.012,0.395,0.377,0.387,0.309,0.899c-0.021,0.164,0.266,0.61,0.412,0.688c0.222,0.118,0.674,0.493,0.919,0.492   c0.291-0.001,0.483-0.365,0.793-0.273c0.187,0.056,0.835,0.366,0.986,0.242c0.296-0.242,0.439-0.387,0.839-0.365   c-0.023,0.5,0.033,1.078-0.075,1.566c-0.058,0.26-0.622,1.082-0.476,1.287c0.108,0.151,0.392,0.412,0.395,0.602   c0.002,0.149-0.068,0.545,0.023,0.662c0.311,0.393,0.918,0.901,1.084,1.369c0.086,0.243-0.083,0.412,0.139,0.585   c0.172,0.134,0.574,0.334,0.674,0.526c0.096,0.184,0.021,0.614,0.029,0.824c0.005,0.157,0.281,0.371,0.377,0.482   c0.439,0.507,0.878,1.013,1.316,1.52c0.129,0.148-0.043,0.388-0.021,0.567c0.029,0.242,0.201,0.521,0.289,0.75   c-0.593-0.249-0.512-0.688-1.107-0.925c-0.432-0.172-1.203-0.691-1.66-0.526c-1.009,0.362-2.254-0.728-3.166-1.203   c-0.327-0.171-0.372-0.784-0.73-0.838c-0.323-0.047-0.647-0.095-0.971-0.143c-0.361-0.054-0.27,0.114-0.332,0.467   c-0.099,0.551-0.221,0.982-0.839,0.817c-0.2-0.054-0.359-0.411-0.478-0.573c-0.13-0.176-0.645-0.213-0.853-0.27   c-0.313-0.087-0.054-0.953-0.5-1.109c-0.551-0.194-1.173-0.308-1.616-0.695c-0.244-0.213-0.993-0.85-0.377-1.064   c0.4-0.141,0.389-0.145,0.5-0.557c0.046-0.168-0.145-0.106-0.146-0.229c-0.001-0.132,0.146-0.3,0.119-0.427   c-0.128-0.614-0.505-0.604-1.044-0.542c-0.626,0.072-1.166-0.17-1.77-0.349c-1.091-0.322-2.026-0.417-3.123-0.124   c-0.501,0.134-0.701-0.063-1.193-0.167c-0.293-0.062-0.585-0.124-0.877-0.186c-0.215-0.046-0.096-0.612-0.55-0.368   c-0.144,0.077-0.286,0.617-0.358,0.772c-0.061,0.132-0.463,0.169-0.591,0.205c-0.306,0.085-0.61,0.171-0.915,0.256   c-0.158,0.045-0.333,0.423-0.492,0.545c-0.459,0.349-0.236,0.9-0.581,1.258c-0.303,0.314-1.364,0.433-1.784,0.566   c-0.807,0.255-1.684,0.985-2.266,1.599c-0.363,0.382-0.834,0.758-1.121,1.2c-0.218,0.336-0.238,0.306,0.016,0.612   c0.182,0.221,0.08,0.367,0.021,0.649c-0.106,0.507-0.127,1.146-0.403,1.592c-0.29,0.469-0.763,0.844-0.763,1.396   c0,0.485-3.145,1.097-3.715,1.263c-0.75,0.218-1.499,0.438-2.248,0.659c-0.375,0.11-0.751,0.222-1.127,0.334   c-0.673,0.2-0.672,0.326-0.95-0.298c-0.584-1.311-1.668-2.215-2.99-2.718c-8.716-3.313-17.414-6.679-26.149-9.938   c-0.394-0.147-0.798-0.267-1.207-0.363c0.256-0.116,1.593-0.549,1.648-0.825c0.074-0.371,0.205-2.119,0.606-2.077   c-0.014,0.287-0.027,0.574-0.04,0.861c0.609-0.208,1.338-0.58,1.418-1.262c0.115-0.972,1.204,0.095,1.644-0.386   c0.236-0.258,0.455-0.497,0.647-0.788c0.307-0.467,0.323-0.448,0.878-0.509c0.387-0.041,0.8-0.158,1.175-0.04   c0.51,0.16,0.366,0.309,0.336,0.828c0.684-0.115,1.368-0.231,2.052-0.347c0.389-0.065,0.776-0.132,1.165-0.197   c0.237-0.04,0.163-0.379,0.187-0.592c-0.321-0.11-0.482,0.04-0.732,0.212c-0.161,0.109-0.551-0.13-0.719-0.191   c-0.318-0.115-0.951-0.528-0.615-0.95c0.448-0.564,0.795-0.685,0.428-1.321c-0.119-0.207-1.338-0.044-1.605-0.042   c-0.111-0.459,1.001-0.736,1.325-0.892c0.361-0.172,0.742,0.081,1.111,0.203c0.649,0.217,1.299,0.433,1.948,0.648   c0.473,0.158,0.711-0.554,1.123-0.486c0.426,0.07,1.051,0.228,1.314-0.243c0.441-0.79,0.387-0.728-0.236-1.38   c-0.111-0.117,0.022-0.363-0.068-0.491c-0.164-0.23-0.328-0.461-0.493-0.691c-0.377-0.529-0.613-0.773-0.654-1.411   c0.153,0.009,0.321-0.024,0.473,0.002c-0.003-1.067-0.006-2.135-0.009-3.202c-0.208,0.161-1.848,1.561-1.985,1.444   c-0.129-0.106-0.515-0.1-0.547-0.264c-0.039-0.197-0.064-0.401-0.131-0.592c-0.158-0.457,0.279-0.864,0.521-1.261   c0.278-0.454,0.138-0.427-0.242-0.81c-0.318-0.32-0.337-0.729-0.443-1.166c-0.075-0.309-0.657-0.259-0.919-0.453   c-0.445-0.332-0.605-0.34-1.164-0.357c0.008,0.154,0.118,0.656-0.015,0.737c-0.225,0.137-0.61,0.243-0.625,0.522   c-0.012,0.23,0.073,0.823-0.051,1.014c-0.125,0.19-0.7,0.352-0.906,0.455c-0.094,0.047-0.148,1.34-0.198,1.594   c-0.018,0.091-0.067,0.679-0.16,0.704c-0.408,0.107-0.816,0.216-1.224,0.324c-0.806,0.214-0.72,0.314-0.974,1.126   c-0.121,0.385-0.241,0.77-0.361,1.154c-0.096,0.304-0.467,0.188-0.76,0.201c-0.4,0.02-0.33-0.004-0.391-0.398   c-0.04-0.259-0.205-0.707-0.148-0.964c0.12-0.546,0.728-1.198,1.021-1.681c-0.322-0.079-0.981-0.103-1.235-0.305   c-0.307-0.245-0.534-0.909-0.732-1.247c-0.226-0.386-0.436-0.604-0.767-0.914c-0.424-0.396-0.595-0.339-1.183-0.335   c0.423-0.393,1-1.562,0.137-1.633c0.096-0.327,0.142-0.896,0.343-1.165c0.24-0.322,0.802-0.581,1.127-0.816   c0.691-0.502,1.37-1.202,2.227-0.993c0.274,0.066,0.279-0.092,0.437-0.322c0.118-0.173,0.35,0.031,0.453-0.167   c0.332-0.635,0.529,0.232,0.91-0.004c0.645-0.398,1.999-0.948,2.007-1.791c0.637,0.154,0.61,0.548,1.281,0.606   c0.312,0.027,1.122-0.227,1.315-0.461c0.383-0.464-0.206-1.119,0.571-1.134c0.313-0.006,0.322-0.255,0.455-0.53   c0.146-0.301-0.131-0.443-0.339-0.687c-0.388-0.455-0.45-0.282-0.906,0.048c-0.536,0.389-1.071,0.776-1.607,1.164   c-0.289,0.209-0.73,0.175-0.488-0.26c0.297-0.534,0.595-1.068,0.893-1.603c-0.831-0.056-0.891,0.099-1.479,0.698   c0.246-1.11,0.517-1.893,1.037-2.901c0.306-0.594,0.473-0.71,0.24-1.325c-0.162-0.431-0.931,0.046-1.187,0.262   c-0.567,0.479-0.754,0.64-0.985,1.338c-0.086,0.258,0.053,0.409,0.169,0.656c0.186,0.395,0.093,0.352-0.263,0.602   c-0.184,0.129,0.172,0.364-0.116,0.44c-0.326,0.086-0.652,0.171-0.979,0.257c-0.647,0.171,0.013,0.933-0.912,0.675   c0.31-0.705-0.581-0.807-1.15-1.094c-0.643-0.323-0.848-0.867-1.227-1.482c-0.304-0.494-0.942-0.29-1.497-0.292   c-0.311-0.002-0.28,0.409-0.352,0.68c-0.113,0.43-0.273,0.344-0.713,0.408c0.038-0.321,0.077-0.644,0.116-0.965   c0.053-0.439,0.091-0.402-0.328-0.533c-0.855-0.267-1.141-0.4-1.749-1.05c0.67-0.063,0.986,0.119,1.027-0.582   c0.022-0.387-0.005-0.32-0.395-0.393c-0.315-0.058-0.383-0.253-0.577-0.513c-0.444-0.593-0.588-0.787-0.653-1.519   c-0.01-0.111-0.427-0.192-0.54-0.188c-0.324,0.013-0.22,0.408-0.688,0.096c0.086-0.199,0.173-0.399,0.26-0.599   c-0.45-0.256-0.611,0.937-0.847-0.026c-0.096-0.39,0.342-1.142,0.471-1.525c-0.413-0.093-0.496,0.29-0.66,0.582   c-0.07,0.125-0.501-0.069-0.665-0.04c-0.713,0.126-1.478,0.363-2.199,0.39c-0.136,0.005-0.845-0.006-0.882-0.115   C37.248,13.104,38.997,12.111,39.214,11.976z M60.77,4.349C60.729,4.35,60.728,4.35,60.77,4.349L60.77,4.349z M61.34,4.337   c0.16-0.003,0.35-0.006,0.584-0.011C61.708,4.331,61.511,4.334,61.34,4.337z M62.028,4.324c0.219-0.004,0.469-0.009,0.754-0.014   C62.521,4.315,62.266,4.32,62.028,4.324z M63.495,4.296c0.11-0.002,0.228-0.004,0.347-0.007   C63.729,4.292,63.612,4.294,63.495,4.296z M64.129,4.284c0.35-0.007,0.722-0.014,1.137-0.022   C65.097,4.266,64.666,4.274,64.129,4.284z M44.965,53.153c0.331,0.122,0.66,0.252,0.989,0.377c2.136,0.812,4.271,1.623,6.407,2.435   c6.285,2.389,12.57,4.777,18.855,7.166c-7.615,2.351-15.19,4.834-22.735,7.4c-3.414-3.222-6.834-6.439-10.172-9.739   c-0.789-0.78-2.22-1.82-2.436-2.993c-0.234-1.273,1.865-2.117,2.662-2.666C40.558,53.742,42.375,52.194,44.965,53.153z    M34.655,50.228c0.06-0.279,0.1-1.204,0.349-1.331c0.499-0.254,0.894-0.035,1.367-0.332c0.151-0.096,0.021-0.298,0.225-0.247   c0.324,0.08,0.648,0.16,0.974,0.239c0.652,0.161,0.381,0.288,0.777,0.668c-1.562,0.989-3.065,2.079-4.589,3.127   C33.775,51.429,34.148,51.004,34.655,50.228z M25.937,23.684c-0.533,0.597-1.047,1.172-1.361,1.523   C24.833,24.918,25.269,24.431,25.937,23.684z M24.454,25.343c-0.055,0.061-0.099,0.109-0.13,0.145   C24.355,25.453,24.396,25.408,24.454,25.343z M16.601,42.167c2.104-7.646,6.007-14.759,11.29-20.67   c0.041,0.123,0.12,0.597,0.248,0.606c0.149,0.012,0.75-0.037,0.845,0.064c0.148,0.159-0.037,1.236-0.043,1.45   c-0.02,0.676-0.04,1.353-0.06,2.029c-0.014,0.467-0.349,0.919-0.548,1.333c-0.21,0.438,0.124,0.54,0.083,1.062   c-0.032,0.405-0.286,1.298-0.075,1.656c0.25,0.426,0.707,0.944,0.835,1.419c0.13,0.482-0.027,1.191-0.039,1.694   c-0.35-0.372-0.445-0.688-0.945-0.532c-0.259,0.08-0.475,1.145-0.568,1.402c-0.294,0.803-1.112,1.528-1.639,2.196   c-1.163,1.478-0.732,3.689-0.715,5.408c0.002,0.142-0.08,0.687,0.031,0.791c0.204,0.19,0.919,0.65,0.966,0.914   c0.188,1.053,0.374,2.105,0.562,3.158c0.077,0.438-0.105,0.42-0.489,0.672c-0.092,0.06,0.649,1.087,0.749,1.239   c0.195,0.299-0.284,0.718-0.079,1.003c0.301,0.417,0.601,0.834,0.9,1.251c0.23-0.503-0.389-0.874-0.389-1.347   c-0.001-0.543,0.486-0.707,0.291-1.274c-0.229-0.661-0.457-1.322-0.685-1.983c-0.169-0.488-0.002-0.847,0.122-1.354   c0.404,0.419,0.568,0.559,0.671,1.118c0.099,0.534,0.179,1.019,0.378,1.52c0.158,0.396,0.679,1.136,0.365,1.478   c-0.373,0.407,0.496,0.805,0.577,1.249c0.112,0.607,0.224,1.215,0.335,1.821c0.036,0.196-0.06,0.405-0.106,0.596   c-0.071,0.29,0.104,0.536,0.215,0.81c0.184,0.451,0.523,0.785,0.832,1.162c0.22,0.268,0.439,0.535,0.658,0.803   c0.287,0.35,0.011,0.598-0.106,1.022c-0.829,3.003,0.752,5.398,2.723,7.404c0.625,0.636,1.26,1.262,1.896,1.886   c0.457,0.446,0.915,0.892,1.374,1.335c0.533,0.516,0.826,0.627,0.756,1.345c-0.045,0.455,0.572,0.111,0.678,0.497   c0.165,0.605,0.329,1.21,0.494,1.815c0.2,0.733,0.399,1.467,0.6,2.199c0.151,0.557,0.523,1.004-0.072,1.213   c-1.342,0.47-2.682,0.942-4.021,1.418c-0.573,0.204-1.146,0.408-1.719,0.612c-0.633,0.227-0.851,0.016-1.424-0.29   c-3.679-1.962-7.358-3.924-11.041-5.879c-1.398-0.743-2.794-1.575-4.279-2.131c-0.335-0.126-0.676-0.236-1.022-0.327   c-0.08-0.361-0.157-0.724-0.23-1.087c-0.146-0.729-0.278-1.461-0.394-2.196c-0.254-1.61-0.433-3.233-0.532-4.86   C14.511,53.271,15.105,47.593,16.601,42.167z M26.27,23.311c0.353-0.395,0.762-0.852,1.229-1.375   C27.191,22.279,26.74,22.784,26.27,23.311z M27.694,21.716c0.055-0.061,0.104-0.115,0.159-0.178   C27.821,21.575,27.769,21.633,27.694,21.716z M47.304,103.712c-0.769-0.598-2.025-0.897-2.917-1.303   c-1.151-0.523-2.299-1.066-3.404-1.684c2.385-0.385,4.763-0.81,7.135-1.265C47.845,100.878,47.573,102.295,47.304,103.712z    M74.985,106.67c0,0,0.049-0.008,0.124-0.021C75.065,106.656,75.029,106.662,74.985,106.67c2.272-3.339,4.545-6.679,6.816-10.018   c1.258-1.85,2.518-3.699,3.775-5.549c0.306-0.449,0.437-0.831,0.96-0.98c2.741-0.781,5.478-1.585,8.206-2.411   c0.062,0.332,0.52,2.044,0.184,2.269c-0.781,0.521,0.24,1.54,0.903,1.544c0.323,0.002,0.679-0.208,0.993-0.112   c0.5,0.15,0.992,0.322,1.486,0.49c0.604,0.204,1.768-0.376,2.324-0.617c0.313-0.135,0.613-0.226,0.86-0.458   c0.208-0.196,0.704-0.867,0.997-0.848c0.73,0.05,1.227-1.17,1.271-1.785c0.024-0.326,1.778-0.096,1.88-0.663   c0.151-0.845,0.303-1.688,0.434-2.536c0.517,0.287,1.396-0.374,1.886-0.553c0.582-0.213,1.294-0.28,1.769-0.709   C101.933,95.811,89.165,104.269,74.985,106.67z M81.362,105.59c-0.075,0.013-0.211,0.036-0.411,0.069   C81.137,105.628,81.28,105.604,81.362,105.59z M80.598,105.72c-0.45,0.076-1.101,0.186-1.993,0.337   C79.354,105.93,80.069,105.809,80.598,105.72z M78.072,106.147c-0.696,0.117-1.524,0.258-2.486,0.421   C76.172,106.469,77.113,106.31,78.072,106.147z M110.209,82.991C110.209,82.991,110.291,82.859,110.209,82.991   c0.001-0.188,0.074-0.344,0.238-0.4C110.369,82.726,110.29,82.858,110.209,82.991z M117.764,74.04   c-2.237,1.54-5.091,2.405-7.612,3.335c-4.747,1.751-9.566,3.308-14.4,4.801c-2.961,0.915-5.932,1.8-8.91,2.659   c-0.751,0.217-1.502,0.432-2.254,0.645c-0.268,0.076-1.381,0.221-1.526,0.434c-0.052,0.075-0.103,0.15-0.153,0.226   c-0.818,1.202-1.636,2.404-2.453,3.606c-6.441,9.467-12.883,18.934-19.323,28.4c-0.504,0.739-1.025,1.47-1.51,2.222   c-1.022,1.588-2.563,2.123-4.377,2.153c-1.584,0.027-3.331,0.272-4.905,0.078c-1.944-0.241-0.589-4.618-0.403-5.666   c0.693-3.925,1.437-7.841,2.181-11.757c0.768-4.038,1.545-8.075,2.329-12.11c-6.031,1.3-12.099,2.471-18.211,3.317   c-4.92,0.682-9.989,1.287-14.961,0.911c-2.594-0.196-7.457-0.817-6.602-4.513c0.115-0.499,0.321-0.975,0.576-1.417   c0.089-0.155,1.036-1.364,1.021-1.392c-0.088-0.157-0.176-0.315-0.263-0.473c-0.505-0.905-1.009-1.812-1.514-2.717   c-1.532-2.752-3.064-5.504-4.597-8.255C9.323,77.5,8.75,76.472,8.178,75.443c-0.198-0.356-0.528-0.782-0.643-1.18   c-0.529-1.839,4.482-2.488,5.523-2.532c1.93-0.082,3.501,0.897,5.143,1.769c3.04,1.611,6.075,3.23,9.111,4.849   c1.373,0.731,2.746,1.464,4.119,2.196c0.387,0.206,0.774,0.413,1.161,0.619c0.503,0.269,1.231-0.21,1.747-0.396   c4.955-1.778,9.925-3.516,14.906-5.217c11.75-4.012,23.607-7.859,35.556-11.237c3.001-0.849,6.012-1.665,9.034-2.433   c1.993-0.506,3.991-1.099,6.042-1.321c5.117-0.557,10.592,0.29,14.969,3.11c-1.381,0.667-2.808,1.238-4.252,1.754   c-0.855,0.305-1.719,0.59-2.588,0.856c-0.889,0.272-2.064,0.384-2.74,1.081c-1.168,1.203-0.444,3.289,1.219,3.509   c0.822,0.108,1.745-0.315,2.521-0.548c0.924-0.278,1.842-0.573,2.754-0.889c1.767-0.611,3.515-1.296,5.186-2.136   c0.369-0.185,0.734-0.378,1.093-0.581c0.458-0.261,0.835,0.489,1.133,0.859c0.317,0.395,0.624,0.801,0.909,1.22   C121.444,70.806,119.314,72.973,117.764,74.04z"
   id="path38"
   style="fill:#ffffff" />
	<path
   fill="#CBA145"
   d="M47.304,103.712C47.554,102.396,47.277,103.691,47.304,103.712L47.304,103.712z"
   id="path40"
   style="fill:#ffffff" />
	<path
   fill="#CBA145"
   d="M124.044,65.745C124.674,66.592,123.422,64.854,124.044,65.745L124.044,65.745z"
   id="path42"
   style="fill:#ffffff" />
	<path
   fill="#CBA145"
   d="M79.231,27.025c0.176,0.03,0.365,0.507,0.46,0.658c-0.122,0.142-0.243,0.282-0.365,0.424   c0.446,0.025,0.848,0.001,1.252,0.192c0.585,0.277,0.876,0.099,1.511-0.074c0.547-0.148,0.699-0.403,1.168-0.707   c0.532-0.344,0.449-0.688,0.755-1.226c-0.759-0.082-0.19-0.474-0.584-0.82c-0.415-0.365-0.73,0.312-1.023,0.29   c-0.466-0.032-0.841,0.071-1.289,0.071c-0.637,0-0.333,0.562-0.972,0.526c0.014-0.18,0.155-0.732-0.043-0.75   c-0.362-0.033-0.527-0.472-0.897-0.18c0.149-0.118-0.331,0.786-0.322,0.596c-0.014,0.32,0.459,0.312,0.544,0.686   c-0.281,0.029-0.563,0.06-0.843,0.089C78.669,27.009,78.972,26.979,79.231,27.025z"
   id="path44"
   style="fill:#ffffff" />
	<path
   fill="#CBA145"
   d="M91.696,34.141c-0.055,0.295-0.169,0.814,0.311,0.854c0.486,0.04,0.377,0.392,0.529,0.844   c0.234,0.688-0.903,1.267-0.847,2.01c0.488-0.054,0.607-0.011,1.034,0.229c-0.641,0.231-1.226,0.403-1.461,1.063   c0.39-0.188,0.684-0.141,1.048-0.268c0.454-0.158,0.343-0.359,0.904-0.347c0.681,0.015,1.441-0.05,2.021-0.501   c-0.348-0.19-0.318-0.537-0.017-0.719c0.406-0.244,0.049-0.634-0.264-0.793c-0.707-0.361-0.711-1.071-1.258-1.47   c-0.234-0.171-0.281-0.616-0.534-0.842c-0.223-0.199-0.7-0.479-0.4-0.733c0.142-0.121,0.614-0.763,0.353-0.883   c-0.398-0.183-0.561-0.079-0.983,0.052c-0.046-0.392,0.38-0.485,0.42-0.879c-0.18,0-0.753-0.099-0.813,0.076   c-0.102,0.286-0.479,0.558-0.528,0.782c-0.071,0.33-0.117,0.543-0.068,0.871C91.219,34.005,91.194,33.992,91.696,34.141z"
   id="path46"
   style="fill:#ffffff" />
	<path
   fill="#CBA145"
   d="M89.658,36.277c0.122-0.077,0.427,0.01,0.476-0.145c0.044-0.138,0.087-0.274,0.131-0.412   c0.03-0.097,0.178-0.071,0.199-0.14c0.184-0.599-0.305-0.45-0.022-1.074c0.128-0.281,0.224-0.159,0.224-0.582   c0,0.066-0.385-0.307-0.397-0.308c-0.173-0.011-0.402,0.174-0.485,0.14c-0.334-0.135-0.34-0.143-0.65,0.035   c-0.319,0.182,0.095,0.271-0.049,0.426c-0.174,0.188-0.43,0.152-0.67,0.177c-0.439,0.044,0.215,1.016,0.217,0.984   c-0.01,0.201-0.26,0.351-0.398,0.486c-0.125,0.124-0.113,0.428-0.144,0.599c0.224-0.036,0.421,0.063,0.537,0.259   C89.218,36.653,89.202,36.563,89.658,36.277z"
   id="path48"
   style="fill:#ffffff" />
	<path
   fill="#CBA145"
   d="M96.681,70.479c-0.216-0.668-0.934-1.037-1.603-0.822c-0.669,0.218-1.036,0.937-0.821,1.604l0.428,1.32   c0.215,0.67,0.933,1.036,1.602,0.819c0.67-0.217,1.037-0.934,0.82-1.602L96.681,70.479z"
   id="path50"
   style="fill:#ffffff" />
	<path
   fill="#CBA145"
   d="M79.063,76.161c-0.215-0.668-0.933-1.035-1.603-0.818c-0.669,0.215-1.035,0.932-0.819,1.602l0.428,1.32   c0.215,0.67,0.932,1.037,1.601,0.82c0.669-0.215,1.037-0.932,0.82-1.602L79.063,76.161z"
   id="path52"
   style="fill:#ffffff" />
	<path
   fill="#CBA145"
   d="M61.448,81.847c-0.217-0.67-0.935-1.037-1.604-0.82s-1.036,0.933-0.82,1.603l0.427,1.319   c0.216,0.67,0.934,1.037,1.603,0.822c0.67-0.217,1.037-0.934,0.82-1.604L61.448,81.847z"
   id="path54"
   style="fill:#ffffff" />
	<path
   fill="#CBA145"
   d="M57.042,83.267c-0.215-0.668-0.934-1.035-1.603-0.82c-0.669,0.218-1.036,0.935-0.819,1.603l0.426,1.322   c0.216,0.668,0.934,1.034,1.603,0.819c0.669-0.217,1.037-0.934,0.822-1.602L57.042,83.267z"
   id="path56"
   style="fill:#ffffff" />
	<path
   fill="#CBA145"
   d="M92.276,71.899c-0.215-0.668-0.934-1.037-1.602-0.82c-0.67,0.217-1.037,0.934-0.82,1.604l0.427,1.32   c0.215,0.668,0.933,1.035,1.602,0.82c0.669-0.217,1.036-0.934,0.82-1.603L92.276,71.899z"
   id="path58"
   style="fill:#ffffff" />
	<path
   fill="#CBA145"
   d="M74.66,77.583c-0.218-0.668-0.933-1.035-1.603-0.82c-0.668,0.217-1.035,0.934-0.82,1.602l0.427,1.322   c0.216,0.668,0.933,1.037,1.603,0.82c0.67-0.215,1.037-0.934,0.819-1.602L74.66,77.583z"
   id="path60"
   style="fill:#ffffff" />
</g>
</svg>