<?xml version="1.0" encoding="UTF-8" standalone="no"?>
<!-- Generator: Adobe Illustrator 15.1.0, SVG Export Plug-In . SVG Version: 6.00 Build 0)  -->

<svg
   xmlns:dc="http://purl.org/dc/elements/1.1/"
   xmlns:cc="http://creativecommons.org/ns#"
   xmlns:rdf="http://www.w3.org/1999/02/22-rdf-syntax-ns#"
   xmlns:svg="http://www.w3.org/2000/svg"
   xmlns="http://www.w3.org/2000/svg"
   xmlns:sodipodi="http://sodipodi.sourceforge.net/DTD/sodipodi-0.dtd"
   xmlns:inkscape="http://www.inkscape.org/namespaces/inkscape"
   version="1.1"
   id="Layer_1"
   x="0px"
   y="0px"
   width="128px"
   height="128px"
   viewBox="0 0 128 128"
   enable-background="new 0 0 128 128"
   xml:space="preserve"
   sodipodi:docname="Vehicle (copy).svg"
   inkscape:version="0.92.3 (2405546, 2018-03-11)"><metadata
   id="metadata90"><rdf:RDF><cc:Work
       rdf:about=""><dc:format>image/svg+xml</dc:format><dc:type
         rdf:resource="http://purl.org/dc/dcmitype/StillImage" /></cc:Work></rdf:RDF></metadata><defs
   id="defs88" /><sodipodi:namedview
   pagecolor="#ffffff"
   bordercolor="#666666"
   borderopacity="1"
   objecttolerance="10"
   gridtolerance="10"
   guidetolerance="10"
   inkscape:pageopacity="0"
   inkscape:pageshadow="2"
   inkscape:window-width="736"
   inkscape:window-height="480"
   id="namedview86"
   showgrid="false"
   inkscape:zoom="1.84375"
   inkscape:cx="64"
   inkscape:cy="64"
   inkscape:window-x="0"
   inkscape:window-y="27"
   inkscape:window-maximized="0"
   inkscape:current-layer="Layer_1" />
<g
   id="g83"
   style="fill:#ffffff">
	<path
   fill="#CBA145"
   d="M100.514,88.278c-0.646-0.019-1.31,0.123-1.903,0.372l-15.976,6.711c1.713-1.409,2.818-3.524,2.749-5.768   c-0.068-2.244-1.343-4.196-2.992-5.636c-3.277-2.857-7.764-4.293-11.937-5.205c-2.313-0.502-4.665-0.834-7.025-0.976   c-2.62-0.159-5.156-0.125-7.73-0.741c-4.476-1.072-8.729-2.891-13.234-3.882c-3.179-0.697-6.417-1.098-9.668-1.233l0.977-4.24   c1.187-5.144-5.628-7.23-9.339-8.211c-3.218-0.85-6.527-1.341-9.834-1.68c-2.245-0.23-4.499-0.384-6.753-0.485   c-2.168-0.097-4.378-0.373-6.062,1.293l-0.326,0.324c-0.907,0.899-1.417,2.124-1.417,3.401v47.135c0,1.238,0.481,2.43,1.341,3.322   l0.917,0.952c0.903,0.938,2.148,1.468,3.449,1.468h13.27c2.231,0,4.165-1.54,4.667-3.715l0.012-0.052   c8.121,4.174,16.4,8.161,24.981,11.304c3.721,1.361,7.564,2.644,11.503,3.181c3.052,0.415,6.104,0.007,9.102-0.623   c8.451-1.781,16.651-5.173,24.306-9.12c4.076-2.104,8.046-4.438,11.778-7.107c1.704-1.218,3.359-2.508,4.928-3.897   c1.592-1.41,2.512-2.961,2.739-5.102c0.379-3.57-1.46-6.782-4.074-9.079C106.551,88.871,103.657,88.31,100.514,88.278   C100.498,88.278,105.283,88.326,100.514,88.278z M19.019,110.41H5.749l-0.917-0.952V62.323L5.158,62   c17.528,0.49,22.726,3.623,23.949,4.607l-1.063,4.615l-8.003,34.759L19.019,110.41L19.019,110.41z M107.907,100.871   c-6.477,6.037-14.594,10.435-22.634,14.012c-3.99,1.776-8.083,3.348-12.276,4.575c-3.183,0.934-6.505,1.763-9.837,1.852   c-2.872,0.079-5.75-0.733-8.469-1.573c-3.785-1.171-7.477-2.64-11.12-4.192c-6.331-2.699-12.537-5.702-18.647-8.868l6.909-30   c4.949,0.136,9.781,0.999,14.501,2.475c4.836,1.51,9.548,3.341,14.694,3.341c5.041,0,10.355,0.931,14.952,3.054   c1.57,0.727,3.506,1.724,4.358,3.317c0.921,1.721-0.87,3.062-2.263,3.676c-2.343,1.032-5.036,1.321-7.568,1.416   c-2.912,0.109-5.849-0.047-8.753-0.271c-2.516-0.196-5.027-0.469-7.527-0.812c-0.992-0.135-2.535-0.668-3.538-0.345l-1.878,0.627   c-0.92,0.306-1.395,1.375-0.997,2.264c0.341,0.762,1.26,1.364,1.931,1.815c1.482,1.001,3.156,1.706,4.843,2.28   c1.555,0.529,3.149,0.945,4.756,1.279c0.914,0.191,1.926,0.484,2.868,0.484h18.369c0.223,0,0.444-0.04,0.647-0.129l19.238-8.079   c2.237,0.021,4.04,0.291,5.691,1.844C107.739,96.399,108.939,98.732,107.907,100.871   C96.582,111.429,108.233,100.195,107.907,100.871z"
   id="path71"
   style="fill:#ffffff" />
	<path
   fill="#CBA145"
   d="M61.872,25.951c-0.499-0.161-0.837-0.27-1.042-0.336C61.066,25.691,61.444,25.813,61.872,25.951z"
   id="path73"
   style="fill:#ffffff" />
	<path
   fill="#CBA145"
   d="M127.508,64.001c-0.384-0.822-0.989-1.511-1.738-1.995c1.722-1.901,1.42-4.711,0.543-6.931   c-0.956-2.424-2.665-4.516-4.554-6.282c-3.959-3.705-8.832-6.135-13.288-9.151l-0.408-0.275c-0.755-0.507-1.478-0.993-2.044-1.474   c-2.486-4.856-5.889-9.282-9.578-13.282c-3.664-3.971-7.819-7.51-12.422-10.349c-4.32-2.665-8.994-4.494-13.821-6.01   c-5.464-1.716-11.06-3.045-16.688-4.097c-1.786-0.333-3.58-0.666-5.382-0.893c-1.521-0.191-3.132-0.221-4.597-0.705   C40,1.038,36.017,2.267,34.119,5.636c-2.416,0.842-4.896,1.57-7.097,2.911c-0.002,0.001-0.003,0.001-0.003,0.002   c-5.4-0.52-7.915,5.045-9.765,9.125l-0.376,0.824c-0.49,1.069-0.801,2.578-1.589,3.475c-3.152,3.123-4.946,7.954-4.921,12.36   c0.019,3.585,1.64,9.253,5.828,9.886c0.079,5.576,3.396,10.727,8.438,13.104c5.289,2.493,11.621,1.536,15.983-2.344   c1.356,1.127,3.34,1.595,4.962,2.23c1.886,0.737,3.772,1.473,5.659,2.209c3.712,1.448,7.425,2.895,11.139,4.339   c3.535,1.375,7.07,2.75,10.605,4.123c1.567,0.609,3.134,1.217,4.702,1.825c1.585,0.615,3.317,1.587,5.05,1.499   c0.957,4.439,4.063,8.233,8.157,10.17c4.727,2.233,10.318,1.712,14.585-1.3c1.308,1.375,3.517,1.936,5.298,2.401   c1.764,0.464,3.608,0.715,5.433,0.543c3.051-0.291,6.154-1.953,7.563-4.778l0.086-0.172c0.082-0.166,0.155-0.334,0.218-0.508   l3.597-9.898C128.104,66.47,128.046,65.152,127.508,64.001C127.124,63.18,128.046,65.152,127.508,64.001z M31.918,53.886   c-4.624,0.483-9.147-2.521-10.506-6.966c-1.521-4.977,1.186-10.324,6.015-12.158c4.555-1.73,9.629,0.146,12.047,4.359   c2.548,4.44,1.259,10.063-2.909,13.004C35.196,53.092,33.587,53.711,31.918,53.886C31.583,53.921,35.426,53.518,31.918,53.886z    M97.475,77.98c-4.554,0.186-8.8-2.985-9.971-7.378c-1.284-4.825,1.413-9.867,5.989-11.716c4.629-1.871,9.996,0.081,12.295,4.521   c2.407,4.649,0.885,10.388-3.585,13.128C100.78,77.408,99.143,77.915,97.475,77.98C97.348,77.986,101.09,77.841,97.475,77.98z    M119.572,75.927l-0.087,0.172c-2.26,3.589-7.423,2.019-10.543,0.681c4.913-6.684,3.194-16.336-3.661-20.957   c-0.492-0.46-1.146-0.873-2.006-1.186l-1.154-0.419c-1.18-0.429-2.282-0.927-3.56-0.809c-7.872-0.781-15.223,5.13-16.076,13.024   c-12.208-4.736-26.786-10.403-38.828-15.118c0.28-0.492,0.537-0.988,0.762-1.509l0.045-0.105   c3.197-7.237-0.485-15.995-7.617-19.148c-7.603-3.362-16.859,0.466-19.741,8.313l-0.043,0.114   c-0.025,0.068-0.043,0.139-0.064,0.208c-0.034,0.098-0.064,0.197-0.096,0.297c-3.492-4.256-1.324-10.664,1.95-14.314   c0.811-0.903,1.289-2.067,1.744-3.176c0.543-1.322,1.128-2.625,1.742-3.917c0.596-1.255,1.231-2.573,2.117-3.654   c1.095-1.337,2.174-1.153,3.63-0.597c0.251,0,0.89-0.753,1.084-0.917c0.626-0.524,1.393-0.856,2.139-1.175   c2.125-0.908,4.392-1.446,6.496-2.407c0.41-1.971,1.975-3.243,3.956-2.316c2.657,0.966,5.684,0.951,8.456,1.42   c3.031,0.513,6.044,1.129,9.04,1.823c5.741,1.33,11.57,2.889,16.97,5.284c9.805,4.35,18.072,12.4,23.743,21.417   c0.674,1.07,1.304,2.169,1.875,3.298l0.287,0.56c1.551,1.594,3.579,2.783,5.447,3.965c2.113,1.338,4.28,2.593,6.357,3.988   c1.821,1.223,3.613,2.547,5.156,4.113c1.479,1.5,3.268,3.665,3.125,5.91c0,0-4.725-1.241-8.887-3.748   c-1.374,1.17-0.357,2.892,0.489,3.667c0.188,0.173,0.376,0.346,0.564,0.518c-0.166-0.152-0.332-0.304-0.499-0.456   c1.17,1.093,2.042,2.456,3.169,3.59c1.702,1.717,3.856,2.847,6.112,3.666L119.572,75.927L119.572,75.927z"
   id="path75"
   style="fill:#ffffff" />
	<path
   fill="#CBA145"
   d="M64.705,26.864c-0.112-0.036-0.225-0.072-0.336-0.108C64.512,26.802,64.619,26.836,64.705,26.864z"
   id="path77"
   style="fill:#ffffff" />
	<path
   fill="#CBA145"
   d="M44.134,20.073c6.887,2.319,13.786,4.604,20.703,6.833c-0.186-0.06-0.175-0.056,0.032,0.011l4.096-10.787   c-7.537-2.228-15.319-4.364-18.418-4.502L44.134,20.073L44.134,20.073z"
   id="path79"
   style="fill:#ffffff" />
	<path
   fill="#CBA145"
   d="M73.53,17.69c-0.881,3.145-1.763,6.288-2.643,9.433c-0.048,0.168-0.561,1.609-0.453,1.689   c0.239,0.177,0.602,0.257,0.875,0.357c0.939,0.34,1.881,0.665,2.815,1.014c6.006,2.246,11.948,4.713,17.654,7.648l1.84-4.482   C88.688,26.337,81.504,20.798,73.53,17.69C72.548,21.196,81.504,20.798,73.53,17.69z"
   id="path81"
   style="fill:#ffffff" />
</g>
</svg>