<?xml version="1.0" encoding="UTF-8" standalone="no"?>
<svg
   xmlns:dc="http://purl.org/dc/elements/1.1/"
   xmlns:cc="http://creativecommons.org/ns#"
   xmlns:rdf="http://www.w3.org/1999/02/22-rdf-syntax-ns#"
   xmlns:svg="http://www.w3.org/2000/svg"
   xmlns="http://www.w3.org/2000/svg"
   xmlns:sodipodi="http://sodipodi.sourceforge.net/DTD/sodipodi-0.dtd"
   xmlns:inkscape="http://www.inkscape.org/namespaces/inkscape"
   version="1.1"
   x="0px"
   y="0px"
   viewBox="0 0 48 60"
   enable-background="new 0 0 48 48"
   xml:space="preserve"
   id="svg16"
   sodipodi:docname="Agricultural Insurance_1.svg"
   inkscape:version="0.92.3 (2405546, 2018-03-11)"><metadata
     id="metadata22"><rdf:RDF><cc:Work
         rdf:about=""><dc:format>image/svg+xml</dc:format><dc:type
           rdf:resource="http://purl.org/dc/dcmitype/StillImage" /></cc:Work></rdf:RDF></metadata><defs
     id="defs20" /><sodipodi:namedview
     pagecolor="#ffffff"
     bordercolor="#666666"
     borderopacity="1"
     objecttolerance="10"
     gridtolerance="10"
     guidetolerance="10"
     inkscape:pageopacity="0"
     inkscape:pageshadow="2"
     inkscape:window-width="1366"
     inkscape:window-height="664"
     id="namedview18"
     showgrid="false"
     inkscape:zoom="3.9333333"
     inkscape:cx="-36.70765"
     inkscape:cy="30"
     inkscape:window-x="0"
     inkscape:window-y="27"
     inkscape:window-maximized="1"
     inkscape:current-layer="svg16" /><path
     d="M22.892,40l-0.404-3.625c-0.021-0.203-0.188-0.482-0.367-0.623l-3.998-3.088c-0.18-0.141-0.529-0.252-0.775-0.246  c0,0-1.949,0.031,1.398,3.281l-3.002-1.328c-0.217-0.096-0.391-0.342-0.385-0.547L15.45,30.8c-0.143-1.516-1.389-1.307-1.389-1.307  c-0.24,0.041-0.457,0.24-0.48,0.445l-0.584,4.973c-0.023,0.203,0.084,0.5,0.24,0.658L17.585,40H22.892z"
     id="path2"
     style="fill:#cba145;fill-opacity:1" /><path
     d="M30.659,40l4.348-4.43c0.156-0.158,0.264-0.455,0.24-0.658l-0.582-4.973c-0.023-0.205-0.24-0.404-0.48-0.445  c0,0-1.248-0.209-1.391,1.307l0.092,3.023c0.008,0.205-0.168,0.451-0.385,0.547l-3.002,1.328c3.35-3.25,1.4-3.281,1.4-3.281  c-0.248-0.006-0.598,0.105-0.777,0.246l-3.998,3.088c-0.18,0.141-0.346,0.42-0.369,0.623L25.354,40H30.659z"
     id="path4"
     style="fill:#cba145;fill-opacity:1" /><path
     d="M16.771,31.105h14.703c0-2.014-1.633-3.646-3.646-3.646h-2.318c-0.08-0.307-0.186-0.613-0.316-0.912L25.081,26.3  c-0.039-0.082-0.086-0.16-0.127-0.24c-0.082-0.16-0.182-0.313-0.281-0.463c-0.098-0.15-0.211-0.291-0.318-0.432  c-0.119-0.133-0.229-0.268-0.355-0.387c-0.242-0.246-0.51-0.455-0.771-0.631c-0.17-0.111-0.34-0.205-0.508-0.287  c0.201-1.465,0.223-4.85-3.49-6.178c-2.158-0.771-3.342-0.014-5.967-0.828c-1.418-0.439-0.27,9.873,8.283,7.98  c0.006,0.01,0.01,0.018,0.016,0.027c0.115,0.189,0.234,0.389,0.352,0.598c0.115,0.211,0.236,0.424,0.348,0.652  c0.061,0.109,0.111,0.229,0.172,0.342c0.027,0.057,0.055,0.117,0.082,0.176c0.029,0.059,0.061,0.115,0.086,0.176  c0.055,0.119,0.111,0.238,0.164,0.361c0.045,0.096,0.086,0.193,0.129,0.291h-2.477C18.403,27.458,16.771,29.091,16.771,31.105z"
     id="path6"
     style="fill:#cba145;fill-opacity:1" /><path
     d="M30.657,15.21c-2.143,1.236-3.334,0.805-5.076,1.91c-3.875,2.461-1.586,6.705-1.586,6.705  C32.938,24.578,31.86,14.517,30.657,15.21z M28.872,19.773c-0.633,0.91-1.344,1.934-3.783,2.639c0,0,3.416-2.617,4.848-5.41  C29.937,17.001,29.505,18.863,28.872,19.773z"
     id="path8"
     style="fill:#cba145;fill-opacity:1" /><path
     d="M24.642,12.31c-0.844-1.803-2.037-2.068-3.143-4.186c-0.619-1.189-6.711,6.443,0.959,10.467  C22.458,18.591,26.521,16.324,24.642,12.31z M20.589,12.763c-0.045-1.068,0.57-2.807,0.57-2.807  c-0.283,3.016,1.143,6.918,1.143,6.918C20.681,15.037,20.632,13.832,20.589,12.763z"
     id="path10"
     style="fill:#cba145;fill-opacity:1" /></svg>