<?xml version="1.0" encoding="utf-8"?>
<!-- Generator: Adobe Illustrator 15.1.0, SVG Export Plug-In . SVG Version: 6.00 Build 0)  -->
<!DOCTYPE svg PUBLIC "-//W3C//DTD SVG 1.1//EN" "http://www.w3.org/Graphics/SVG/1.1/DTD/svg11.dtd">
<svg version="1.1" id="Layer_1" xmlns="http://www.w3.org/2000/svg" xmlns:xlink="http://www.w3.org/1999/xlink" x="0px" y="0px"
	 width="128px" height="128px" viewBox="0 0 128 128" enable-background="new 0 0 128 128" xml:space="preserve">
<g>
	<path fill="#CBA145" d="M121.97,79.516c-2.229-0.271-4.457-0.542-6.686-0.813c-1.948-0.237-2.955-1.822-3.631-3.462
		c-0.491-1.193-1.108-2.395-1.489-3.628c-0.943-3.058,2.213-5.804,3.906-7.966c0.873-1.115,1.784-2.17,1.326-3.721
		c-0.326-1.108-1.479-1.966-2.266-2.753c-1.721-1.722-4.576-5.874-7.353-3.7c-0.997,0.781-1.995,1.563-2.991,2.343
		c-0.876,0.686-1.754,1.561-2.746,2.083c-1.802,0.947-3.482,0.231-5.18-0.469c-1.293-0.532-2.955-0.969-3.96-1.979
		c-1.126-1.133-1.245-2.448-1.425-3.921c-0.181-1.486-0.361-2.973-0.543-4.459c-0.195-1.611-1.056-3.188-2.923-3.188
		c-1.06-0.056-2.138,0-3.198,0c-2.514,0-6.447-0.707-6.87,2.773c-0.169,1.386-0.337,2.771-0.505,4.157
		c-0.146,1.2-0.144,2.585-0.762,3.657c-0.892,1.547-2.447,2.027-3.988,2.663c-1.527,0.63-3.061,1.494-4.764,1.158
		c-1.302-0.257-2.27-1.211-3.28-2.003c-1.125-0.881-2.25-1.762-3.375-2.643c-1.297-1.017-2.972-1.074-4.185,0.139
		c-0.948,0.947-1.896,1.895-2.843,2.843c-0.761,0.761-1.629,1.487-2.307,2.327c-1.146,1.421-0.522,2.974,0.452,4.219
		c0.931,1.188,1.862,2.378,2.793,3.567c0.905,1.155,1.696,2.182,1.658,3.763c-0.034,1.377-0.878,2.832-1.394,4.084
		c-0.668,1.622-1.273,3.183-3.059,3.895c-1.058,0.422-2.382,0.408-3.496,0.544c-1.305,0.158-2.609,0.317-3.914,0.476
		c-3.444,0.42-2.635,4.822-2.635,7.248c0,1.068-0.167,2.296,0.058,3.353c0.371,1.743,1.869,2.221,3.396,2.407
		c1.506,0.183,3.013,0.366,4.52,0.55c1.568,0.19,2.956,0.48,3.997,1.844c0.811,1.062,1.214,2.621,1.717,3.842
		c0.662,1.605,1.217,3.192,0.31,4.871c-0.528,0.978-1.385,1.845-2.065,2.713c-0.781,0.998-1.562,1.995-2.342,2.992
		c-2.133,2.724,1.739,5.393,3.431,7.084c0.77,0.77,1.62,1.928,2.637,2.391c1.66,0.757,2.887-0.229,4.106-1.184
		c2.208-1.729,5.341-5.287,8.461-3.707c2.452,0.973,6.226,1.871,6.603,4.98c0.152,1.257,0.306,2.514,0.459,3.771
		c0.131,1.084,0.113,2.351,0.471,3.395c0.572,1.667,2.099,1.979,3.627,1.979c1.531,0,3.064,0,4.596,0
		c1.305,0,2.645,0.163,3.672-0.833c0.969-0.938,0.941-2.349,1.094-3.598c0.355-2.932,0.094-6.776,3.338-8.112
		c2.584-1.065,5.701-3.042,8.3-1.007c1.099,0.86,2.198,1.722,3.298,2.582c0.942,0.738,2.002,1.856,3.248,1.985
		c1.613,0.166,2.533-0.98,3.546-1.992c1.083-1.083,2.167-2.167,3.251-3.25c1.08-1.08,1.938-2.381,1.164-3.963
		c-0.485-0.992-1.395-1.875-2.067-2.734c-0.78-0.998-1.562-1.995-2.343-2.992c-1.094-1.398-0.945-3.129-0.312-4.669
		c0.983-2.384,1.779-5.874,4.835-6.245c2.17-0.265,4.339-0.528,6.509-0.792c3.136-0.382,2.635-3.788,2.635-6.055
		C124.487,84.095,125.209,79.908,121.97,79.516C121.97,79.516,123.354,79.684,121.97,79.516z M119.487,87.66
		c-2.786,0.339-5.88,0.34-8.331,1.857c-3.062,1.896-4.064,5.1-5.357,8.237c-0.936,2.267-1.07,4.726-0.232,7.055
		c0.535,1.483,1.516,2.64,2.471,3.86c0.293,0.374,1.998,2.095,1.643,2.448c-0.271,0.272-2.137,2.35-2.327,2.201
		c-2.564-2.008-4.984-4.401-8.386-4.74c-2.119-0.211-3.939,0.426-5.85,1.213c-1.346,0.555-2.832,1.026-4.069,1.799
		c-2.054,1.284-3.64,3.414-4.194,5.78c-0.299,1.275-0.367,2.629-0.525,3.926c-0.066,0.548-0.133,1.095-0.199,1.643
		c-0.025,0.212-0.95,0.09-1.137,0.09c-0.688,0-1.377,0-2.066,0c-0.375,0-0.263-0.376-0.304-0.717
		c-0.435-3.579-0.604-7.021-3.455-9.658c-1.276-1.181-2.815-1.773-4.39-2.422c-1.568-0.647-3.147-1.445-4.85-1.641
		c-2.395-0.274-4.873,0.357-6.776,1.848c-1.06,0.83-2.12,1.66-3.181,2.49c-0.167,0.132-0.477,0.536-0.657,0.356
		c-0.509-0.509-1.017-1.018-1.526-1.526c-0.084-0.084-0.836-0.743-0.77-0.827c0.35-0.447,0.7-0.894,1.05-1.341
		c0.81-1.034,1.727-2.047,2.418-3.168c1.312-2.129,1.678-4.853,1.047-7.266c-0.364-1.392-1.06-2.753-1.607-4.08
		c-0.699-1.695-1.449-3.241-2.844-4.499c-2.666-2.403-6.041-2.469-9.403-2.878c-0.421-0.051-0.339-0.065-0.339-0.502
		c0-0.78,0-1.561,0-2.341c0-0.373-0.139-0.592,0.24-0.638c0.689-0.084,1.379-0.168,2.069-0.251c1.386-0.169,2.851-0.236,4.179-0.696
		c2.291-0.793,4.3-2.53,5.373-4.71c0.599-1.217,1.054-2.527,1.57-3.781c0.756-1.835,1.236-3.61,0.981-5.623
		c-0.416-3.287-2.747-5.646-4.703-8.143c-0.149-0.19,1.929-2.056,2.201-2.328c0.354-0.354,2.074,1.351,2.448,1.644
		c1.253,0.981,2.441,1.984,3.972,2.519c2.385,0.833,4.812,0.601,7.112-0.348c1.146-0.473,2.291-0.945,3.437-1.418
		c2.2-0.907,3.99-2.494,5.061-4.641c0.713-1.429,0.866-2.927,1.055-4.48c0.045-0.371,0.186-3.082,0.5-3.082
		c0.345,0,3.271-0.101,3.289,0.041c0.158,1.303,0.316,2.605,0.475,3.907c0.483,3.974,2.66,6.874,6.376,8.405
		c1.188,0.49,2.375,0.983,3.562,1.478c2.551,1.063,5.643,0.853,8.045-0.504c1.189-0.672,2.247-1.641,3.318-2.479
		c0.467-0.365,0.934-0.731,1.4-1.097c0.258-0.202,0.6,0.378,0.791,0.569c0.504,0.504,1.008,1.007,1.511,1.511
		c0.323,0.323,0.156,0.332-0.126,0.692c-0.846,1.079-1.69,2.158-2.536,3.237c-2.2,2.81-2.398,6.46-1.071,9.68
		c1.023,2.481,1.824,5.158,3.877,7.009c2.331,2.103,5.065,2.351,8.011,2.708c0.548,0.067,1.732-0.108,1.732,0.541
		C119.487,85.606,119.487,86.634,119.487,87.66L119.487,87.66z"/>
	<path fill="#CBA145" d="M82.413,65.781c-9.126,0-17.339,6.399-19.567,15.253C60.601,89.96,64.884,99.501,73.01,103.8
		c8.158,4.317,18.479,2.378,24.561-4.545c6.088-6.929,6.646-17.424,1.305-24.95C95.116,69.01,88.91,65.781,82.413,65.781
		C71.289,65.781,93.537,65.781,82.413,65.781z M82.413,101.129c-9.456,0-16.747-8.933-14.872-18.199
		c1.865-9.22,12.035-14.609,20.717-10.981c6.612,2.762,10.447,10.01,9.027,17.032C95.872,95.968,89.535,101.129,82.413,101.129
		C74.033,101.129,90.794,101.129,82.413,101.129z"/>
	<path fill="#CBA145" d="M47.557,38.859c4.527,0,8.713-2.819,10.428-7.007c1.739-4.243,0.657-9.239-2.655-12.402
		c-3.313-3.163-8.36-4.009-12.518-2.07c-4.114,1.918-6.729,6.241-6.506,10.776C36.598,34.066,41.641,38.859,47.557,38.859
		C53.768,38.859,41.346,38.859,47.557,38.859z M47.557,21.331c3.41,0,6.264,2.854,6.264,6.264s-2.854,6.265-6.264,6.265
		s-6.264-2.855-6.264-6.265S44.147,21.331,47.557,21.331C51.01,21.331,44.103,21.331,47.557,21.331z"/>
	<path fill="#CBA145" d="M25.472,33.926c0.469,0.057,1.138,0.008,1.57,0.19c0.523,0.311,2.028,1.711,1.901,2.353
		c-0.296,1.492-1.922,2.494-2.37,3.997c-0.612,2.054,0.062,4.109,1.543,5.591c1.362,1.361,2.638,2.622,4.7,2.737
		c2.047,0.114,3.455-0.991,4.959-2.171c1.021-0.8,1.71-0.064,2.507,0.659c0.74,0.672,0.778,1.041,0.895,1.992
		c0.25,2.052,1.331,3.829,3.28,4.681c1.325,0.579,2.955,0.511,4.38,0.434c2.25-0.12,4.265-1.745,4.887-3.906
		c0.189-0.656,0.231-1.359,0.313-2.034c0.034-0.276,0.051-0.569,0.134-0.837c0.248-0.791,0.671-0.809,1.424-0.897
		c0.911-0.106,1.612-0.193,2.325,0.365c0.771,0.604,1.51,1.192,2.467,1.485c2.245,0.686,4.278-0.177,5.858-1.757
		c1.352-1.351,2.498-2.679,2.521-4.717c0.021-1.917-1.026-3.237-2.138-4.658c-0.694-0.886-0.395-1.355,0.247-2.137
		c0.638-0.776,1.015-1.158,1.98-1.274c2.019-0.245,3.782-0.986,4.823-2.85c0.799-1.429,0.678-2.988,0.678-4.561
		c0-2.176-1.393-4.198-3.407-5.009c-1.01-0.406-3.97-0.162-4.19-1.431c-0.107-0.615-0.438-2.021-0.018-2.56
		c0.471-0.601,1.004-1.191,1.371-1.863c1.123-2.051,0.762-4.736-0.895-6.395c-1.07-1.134-2.178-2.32-3.725-2.758
		c-2.265-0.641-4.056,0.325-5.774,1.672c-0.696,0.545-1.246,0.931-2.036,0.342c-0.665-0.495-1.549-1.069-1.655-1.937
		c-0.24-1.969-0.713-3.721-2.447-4.921c-1.489-1.031-3.128-0.958-4.846-0.958c-2.063,0-3.977,1.073-4.948,2.922
		c-0.382,0.728-0.526,1.496-0.624,2.301c-0.09,0.742-0.074,1.696-0.608,2.282c-0.633,0.155-2.359,0.598-2.92,0.158
		c-0.568-0.444-1.123-0.944-1.744-1.315c-2.119-1.268-4.902-0.883-6.636,0.852c-1.194,1.193-2.421,2.279-2.789,4.017
		c-0.44,2.076,0.419,3.707,1.652,5.28c0.455,0.58,1.106,1.25,0.606,1.963c-0.506,0.723-1.161,1.757-2.091,1.87
		c-2.153,0.261-4.068,0.865-5.202,2.895c-0.81,1.45-0.756,3.239-0.67,4.857C20.899,31.416,22.945,33.618,25.472,33.926
		C25.472,33.926,22.827,33.604,25.472,33.926z M25.756,26.589c0-0.533,1.242-0.474,1.55-0.511c0.798-0.097,1.525-0.265,2.229-0.677
		c1.52-0.89,2.699-2.354,3.627-3.825c0.99-1.568,0.981-3.399,0.297-5.106c-0.315-0.785-0.776-1.46-1.294-2.121
		c-0.209-0.267-1.117-1.076-0.72-1.474c0.425-0.426,0.85-0.851,1.275-1.276c0.466-0.466,0.919,0.081,1.302,0.381
		c1.793,1.404,3.641,1.725,5.918,1.482c2.498-0.265,4.409-1.223,5.47-3.607c0.335-0.752,0.508-1.533,0.607-2.346
		c0.04-0.322-0.021-1.714,0.531-1.714c0.417-0.171,1.245,0,1.697,0c0.69,0,0.688,0.415,0.759,1.004
		c0.219,1.793,0.762,3.143,2.077,4.447c0.885,0.878,1.942,1.725,3.06,2.295c2.018,1.023,4.651,0.236,6.333-1.081
		c0.359-0.281,0.871-0.888,1.303-1.021c0.432-0.335,1.241,0.789,1.453,1.002c0.342,0.341,0.725,0.617,0.351,1.095
		c-0.409,0.522-0.875,1.033-1.218,1.604c-0.999,1.66-0.87,3.851-0.554,5.687c0.265,1.54,0.775,2.805,2.077,3.797
		c1.48,1.128,3.163,1.364,4.943,1.581c0.602,0.072,0.525,0.539,0.525,1.022c0,0.318,0.225,1.668-0.318,1.737
		c-0.404,0.21-1.188,0.144-1.643,0.199c-0.892,0.108-1.692,0.49-2.41,1.02c-1.322,0.973-2.381,2.329-3.219,3.73
		c-1.025,1.714-0.658,3.917,0.258,5.599c0.418,0.768,2.227,2.221,1.437,3.011c-0.318,0.318-0.787,1.03-1.201,1.201
		c-0.389,0.39-1.346-0.648-1.588-0.838c-1.854-1.453-4.289-1.404-6.517-1.013c-2.372,0.416-4.003,1.914-4.742,4.216
		c-0.222,0.693-0.13,3.309-1.037,3.309c-0.601,0-1.203,0-1.804,0c-0.562,0-0.493-1.214-0.534-1.551
		c-0.221-1.817-1.163-3.178-2.521-4.379c-0.949-0.839-2.119-1.802-3.377-2.129c-2.279-0.591-4.381,0.512-6.118,1.873
		c-0.294,0.23-0.83,0.853-1.231,0.45c-0.449-0.449-0.898-0.898-1.347-1.348c-0.378-0.378,0.41-1.076,0.61-1.331
		c0.555-0.709,1.066-1.418,1.405-2.262c1.31-3.266-0.453-6.164-2.954-8.244c-1.253-1.041-2.531-1.283-4.085-1.472
		C25.363,28.876,25.756,27.404,25.756,26.589C25.756,26.456,25.756,26.589,25.756,26.589z"/>
	<path fill="#CBA145" d="M23.256,58.795c-4.525,0-8.529,3.355-9.311,7.815c-0.786,4.479,1.846,9.003,6.126,10.539
		c4.295,1.541,9.2-0.314,11.432-4.284c2.239-3.984,1.218-9.136-2.338-11.991C27.497,59.535,25.395,58.795,23.256,58.795
		C18.043,58.795,28.468,58.795,23.256,58.795z M23.256,72.701c-2.424,0-4.453-2.029-4.453-4.453s2.029-4.453,4.453-4.453
		s4.453,2.029,4.453,4.453S25.68,72.701,23.256,72.701C20.8,72.701,25.711,72.701,23.256,72.701z"/>
	<path fill="#CBA145" d="M39.281,76.355c-0.281-0.289-0.276-0.729-0.289-1.11c-0.019-0.562-0.143-1.044,0.446-1.236
		c0.994-0.323,1.966-0.299,2.908-0.854c1.871-1.105,2.688-3.022,2.688-5.123c0-2.189-1.368-4.224-3.403-5.043
		c-0.833-0.336-1.804-0.251-2.598-0.67c-0.062-0.522-0.07-1.069,0-1.592c0.069-0.511,0.469-0.849,0.711-1.292
		c2.413-4.41-2.327-9.722-6.995-7.985c-0.926,0.345-1.592,1.146-2.518,1.449c-0.416-0.329-0.812-0.71-1.136-1.131
		c-0.311-0.402-0.268-0.907-0.405-1.386c-0.622-2.161-2.636-3.786-4.887-3.907c-2.02-0.107-3.938,0.559-5.164,2.239
		c-0.594,0.813-0.895,1.731-1.014,2.722c-0.047,0.389-0.089,1.019-0.537,1.055c-0.555,0.046-1.204,0.081-1.739-0.108
		c-0.45-0.196-0.826-0.604-1.293-0.812c-0.591-0.262-1.229-0.414-1.875-0.452c-1.315-0.078-2.653,0.323-3.69,1.141
		c-1.636,1.289-2.62,3.239-2.328,5.347c0.143,1.03,0.586,1.923,1.222,2.733c0.247,0.315,0.657,0.779,0.359,1.126
		c-0.355,0.412-0.794,0.929-1.303,1.154c-0.961,0.358-1.838,0.369-2.721,1.014c-0.93,0.678-1.64,1.648-1.994,2.744
		c-0.601,1.861-0.239,4.086,1.026,5.584c0.688,0.814,1.611,1.427,2.637,1.723c0.377,0.108,0.757,0.136,1.139,0.204
		c0.824,0.102,0.988,0.283,0.991,1.084c0.004,1.147-0.577,1.581-0.996,2.591c-0.458,1.102-0.534,2.35-0.229,3.502
		c0.529,2.002,2.33,3.735,4.347,4.188c1.242,0.279,2.571,0.118,3.704-0.468c0.391-0.202,0.713-0.477,1.071-0.725
		c0.653-0.513,0.89-0.492,1.459,0.07c0.277,0.273,0.715,0.646,0.764,1.055c0.06,0.493,0.167,0.973,0.354,1.436
		c0.431,1.069,1.211,1.984,2.188,2.594c1.635,1.021,3.955,1.116,5.682,0.259c0.951-0.472,1.759-1.223,2.298-2.137
		c0.555-0.94,0.531-1.909,0.852-2.901c0.262-0.811,1.732-0.509,2.348-0.162c1.095,0.857,2.527,1.234,3.904,1.08
		c2.087-0.233,4.041-1.799,4.78-3.766C40.699,79.853,40.43,77.821,39.281,76.355C39.281,76.355,40.923,78.45,39.281,76.355z
		 M34.339,72.284c-0.559,1.686-0.511,3.858,0.069,5.521c0.128,0.365,1.25,1.767,0.907,2.112c-0.391,0.842-1.069,0.217-1.549-0.076
		c-1.867-1.136-5.269-1.323-7.178-0.19c-0.916,0.544-1.571,1.447-2.006,2.402c-0.225,0.494-0.397,1.013-0.516,1.542
		c-0.072,0.32-0.027,0.985-0.246,1.253c-0.398,0.486-1.166,0.147-1.23-0.392c-0.135-1.118-0.682-2.116-1.38-2.984
		c-1.213-1.508-2.933-3.045-4.99-2.921c-1.299,0.079-2.565,0.62-3.616,1.371c-0.445,0.318-1.273,0.752-1.475-0.147
		c-0.074-0.333,0.231-0.566,0.4-0.813c0.294-0.43,0.505-0.912,0.656-1.409c0.324-1.069,0.386-2.214,0.312-3.323
		c-0.137-2.032-0.902-3.583-2.798-4.537c-0.886-0.445-1.834-0.679-2.813-0.799c-0.593-0.072-0.587-1.218,0.002-1.292
		c2.108-0.267,3.802-1.734,5.047-3.381c1.443-1.908,1.175-4.169-0.042-6.154c-0.393-0.64-1.1-1.088-0.444-1.743
		c0.549-0.549,1.454,0.459,1.998,0.681c2.03,0.824,5.369,0.915,7.098-0.617c0.805-0.714,1.347-1.696,1.684-2.708
		c0.143-0.428,0.184-2.212,0.81-2.212c0.917,0,0.794,0.401,0.991,1.174c0.291,1.141,1.008,2.144,1.805,2.988
		c0.833,0.881,1.907,1.888,3.121,2.188c1.807,0.445,3.808-0.339,5.22-1.446c0.428-0.271,0.626-0.309,1.002,0.068
		c0.48,0.479-0.072,0.872-0.334,1.31c-0.835,1.393-0.947,3.163-0.81,4.745c0.114,1.314,0.433,2.493,1.449,3.412
		c0.601,0.543,1.325,0.941,2.081,1.223c0.42,0.157,0.854,0.277,1.294,0.361c0.216,0.041,0.659,0.013,0.858,0.123
		c0.379,0.048,0.425,0.808,0.264,1.058c-0.28,0.436-1.442,0.389-1.898,0.523C36.516,69.657,34.877,70.653,34.339,72.284
		C33.988,73.342,34.992,70.307,34.339,72.284z"/>
</g>
</svg>
