<?xml version="1.0" encoding="utf-8"?>
<!-- Generator: Adobe Illustrator 15.1.0, SVG Export Plug-In . SVG Version: 6.00 Build 0)  -->
<!DOCTYPE svg PUBLIC "-//W3C//DTD SVG 1.1//EN" "http://www.w3.org/Graphics/SVG/1.1/DTD/svg11.dtd">
<svg version="1.1" id="Layer_1" xmlns="http://www.w3.org/2000/svg" xmlns:xlink="http://www.w3.org/1999/xlink" x="0px" y="0px"
	 width="128px" height="128px" viewBox="0 0 128 128" enable-background="new 0 0 128 128" xml:space="preserve">
<g>
	<path fill="#CBA145" d="M115.659,68.699c-0.264-0.157-0.526-0.301-0.787-0.446c4.768-1.828,8.168-6.44,8.168-11.845
		c0-6.371-4.72-11.66-10.844-12.557c-4.923-8.831-11.521-16.252-19.203-21.572c-8.767-6.07-18.794-9.278-28.994-9.278
		c-10.203,0-20.228,3.208-28.995,9.278c-7.683,5.319-14.281,12.74-19.203,21.572C9.675,44.748,4.958,50.038,4.958,56.408
		c0,5.404,3.401,10.017,8.17,11.845c-0.262,0.146-0.523,0.289-0.787,0.446C6.804,72.017,0.207,78.819,0.207,92.383
		c0,15.622,13.713,22.616,27.304,22.616c6.524,0,11.53-3.349,16.37-6.59c5.494-3.674,11.174-7.477,20.12-7.477
		c8.945,0,14.626,3.803,20.119,7.479c4.841,3.239,9.847,6.588,16.369,6.588c13.59,0,27.305-6.994,27.305-22.616
		C127.793,78.821,121.193,72.017,115.659,68.699z M9.634,56.408c0-4.426,3.589-8.015,8.015-8.015h1.031
		c9.366-18.429,26.157-30.715,45.32-30.715c19.163,0,35.952,12.286,45.32,30.715h1.03c4.427,0,8.015,3.59,8.015,8.015
		c0,4.427-3.588,8.016-8.015,8.016H17.648C13.223,64.424,9.634,60.835,9.634,56.408z M100.488,110.323
		c-11.567,0-17.938-14.066-36.488-14.066s-24.921,14.066-36.489,14.066c-7.22,0-22.628-2.755-22.628-17.94
		c0-22.018,19.723-22.831,19.723-22.831H64h39.395c0,0,19.722,0.813,19.722,22.831C123.116,107.568,107.708,110.323,100.488,110.323
		z"/>
	<path fill="#CBA145" d="M41.197,74.796c-0.833,0-1.354,0.056-1.354,0.056s-23.086,0.631-23.086,15.084
		c0,8.116,11.239,8.624,14.046,8.624c0.401,0,0.631-0.01,0.631-0.01s21.251-1.837,21.251-14.526
		C52.686,75.641,44.496,74.796,41.197,74.796z M31.118,93.879c-0.073,0.002-0.179,0.004-0.314,0.004c-0.878,0-3.944-0.07-6.487-0.99
		c-2.883-1.04-2.883-2.287-2.883-2.957c0-9.634,18.353-10.406,18.538-10.41c0.117-0.003,0.234-0.011,0.35-0.022H40.32
		c0.004,0,0.345-0.028,0.876-0.028c6.813,0,6.813,3.306,6.813,4.551C48.01,91.693,32.485,93.719,31.118,93.879z"/>
	<path fill="#CBA145" d="M88.155,74.852c0,0-0.521-0.056-1.354-0.056c-3.298,0-11.489,0.845-11.489,9.228
		c0,12.691,21.252,14.526,21.252,14.526s0.229,0.01,0.63,0.01c2.811,0,14.049-0.508,14.049-8.622
		C111.242,75.482,88.155,74.852,88.155,74.852z M103.684,92.893c-2.545,0.92-5.611,0.99-6.49,0.99c-0.134,0-0.24-0.002-0.315-0.004
		c-1.332-0.154-16.891-2.176-16.891-9.855c0-1.245,0-4.551,6.813-4.551c0.55,0,0.896,0.032,0.898,0.032
		c0.117,0.012,0.209,0.018,0.328,0.021c0.176,0.004,18.538,0.84,18.538,10.41C106.566,90.605,106.566,91.853,103.684,92.893z"/>
</g>
</svg>
