<?xml version="1.0" encoding="UTF-8" standalone="no"?>
<!-- Generator: Adobe Illustrator 15.1.0, SVG Export Plug-In . SVG Version: 6.00 Build 0)  -->

<svg
   xmlns:dc="http://purl.org/dc/elements/1.1/"
   xmlns:cc="http://creativecommons.org/ns#"
   xmlns:rdf="http://www.w3.org/1999/02/22-rdf-syntax-ns#"
   xmlns:svg="http://www.w3.org/2000/svg"
   xmlns="http://www.w3.org/2000/svg"
   xmlns:sodipodi="http://sodipodi.sourceforge.net/DTD/sodipodi-0.dtd"
   xmlns:inkscape="http://www.inkscape.org/namespaces/inkscape"
   version="1.1"
   id="Layer_1"
   x="0px"
   y="0px"
   width="128px"
   height="128px"
   viewBox="0 0 128 128"
   enable-background="new 0 0 128 128"
   xml:space="preserve"
   sodipodi:docname="BusinessInsurance.svg"
   inkscape:version="0.92.3 (2405546, 2018-03-11)"><metadata
   id="metadata13"><rdf:RDF><cc:Work
       rdf:about=""><dc:format>image/svg+xml</dc:format><dc:type
         rdf:resource="http://purl.org/dc/dcmitype/StillImage" /></cc:Work></rdf:RDF></metadata><defs
   id="defs11" /><sodipodi:namedview
   pagecolor="#ffffff"
   bordercolor="#666666"
   borderopacity="1"
   objecttolerance="10"
   gridtolerance="10"
   guidetolerance="10"
   inkscape:pageopacity="0"
   inkscape:pageshadow="2"
   inkscape:window-width="1440"
   inkscape:window-height="872"
   id="namedview9"
   showgrid="false"
   inkscape:zoom="1.84375"
   inkscape:cx="64"
   inkscape:cy="64"
   inkscape:window-x="1366"
   inkscape:window-y="0"
   inkscape:window-maximized="1"
   inkscape:current-layer="Layer_1" />
<g
   id="g6">
	<path
   fill="#CBA145"
   d="M110.75,18.917H98.768C97.161,10.342,89.62,3.834,80.587,3.834H47.416c-9.034,0-16.577,6.508-18.184,15.083   H17.25c-8.072,0-15.404,7.003-14.993,15.265l1.824,34.324c0.063,1.171,0.539,2.27,1.322,3.119c-0.684,0.92-1.046,2.064-0.983,3.25   l1.831,34.438c0.079,8.204,6.777,14.854,15,14.854h85.5c8.223,0,14.921-6.649,14.999-14.854l1.822-34.271   c0.104-1.216-0.256-2.431-0.983-3.407c0.789-0.852,1.269-1.954,1.331-3.129l1.824-34.323   C126.156,25.92,118.82,18.917,110.75,18.917C110.75,18.917,119.021,18.917,110.75,18.917z M17.25,23.917h16.666v-1.583   c0-4.512,2.329-8.803,6.094-11.283c2.439-1.606,5.191-2.217,8.075-2.217c5.073,0,10.146,0,15.219,0c5.761,0,11.522,0,17.283,0   c7.441,0,13.497,6.056,13.497,13.5v1.583h16.666c5.522,0,10,4.477,10,10l-1.824,34.323c-5.896,4.65-13.021,7.744-20.146,9.967   c-7.477,2.332-15.236,3.729-23.03,4.428v-1.275c0-6.396-5.354-11.75-11.75-11.75c-6.396,0-11.75,5.354-11.75,11.75v1.275   c-7.799-0.699-15.565-2.098-23.045-4.433c-7.122-2.223-14.237-5.314-20.13-9.962L7.25,33.917   C7.25,28.394,11.727,23.917,17.25,23.917C17.25,23.917,11.727,23.917,17.25,23.917z M57.25,89.797v-2.135v-5.027v-1.275   c0-3.675,3.076-6.75,6.75-6.75c3.675,0,6.75,3.075,6.75,6.75v1.275v5.027v2.135c0,3.674-3.075,6.75-6.75,6.75   C60.326,96.547,57.25,93.471,57.25,89.797C57.25,89.797,57.25,93.519,57.25,89.797z M116.75,109.166c0,5.523-4.478,10-10,10h-85.5   c-5.523,0-10-4.477-10-10L9.413,74.613c12.56,8.223,28.059,11.772,42.837,13.049v2.135c0,6.396,5.354,11.75,11.75,11.75   c6.396,0,11.75-5.354,11.75-11.75v-2.135c14.776-1.276,30.28-4.824,42.837-13.049L116.75,109.166   C116.75,114.689,116.75,109.166,116.75,109.166z"
   id="path2" />
	<path
   fill="#CBA145"
   d="M87.084,22.334c0-3.687-3.082-6.5-6.688-6.5c-1.604,0-3.207,0-4.811,0c-6.224,0-12.448,0-18.672,0   c-3.167,0-6.333,0-9.5,0c-3.581,0-6.497,2.916-6.497,6.5v1.583h46.168V22.334C87.084,18.75,87.084,22.334,87.084,22.334z"
   id="path4" />
</g>
</svg>