<?xml version="1.0" encoding="UTF-8" standalone="no"?>
<svg
   xmlns:dc="http://purl.org/dc/elements/1.1/"
   xmlns:cc="http://creativecommons.org/ns#"
   xmlns:rdf="http://www.w3.org/1999/02/22-rdf-syntax-ns#"
   xmlns:svg="http://www.w3.org/2000/svg"
   xmlns="http://www.w3.org/2000/svg"
   xmlns:sodipodi="http://sodipodi.sourceforge.net/DTD/sodipodi-0.dtd"
   xmlns:inkscape="http://www.inkscape.org/namespaces/inkscape"
   version="1.1"
   x="0px"
   y="0px"
   viewBox="0 0 48 60"
   enable-background="new 0 0 48 48"
   xml:space="preserve"
   id="svg20"
   sodipodi:docname="Business INsurance_2.svg"
   inkscape:version="0.92.3 (2405546, 2018-03-11)"><metadata
     id="metadata26"><rdf:RDF><cc:Work
         rdf:about=""><dc:format>image/svg+xml</dc:format><dc:type
           rdf:resource="http://purl.org/dc/dcmitype/StillImage" /></cc:Work></rdf:RDF></metadata><defs
     id="defs24" /><sodipodi:namedview
     pagecolor="#ffffff"
     bordercolor="#666666"
     borderopacity="1"
     objecttolerance="10"
     gridtolerance="10"
     guidetolerance="10"
     inkscape:pageopacity="0"
     inkscape:pageshadow="2"
     inkscape:window-width="1366"
     inkscape:window-height="664"
     id="namedview22"
     showgrid="false"
     inkscape:zoom="3.9333333"
     inkscape:cx="-37.754238"
     inkscape:cy="30"
     inkscape:window-x="0"
     inkscape:window-y="27"
     inkscape:window-maximized="1"
     inkscape:current-layer="svg20" /><path
     d="M39.651,19.115c-1.47-4.733-5.877-8.925-14.396-9.302c-0.199-0.82-0.568-1.652-1.256-1.652  c-0.687,0-1.057,0.832-1.255,1.652c-8.519,0.378-12.927,4.568-14.397,9.301c0,0-0.682,1.321-0.135,1.616  c0.461,0.247,1.063-0.604,1.246-0.89c1.085-0.324,2.373-0.443,3.773-0.443c1.769,0,3.371,0.176,4.59,0.737  c0.114,0.513,0.337,1.059,0.77,1.059c0.422,0,0.643-0.526,0.76-1.03c1.227-0.584,2.853-0.766,4.649-0.766  c1.772,0,3.38,0.178,4.599,0.742c0.115,0.512,0.338,1.054,0.77,1.054c0.423,0,0.645-0.53,0.762-1.035  c1.224-0.58,2.847-0.761,4.639-0.761c1.4,0,2.688,0.119,3.773,0.443c0.184,0.283,0.785,1.137,1.245,0.89  C40.335,20.435,39.651,19.115,39.651,19.115z"
     id="path2"
     style="fill:#cba145;fill-opacity:1" /><path
     d="M12.817,27.268v11.416c0,0.638,0.474,1.155,1.059,1.155h2.084V26.114h-2.084C13.291,26.114,12.817,26.63,12.817,27.268z"
     id="path4"
     style="fill:#cba145;fill-opacity:1" /><path
     d="M34.124,26.114H32.04v13.726h2.084c0.586,0,1.059-0.518,1.059-1.155V27.268C35.183,26.63,34.71,26.114,34.124,26.114z"
     id="path6"
     style="fill:#cba145;fill-opacity:1" /><path
     d="M20.961,24.473c0-0.569,0.462-1.033,1.032-1.033h4.014c0.57,0,1.032,0.464,1.032,1.033v0.943h1.431v-2.1  c0-0.837-0.678-1.518-1.518-1.518h-5.904c-0.84,0-1.52,0.681-1.52,1.518v2.1h1.433V24.473z"
     id="path8"
     style="fill:#cba145;fill-opacity:1" /><path
     d="M18.252,25.285c0-0.191-0.155-0.349-0.348-0.349h-2.357c-0.192,0-0.349,0.157-0.349,0.349v0.464h3.054V25.285z"
     id="path10"
     style="fill:#cba145;fill-opacity:1" /><path
     d="M29.747,25.285c0-0.191,0.156-0.349,0.349-0.349h2.356c0.192,0,0.35,0.157,0.35,0.349v0.464h-3.055V25.285z"
     id="path12"
     style="fill:#cba145;fill-opacity:1" /><path
     d="M28.47,26.114h-1.431h-6.078h-1.433h-2.176v13.726h13.295V26.114H28.47z M26.579,36.015  c-0.486,0.462-1.154,0.74-2.006,0.835v1.039h-1.152V36.85c-1.447-0.171-2.357-0.932-2.729-2.285l2.099-0.391  c0.18,0.617,0.634,0.925,1.362,0.925c0.566,0,0.852-0.155,0.852-0.469c0-0.163-0.066-0.292-0.199-0.382  c-0.131-0.093-0.365-0.174-0.701-0.239c-1.318-0.271-2.156-0.613-2.51-1.027c-0.354-0.418-0.531-0.895-0.531-1.433  c0-0.597,0.193-1.126,0.582-1.587c0.388-0.463,0.979-0.754,1.775-0.874v-1.025h1.152v1.002c1.291,0.144,2.133,0.758,2.531,1.843  l-1.879,0.587c-0.191-0.508-0.584-0.762-1.175-0.762c-0.497,0-0.743,0.16-0.743,0.479c0,0.116,0.041,0.214,0.126,0.297  c0.083,0.082,0.315,0.166,0.695,0.251c0.867,0.188,1.489,0.357,1.864,0.51c0.376,0.149,0.689,0.402,0.94,0.761  c0.25,0.358,0.374,0.778,0.374,1.269C27.308,34.981,27.063,35.555,26.579,36.015z"
     id="path14"
     style="fill:#cba145;fill-opacity:1" /></svg>