<?xml version="1.0" encoding="UTF-8" standalone="no"?>
<svg
   xmlns:dc="http://purl.org/dc/elements/1.1/"
   xmlns:cc="http://creativecommons.org/ns#"
   xmlns:rdf="http://www.w3.org/1999/02/22-rdf-syntax-ns#"
   xmlns:svg="http://www.w3.org/2000/svg"
   xmlns="http://www.w3.org/2000/svg"
   xmlns:sodipodi="http://sodipodi.sourceforge.net/DTD/sodipodi-0.dtd"
   xmlns:inkscape="http://www.inkscape.org/namespaces/inkscape"
   version="1.1"
   x="0px"
   y="0px"
   viewBox="0 0 100 125"
   enable-background="new 0 0 100 100"
   xml:space="preserve"
   id="svg12"
   sodipodi:docname="car insurance_1.svg"
   inkscape:version="0.92.3 (2405546, 2018-03-11)"><metadata
     id="metadata18"><rdf:RDF><cc:Work
         rdf:about=""><dc:format>image/svg+xml</dc:format><dc:type
           rdf:resource="http://purl.org/dc/dcmitype/StillImage" /></cc:Work></rdf:RDF></metadata><defs
     id="defs16" /><sodipodi:namedview
     pagecolor="#ffffff"
     bordercolor="#666666"
     borderopacity="1"
     objecttolerance="10"
     gridtolerance="10"
     guidetolerance="10"
     inkscape:pageopacity="0"
     inkscape:pageshadow="2"
     inkscape:window-width="1366"
     inkscape:window-height="664"
     id="namedview14"
     showgrid="false"
     inkscape:zoom="1.888"
     inkscape:cx="-87.524237"
     inkscape:cy="62.5"
     inkscape:window-x="0"
     inkscape:window-y="27"
     inkscape:window-maximized="1"
     inkscape:current-layer="svg12" /><g
     id="g6"
     style="fill:#cba145;fill-opacity:1"><path
       d="M94.182,49.466c-0.563-2.1-2.6-3.566-4.952-3.566c-0.837,0-1.655,0.187-2.435,0.555c-3.012,1.42-14.034,6.591-18.605,8.614   c0.003-0.083,0.013-0.166,0.013-0.25l-0.101,0.002c-0.434-2.48-2.586-4.379-5.19-4.379H52.646c-2.923,0-5.568-0.814-8.368-1.675   c-2.955-0.909-6.011-1.849-9.551-1.849c-5.916,0-8.762,1.462-12.702,3.485c-1.629,0.837-3.458,1.771-5.783,2.753v-2.715H5.674   v6.229v21.563v0.391h10.569v-3.871c5.212-1.457,11.2-2.258,17.608-2.293l1.016-0.003c6.486,0,10.024,0.378,14.562,1.555   c2.526,0.654,5.021,0.415,7.692-0.744c9.116-3.96,24.188-11.853,32.921-16.895C94.725,53.67,94.496,50.643,94.182,49.466z    M14.481,76.863H7.436v-24.66h7.046V76.863z M89.16,54.848c-8.692,5.019-23.682,12.87-32.742,16.806   c-2.306,1.001-4.405,1.208-6.548,0.654c-4.702-1.22-8.347-1.611-15.003-1.611l-1.026,0.003c-6.366,0.035-12.341,0.814-17.598,2.232   V55.063c2.704-1.104,4.768-2.159,6.587-3.093c3.858-1.982,6.408-3.291,11.897-3.291c3.275,0,6.202,0.9,9.033,1.771   c2.801,0.861,5.697,1.752,8.886,1.752h10.265c1.802,0,3.274,1.362,3.482,3.108c-0.236,2.206-2.089,3.938-4.356,3.938H37.376v1.762   h24.661c2.565,0,4.769-1.577,5.695-3.822c4.037-1.707,19.657-9.066,19.814-9.141c0.543-0.256,1.108-0.385,1.683-0.385   c1.532,0,2.9,0.951,3.251,2.26C92.924,51.578,91.714,53.373,89.16,54.848z"
       id="path2"
       style="fill:#cba145;fill-opacity:1" /><path
       d="M48.828,40.753c0.097,2.964,2.533,5.347,5.52,5.347s5.423-2.383,5.521-5.347h9.703c0.098,2.964,2.533,5.347,5.521,5.347   s5.423-2.383,5.521-5.347h6.973l0.002-1.917c0.002-3.914-2.514-7.304-6.262-8.437l-4.044-1.221l-0.568-0.619   c-3.822-4.171-6.585-7.186-13.239-7.186H63.36c-6.332,0.032-9.03,2.269-13.114,5.653c-0.407,0.336-0.829,0.688-1.274,1.05   c-0.629,0.515-1.157,0.926-1.741,1.133c-2.24,0.798-3.68,2.851-3.668,5.228l0.004,0.999C43.583,38.466,45.843,40.75,48.828,40.753z    M54.348,44.338c-2.078,0-3.768-1.691-3.768-3.769s1.69-3.768,3.768-3.768s3.769,1.69,3.769,3.768S56.426,44.338,54.348,44.338z    M75.092,44.338c-2.078,0-3.769-1.691-3.769-3.769s1.69-3.768,3.769-3.768s3.769,1.69,3.769,3.768S77.17,44.338,75.092,44.338z    M63.806,23.146c5.416,0.091,7.73,2.382,11.197,6.157H63.806V23.146z M51.37,28.383c3.728-3.09,5.926-4.9,10.674-5.199v6.118   H50.255C50.639,28.988,51.014,28.678,51.37,28.383z M47.384,31.064h30.049l3.383,1.022c3.045,0.92,5.011,3.57,5.009,6.75v0.156   H80.39c-0.682-2.282-2.797-3.952-5.298-3.952c-2.5,0-4.616,1.669-5.298,3.952H59.646c-0.681-2.282-2.797-3.952-5.298-3.952   c-2.5,0-4.616,1.669-5.297,3.952h-0.218c-2.052,0-3.493-1.465-3.503-3.562l-0.004-0.999C45.317,32.95,46.099,31.702,47.384,31.064z   "
       id="path4"
       style="fill:#cba145;fill-opacity:1" /></g></svg>