<?xml version="1.0" encoding="utf-8"?>
<!-- Generator: Adobe Illustrator 15.1.0, SVG Export Plug-In . SVG Version: 6.00 Build 0)  -->
<!DOCTYPE svg PUBLIC "-//W3C//DTD SVG 1.1//EN" "http://www.w3.org/Graphics/SVG/1.1/DTD/svg11.dtd">
<svg version="1.1" id="Layer_1" xmlns="http://www.w3.org/2000/svg" xmlns:xlink="http://www.w3.org/1999/xlink" x="0px" y="0px"
	 width="128px" height="128px" viewBox="0 0 128 128" enable-background="new 0 0 128 128" xml:space="preserve">
<g>
	<path fill="#CBA145" d="M111.271,35.584h1.863c4.134,0,7.623-3.732,7.139-7.89c-0.354-3.035-3.847-4.601-6.192-5.895
		c-9.299-5.132-18.843-9.835-28.348-14.569c-3.787-1.886-7.577-3.762-11.374-5.628c-0.887-0.437-1.772-0.953-2.769-1.082
		c-1.31-0.17-2.403,0.308-3.53,0.862c-8.867,4.355-17.713,8.752-26.511,13.244c-3.163,1.615-6.321,3.242-9.457,4.909
		c-2.864,1.522-6.065,2.92-8.56,5.033c-1.657,1.404-2.171,3.258-1.708,5.376c0.712,3.25,3.686,5.64,7.012,5.64H30.7
		c0.389,0.507,0.839,0.967,1.339,1.366l-0.563,26.355c-3.216-0.987-6.562-1.539-9.898-1.923c-2.35-0.271-4.709-0.45-7.071-0.567
		c-2.301-0.115-4.844-0.55-6.645,1.236l-0.32,0.317c-0.89,0.882-1.391,2.083-1.391,3.336v46.236c0,1.216,0.471,2.384,1.315,3.26
		l0.9,0.935c0.885,0.918,2.106,1.438,3.382,1.438h13.018c2.188,0,4.086-1.51,4.578-3.643l0.012-0.052
		c7.964,4.097,16.086,8.008,24.503,11.089c3.649,1.336,7.42,2.594,11.285,3.12c2.995,0.408,5.99,0.009,8.929-0.61
		c8.293-1.748,16.336-5.075,23.845-8.948c3.998-2.062,7.892-4.353,11.554-6.97c1.673-1.195,3.296-2.461,4.834-3.825
		c1.563-1.384,2.464-2.904,2.687-5.002c0.449-4.234-2.379-8.439-6.063-10.356c0.102-0.404,0.169-0.817,0.16-1.243l-1.158-54.182
		C110.433,36.551,110.883,36.091,111.271,35.584C111.271,35.584,110.883,36.091,111.271,35.584z M24.767,112.874H11.749l-0.9-0.934
		V65.704l0.32-0.317c5.501,0.153,11.081,0.524,16.459,1.76c1.429,0.328,2.849,0.725,4.215,1.259c0.909,0.355,2.119,0.8,2.819,1.5
		l-1.042,4.527l-7.851,34.096L24.767,112.874L24.767,112.874z M111.962,103.517c-6.354,5.923-14.315,10.238-22.203,13.747
		c-3.913,1.74-7.929,3.283-12.042,4.487c-3.122,0.914-6.382,1.728-9.65,1.816c-2.817,0.077-5.641-0.72-8.308-1.545
		c-3.713-1.147-7.335-2.587-10.908-4.111c-6.21-2.649-12.299-5.593-18.292-8.7l6.777-29.429c4.685,0.128,9.302,0.907,13.778,2.29
		c4.896,1.511,9.655,3.416,14.861,3.416c5.31,0,11.148,1.008,15.845,3.592c1.331,0.731,3.849,2.252,3.267,4.117
		c-0.535,1.712-2.823,2.415-4.354,2.809c-4.919,1.264-10.315,0.797-15.317,0.355c-2.175-0.193-4.344-0.442-6.507-0.745
		c-0.875-0.122-2.192-0.568-3.074-0.284l-1.843,0.614c-0.903,0.3-1.368,1.351-0.978,2.222c0.335,0.748,1.236,1.338,1.894,1.781
		c1.454,0.981,3.096,1.673,4.751,2.235c1.525,0.519,3.088,0.927,4.665,1.256c0.896,0.188,1.89,0.476,2.813,0.476h18.019
		c0.219,0,0.436-0.041,0.635-0.127l3.194-1.342c0.003-0.001,0.005-0.001,0.007-0.003l9.894-4.154l5.777-2.428
		c1.229,0.011,2.549,0.051,3.71,0.498c0.935,0.36,1.71,1.09,2.375,1.819C112.037,99.599,112.852,101.676,111.962,103.517
		C100.853,113.874,112.283,102.854,111.962,103.517z M108.176,30.886c0,1.673-1.342,3.031-3.006,3.063l1.224,57.285
		c-0.555-0.062-1.126-0.063-1.683-0.069l-0.973-0.01l-5.778,2.428l-10.788,4.53c1.055-0.869,2.537-2.557,2.537-4.031
		c0.942-4.135-2.347-7.303-5.643-9.119c-3.963-2.184-8.544-3.298-13.008-3.848c-2.37-0.291-4.747-0.189-7.115-0.426
		c-2.736-0.272-5.359-1.116-7.957-1.979c-4.053-1.345-8.123-2.536-12.365-3.12c-1.771-0.243-3.553-0.396-5.339-0.471l1.619-7.028
		l-2.294-1.846c-0.507-0.254-0.976-0.709-1.474-0.997l0.669-31.299c-1.666-0.032-3.007-1.39-3.007-3.063h-4.959
		c-0.986,0-1.9-0.605-2.284-1.514c-0.111-0.262-0.356-0.826-0.127-1.089c0.231-0.266,0.566-0.461,0.858-0.652
		c1.36-0.889,2.798-1.665,4.222-2.443c4.855-2.656,9.791-5.167,14.725-7.672c8.175-4.148,16.384-8.231,24.614-12.267
		c0.048-0.023,0.094-0.046,0.142-0.069c7.545,3.697,15.067,7.438,22.566,11.228c5.147,2.601,10.29,5.214,15.371,7.944
		c1.669,0.896,3.34,1.798,4.962,2.777c0.851,0.514,1.974,0.87,1.617,2.015c-0.318,1.025-1.295,1.742-2.368,1.742H108.176
		C108.176,32.559,108.176,30.886,108.176,30.886z"/>
	<polygon fill="#CBA145" points="55.695,61.546 68.718,61.546 68.784,46.001 56.056,46.001 55.695,61.546 	"/>
	<polygon fill="#CBA145" points="56.056,42.39 68.718,42.39 68.784,26.845 56.393,26.845 56.056,42.39 	"/>
	<polygon fill="#CBA145" points="84.718,42.39 85.914,42.39 85.578,26.845 73.187,26.845 73.255,42.39 84.718,42.39 	"/>
	<polygon fill="#CBA145" points="73.187,46.001 73.255,61.546 86.277,61.546 85.914,46.001 73.187,46.001 	"/>
</g>
</svg>
