<?xml version="1.0" encoding="UTF-8" standalone="no"?>
<!-- Generator: Adobe Illustrator 15.1.0, SVG Export Plug-In . SVG Version: 6.00 Build 0)  -->

<svg
   xmlns:dc="http://purl.org/dc/elements/1.1/"
   xmlns:cc="http://creativecommons.org/ns#"
   xmlns:rdf="http://www.w3.org/1999/02/22-rdf-syntax-ns#"
   xmlns:svg="http://www.w3.org/2000/svg"
   xmlns="http://www.w3.org/2000/svg"
   xmlns:sodipodi="http://sodipodi.sourceforge.net/DTD/sodipodi-0.dtd"
   xmlns:inkscape="http://www.inkscape.org/namespaces/inkscape"
   version="1.1"
   id="Layer_1"
   x="0px"
   y="0px"
   width="128px"
   height="128px"
   viewBox="0 0 128 128"
   enable-background="new 0 0 128 128"
   xml:space="preserve"
   sodipodi:docname="Packaged Insurance (copy).svg"
   inkscape:version="0.92.3 (2405546, 2018-03-11)"><metadata
   id="metadata9"><rdf:RDF><cc:Work
       rdf:about=""><dc:format>image/svg+xml</dc:format><dc:type
         rdf:resource="http://purl.org/dc/dcmitype/StillImage" /></cc:Work></rdf:RDF></metadata><defs
   id="defs7" /><sodipodi:namedview
   pagecolor="#ffffff"
   bordercolor="#666666"
   borderopacity="1"
   objecttolerance="10"
   gridtolerance="10"
   guidetolerance="10"
   inkscape:pageopacity="0"
   inkscape:pageshadow="2"
   inkscape:window-width="640"
   inkscape:window-height="480"
   id="namedview5"
   showgrid="false"
   inkscape:zoom="1.84375"
   inkscape:cx="64"
   inkscape:cy="64"
   inkscape:window-x="0"
   inkscape:window-y="27"
   inkscape:window-maximized="0"
   inkscape:current-layer="Layer_1" />
<path
   fill="#CBA145"
   d="M124.855,40.695l-8.339-3.043l8.339-3.045c1.828-0.668,3.044-2.409,3.039-4.354  c-0.005-1.946-1.227-3.682-3.058-4.341l-39.305-14.15c-0.506-0.183-1.036-0.274-1.566-0.274c-0.536,0-1.073,0.094-1.587,0.28  l-13.224,4.828c-1.305,0.477-2.29,1.505-2.749,2.762l-0.819-0.3c-0.513-0.187-1.05-0.279-1.587-0.279s-1.074,0.093-1.586,0.279  l-0.822,0.3c-0.459-1.257-1.442-2.285-2.748-2.762l-13.225-4.828c-0.512-0.186-1.049-0.28-1.586-0.28  c-0.53,0-1.06,0.091-1.566,0.274L3.164,25.911c-1.832,0.66-3.054,2.395-3.058,4.341c-0.004,1.945,1.21,3.687,3.039,4.354  l8.339,3.045l-8.339,3.043c-1.829,0.667-3.043,2.409-3.039,4.354c0.004,1.947,1.227,3.681,3.059,4.341l16.031,5.772  c-0.179,0.496-0.277,1.024-0.277,1.565v41.228c0,1.941,1.214,3.677,3.038,4.344l38.145,13.934c0.516,0.188,1.053,0.28,1.586,0.28  c0.807,0,1.602-0.223,2.313-0.635c0.711,0.412,1.505,0.635,2.313,0.635c0.534,0,1.07-0.093,1.586-0.28l38.144-13.934  c1.824-0.667,3.038-2.402,3.038-4.344V56.727c0-0.542-0.098-1.069-0.276-1.566l16.032-5.771c1.831-0.659,3.053-2.394,3.058-4.341  C127.899,43.104,126.684,41.362,124.855,40.695z M83.966,16.111l39.305,14.15l-13.497,4.928l-5.149-1.88  c-0.004-0.001-0.005-0.003-0.008-0.004L70.743,20.939L83.966,16.111z M64,23.402l5.152,1.881c0.002,0,0.002,0.001,0.003,0.001  l33.874,12.367l-11.026,4.025l-22.846,8.34c-0.001,0-0.002,0.001-0.003,0.001L64,51.899L24.971,37.65l28.754-10.498L64,23.402z   M44.033,16.111l13.225,4.828l-5.119,1.869L23.383,33.305c-0.002,0.001-0.005,0.003-0.007,0.004l-5.149,1.88L4.73,30.261  L44.033,16.111z M18.227,40.112l39.03,14.248l-13.223,4.828L4.73,45.04L18.227,40.112z M23.543,97.955V56.727l20.501,7.38  l1.57-0.574c0.002,0,0.003,0,0.005-0.001l13.224-4.826c0.004-0.002,0.007-0.004,0.011-0.006l2.833-1.034v54.221L23.543,97.955z   M104.456,97.955l-38.144,13.933V57.667l2.829,1.033c0.006,0.002,0.01,0.005,0.015,0.007l13.223,4.826  c0.002,0.001,0.004,0.001,0.006,0.001l1.57,0.574l20.501-7.38V97.955z M104.456,51.812l-20.49,7.376L70.744,54.36l0,0l39.029-14.248  l13.497,4.927L104.456,51.812z"
   id="path2"
   style="fill:#ffffff" />
</svg>